<svg width="123" height="35" viewBox="0 0 123 35" fill="none" xmlns="http://www.w3.org/2000/svg">
<path fill-rule="evenodd" clip-rule="evenodd" d="M61.2376 28.5161C55.5024 32.7473 47.1891 34.9998 40.0297 34.9998C29.994 34.9998 20.9599 31.2919 14.1227 25.1166C13.5856 24.6315 14.0638 23.9696 14.7119 24.3439C22.0896 28.6374 31.2138 31.2226 40.6361 31.2226C46.9916 31.2226 53.9812 29.9023 60.4094 27.1751C61.3797 26.7627 62.1906 27.8127 61.2445 28.5161H61.2376Z" fill="#F8981D"/>
<path fill-rule="evenodd" clip-rule="evenodd" d="M63.6197 25.7925C62.885 24.8534 58.7717 25.3455 56.9212 25.5672C56.3598 25.6331 56.2732 25.1445 56.7791 24.791C60.0608 22.4865 65.4425 23.1519 66.0662 23.9212C66.6969 24.7009 65.8999 30.093 62.8261 32.6677C62.3514 33.0628 61.9043 32.8514 62.1123 32.3281C62.8053 30.5989 64.3543 26.7281 63.6197 25.789V25.7925Z" fill="#F8981D"/>
<path fill-rule="evenodd" clip-rule="evenodd" d="M57.0535 8.50396V6.26188C57.0535 5.92228 57.3134 5.69356 57.6218 5.69356H67.6644C67.9866 5.69356 68.2431 5.92574 68.2431 6.25842V8.17822C68.2431 8.5005 67.9693 8.9198 67.4876 9.58862L62.2861 17.0149C64.2163 16.9698 66.2609 17.2574 68.0143 18.2451C68.4094 18.4668 68.5168 18.796 68.548 19.1183V21.5094C68.548 21.8386 68.1876 22.2198 67.8099 22.0223C64.7188 20.404 60.6158 20.2272 57.199 22.0431C56.849 22.2302 56.4851 21.8525 56.4851 21.5233V19.25C56.4851 18.8861 56.4921 18.2658 56.8594 17.7114L62.8856 9.06535H57.6391C57.3168 9.06535 57.0604 8.83663 57.0604 8.5005L57.0535 8.50396ZM20.4248 22.497H17.3683C17.0772 22.4797 16.845 22.2579 16.8208 21.9807V6.3C16.8208 5.98465 17.0876 5.73515 17.4134 5.73515H20.2584C20.5564 5.74901 20.7955 5.97426 20.8129 6.26188V8.3099H20.8718C21.6134 6.33119 23.0099 5.40594 24.8916 5.40594C26.7733 5.40594 28 6.33119 28.8559 8.3099C29.5975 6.33119 31.2782 5.40594 33.0767 5.40594C34.3589 5.40594 35.7589 5.93267 36.6114 7.12129C37.5817 8.44158 37.3807 10.3545 37.3807 12.0386V21.9322C37.3807 22.2441 37.1139 22.497 36.7881 22.497H33.7351C33.4302 22.4762 33.1876 22.2337 33.1876 21.9356V13.6223C33.1876 12.9639 33.2431 11.3109 33.101 10.6871C32.8723 9.6302 32.1896 9.33564 31.3059 9.33564C30.5644 9.33564 29.795 9.83119 29.4797 10.6213C29.1644 11.4149 29.1955 12.7317 29.1955 13.6223V21.9322C29.1955 22.2441 28.9322 22.497 28.6064 22.497H25.5535C25.2485 22.4762 25.0059 22.2337 25.0059 21.9356V13.6223C25.0059 11.8723 25.2866 9.30099 23.1208 9.30099C20.9549 9.30099 21.0104 11.8099 21.0104 13.6223V21.9322C21.0104 22.2441 20.747 22.497 20.4213 22.497H20.4248ZM76.8891 5.40594C81.4218 5.40594 83.8752 9.30099 83.8752 14.2495C83.8752 19.198 81.1653 22.8297 76.8891 22.8297C72.6129 22.8297 70.0173 18.9347 70.0173 14.0866C70.0173 9.23861 72.4708 5.40941 76.8891 5.40941V5.40594ZM76.9168 8.60792C74.6643 8.60792 74.5223 11.6748 74.5223 13.5911C74.5223 15.5074 74.4945 19.5965 76.8891 19.5965C79.2837 19.5965 79.3703 16.2975 79.3703 14.2842C79.3703 12.9639 79.3148 11.3802 78.9129 10.1257C78.5698 9.03762 77.8871 8.60792 76.9168 8.60792ZM89.7559 22.497H86.7134C86.4084 22.4762 86.1658 22.2337 86.1658 21.9356V6.24802C86.1866 5.9604 86.4396 5.73515 86.748 5.73515H89.5827C89.8495 5.74901 90.0678 5.92921 90.1267 6.17525V8.57327H90.1856C91.0416 6.42822 92.2371 5.40594 94.3475 5.40594C95.7163 5.40594 97.0574 5.90149 97.9134 7.25297C98.7104 8.50743 98.7104 10.6178 98.7104 12.1356V22.0015C98.6757 22.2787 98.4262 22.497 98.1247 22.497H95.0614C94.7772 22.4797 94.552 22.2718 94.5173 22.0015V13.4871C94.5173 11.7718 94.7183 9.26287 92.6079 9.26287C91.8663 9.26287 91.1802 9.75842 90.8406 10.5173C90.4144 11.4738 90.3554 12.4302 90.3554 13.4871V21.9287C90.3485 22.2406 90.0851 22.4936 89.7594 22.4936L89.7559 22.497ZM100.62 21.253C100.62 20.4629 101.292 19.8252 102.124 19.8252C102.955 19.8252 103.628 20.4663 103.628 21.253C103.628 22.0396 102.955 22.6807 102.124 22.6807C101.292 22.6807 100.62 22.0396 100.62 21.253ZM49.0485 15.0084C49.0485 16.2005 49.0762 17.1916 48.4767 18.2485C47.9916 19.1079 47.2188 19.6381 46.3629 19.6381C45.1916 19.6381 44.5054 18.7441 44.5054 17.4238C44.5054 14.8213 46.8411 14.35 49.0485 14.35V15.0119V15.0084ZM52.1292 22.4554C51.9282 22.6356 51.6371 22.6495 51.4084 22.5282C50.3931 21.6861 50.2129 21.2946 49.6584 20.4941C47.9812 22.2025 46.7926 22.7153 44.6198 22.7153C42.0485 22.7153 40.0455 21.1282 40.0455 17.954C40.0455 15.4728 41.3901 13.7886 43.303 12.9604C44.9594 12.2327 47.2743 12.101 49.0485 11.9035V11.5084C49.0485 10.7807 49.1074 9.92129 48.6777 9.29406C48.3069 8.73267 47.5931 8.5005 46.9624 8.5005C45.798 8.5005 44.7619 9.09654 44.5054 10.3337C44.4535 10.6074 44.2525 10.8812 43.9752 10.8951L41.0158 10.5762C40.7663 10.5208 40.4891 10.3198 40.5584 9.93861C41.2376 6.34505 44.4846 5.2604 47.3886 5.2604C48.8752 5.2604 50.8193 5.65545 51.9906 6.78168C53.4772 8.17129 53.3351 10.0218 53.3351 12.0386V16.7965C53.3351 18.2277 53.9312 18.855 54.4891 19.6277C54.6832 19.905 54.7282 20.2376 54.4787 20.4386C53.8549 20.9619 52.746 21.9252 52.1361 22.4693L52.1292 22.4624V22.4554ZM8.9995 15.0084C8.9995 16.2005 9.02723 17.1916 8.42772 18.2485C7.94257 19.1079 7.1698 19.6381 6.31386 19.6381C5.14257 19.6381 4.45644 18.7441 4.45644 17.4238C4.45644 14.8213 6.79208 14.35 8.9995 14.35V15.0119V15.0084ZM12.0802 22.4554C11.8792 22.6356 11.5847 22.6495 11.3594 22.5282C10.3441 21.6861 10.1639 21.2946 9.6094 20.4941C7.93218 22.2025 6.74356 22.7153 4.57426 22.7153C2.00297 22.7153 0 21.1282 0 17.954C0 15.4728 1.34455 13.7886 3.25743 12.9604C4.91386 12.2327 7.22871 12.101 9.00297 11.9035V11.5084C9.00297 10.7807 9.05841 9.92129 8.63218 9.29406C8.26138 8.73267 7.54752 8.5005 6.91683 8.5005C5.75247 8.5005 4.71634 9.09654 4.4599 10.3337C4.40792 10.6074 4.20693 10.8812 3.9297 10.8951L0.970297 10.5762C0.720792 10.5208 0.443564 10.3198 0.512871 9.93861C1.19208 6.34505 4.43564 5.2604 7.34307 5.2604C8.8297 5.2604 10.7738 5.65545 11.945 6.78168C13.4317 8.17129 13.2896 10.0218 13.2896 12.0386V16.7965C13.2896 18.2277 13.8856 18.855 14.4436 19.6277C14.6376 19.905 14.6827 20.2376 14.4332 20.4386C13.8094 20.9619 12.7005 21.9252 12.0906 22.4693L12.0837 22.4624L12.0802 22.4554ZM111.477 5.75941H112.697C112.956 5.75941 113.22 5.98465 113.22 6.23762V8.56287C114.072 6.74703 115.451 5.4302 117.572 5.4302C119.225 5.4302 120.466 6.02277 121.374 7.30495C122.337 8.68763 122.507 10.6005 122.507 12.3124V22.0084C122.507 22.2649 122.244 22.4901 121.984 22.4901H120.563C120.303 22.4901 120.04 22.2649 120.04 22.0084V12.3124C120.04 11.3559 119.981 10.105 119.558 9.24901C119.149 8.36535 118.224 7.66881 117.347 7.67228C116.436 7.67228 115.254 8.34109 114.523 9.38416C113.646 10.6351 113.417 12.0178 113.417 13.6015V22.0257C113.417 22.2649 113.157 22.4936 112.894 22.4936H111.473C111.21 22.4936 110.947 22.2545 110.95 22.0119V6.24109C110.95 5.98465 111.21 5.75941 111.473 5.75941H111.477ZM105.229 1.44505C105.229 0.64802 105.911 0 106.75 0C107.589 0 108.271 0.64802 108.271 1.44505C108.271 2.24208 107.589 2.8901 106.75 2.8901C105.911 2.8901 105.229 2.24208 105.229 1.44505ZM107.471 22.4936H106.033C105.773 22.4936 105.509 22.2649 105.509 22.0153L105.516 6.31386C105.516 6.06089 105.78 5.83218 106.036 5.83218H107.467C107.727 5.83218 107.991 6.06089 107.991 6.31386V22.0188C107.991 22.2718 107.731 22.4936 107.471 22.497V22.4936Z" fill="#231F20"/>
</svg>
