<svg width="103" height="35" viewBox="0 0 103 35" fill="none" xmlns="http://www.w3.org/2000/svg">
<g clip-path="url(#clip0_2473_8599)">
<path d="M23.8003 18.5975C23.7581 14.1687 27.4185 12.0408 27.5832 11.9395C25.5228 8.92924 22.3226 8.51549 21.1827 8.46905C18.4595 8.1904 15.8672 10.0734 14.4824 10.0734C13.0976 10.0734 10.9656 8.50705 8.70681 8.55349C5.73455 8.59571 2.9945 10.2803 1.46193 12.9401C-1.62009 18.2851 0.676649 26.2224 3.6869 30.5668C5.16036 32.6904 6.90825 35.0843 9.21344 34.9956C11.4342 34.9069 12.2701 33.5601 14.9469 33.5601C17.6236 33.5601 18.3793 34.9956 20.7225 34.9534C23.1079 34.9069 24.6194 32.7833 26.0801 30.6512C27.7605 28.1814 28.4571 25.796 28.4993 25.6693C28.4444 25.6482 23.851 23.8876 23.8003 18.5975Z" fill="black"/>
<path d="M19.3974 5.58987C20.6218 4.10796 21.445 2.05187 21.2213 0C19.4607 0.0717732 17.3286 1.1737 16.0663 2.65561C14.9348 3.96442 13.9426 6.0585 14.2128 8.06815C16.1676 8.22015 18.1772 7.06755 19.3974 5.58987ZM39.2406 22.9505L37.214 29.0935H34.6091L41.2418 9.57117H44.2816L50.9396 29.0935H48.246L46.1604 22.9505H39.2406ZM45.6411 20.9789L43.7327 15.3595C43.2979 14.0844 43.0108 12.9276 42.7195 11.7961H42.6646C42.3733 12.953 42.0566 14.1393 41.6809 15.3299L39.7725 20.9747L45.6411 20.9789ZM52.9155 19.649C52.9155 17.8546 52.8606 16.4023 52.7973 15.0724H55.0856L55.2038 17.4789H55.2587C56.3015 15.769 57.9523 14.7557 60.2406 14.7557C63.6308 14.7557 66.1767 17.6224 66.1767 21.8824C66.1767 26.9234 63.1073 29.4101 59.8057 29.4101C57.9523 29.4101 56.3311 28.5995 55.4909 27.2105H55.436V34.8269H52.9155V19.649ZM55.4318 23.3854C55.4318 23.7654 55.4867 24.1074 55.55 24.4282C56.0144 26.193 57.547 27.4131 59.3751 27.4131C62.0687 27.4131 63.635 25.2135 63.635 21.9964C63.635 19.1846 62.1573 16.7865 59.4637 16.7865C57.7285 16.7865 56.1073 18.032 55.6091 19.9445C55.5204 20.2612 55.436 20.6411 55.436 20.9873L55.4318 23.3854ZM68.8112 19.649C68.8112 17.8546 68.7563 16.4023 68.6929 15.0724H70.9812L71.0994 17.4789H71.1543C72.1972 15.769 73.8479 14.7557 76.1362 14.7557C79.5265 14.7557 82.0723 17.6224 82.0723 21.8824C82.0723 26.9234 79.0029 29.4101 75.7014 29.4101C73.8479 29.4101 72.2267 28.5995 71.3865 27.2105H71.3317V34.8269H68.8112V19.649ZM71.3317 23.3854C71.3317 23.7654 71.3865 24.1074 71.4499 24.4282C71.9143 26.193 73.4469 27.4131 75.275 27.4131C77.9686 27.4131 79.5349 25.2135 79.5349 21.9964C79.5349 19.1846 78.0572 16.7865 75.3636 16.7865C73.6284 16.7865 72.0072 18.032 71.509 19.9445C71.4203 20.2612 71.3359 20.6411 71.3359 20.9873L71.3317 23.3854ZM84.711 8.52835H87.2611V29.0893H84.711V8.52835ZM92.3865 22.5452C92.4414 25.9904 94.6453 27.4131 97.1911 27.4131C99.015 27.4131 100.117 27.0965 101.071 26.6912L101.506 28.5151C100.611 28.9204 99.0741 29.3848 96.8449 29.3848C92.5301 29.3848 89.9505 26.5476 89.9505 22.3172C89.9505 18.0869 92.4414 14.7557 96.5241 14.7557C101.101 14.7557 102.317 18.7793 102.317 21.3589C102.317 21.8824 102.262 22.2835 102.228 22.5452H92.3865ZM99.8594 20.7214C99.889 19.1001 99.1923 16.5796 96.3256 16.5796C93.746 16.5796 92.6187 18.9566 92.4161 20.7214H99.8594Z" fill="black"/>
</g>
<defs>
<clipPath id="clip0_2473_8599">
<rect width="102.319" height="35" fill="white"/>
</clipPath>
</defs>
</svg>
