<svg width="108" height="23" viewBox="0 0 108 23" fill="none" xmlns="http://www.w3.org/2000/svg">
<path d="M11.7084 11.131C11.7084 9.1987 11.3351 7.76512 10.5884 6.83113C9.8406 5.89819 8.70821 5.43211 7.18535 5.43211H5.56569V17.2483H6.80503C8.49628 17.2483 9.73561 16.7467 10.5248 15.7405C11.313 14.7361 11.7084 13.1992 11.7084 11.131ZM17.485 10.9296C17.485 14.45 16.5388 17.1626 14.6462 19.0666C12.7536 20.9715 10.0932 21.9239 6.66366 21.9239H0V0.829631H7.12896C10.4356 0.829631 12.9884 1.69566 14.7874 3.42667C16.5856 5.15859 17.485 7.65844 17.485 10.9298M35.9435 21.9238H41.246V0.741014H35.9435V21.9238ZM48.6951 14.0225C48.6951 15.373 48.8715 16.4032 49.2239 17.1111C49.577 17.82 50.1683 18.1739 50.9998 18.1739C51.8225 18.1739 52.4043 17.82 52.7433 17.1111C53.0821 16.4032 53.2508 15.373 53.2508 14.0225C53.2508 12.6789 53.0795 11.6655 52.7362 10.9816C52.3919 10.2955 51.8049 9.9522 50.9725 9.9522C50.1586 9.9522 49.577 10.2939 49.2238 10.9735C48.8717 11.6541 48.6951 12.6701 48.6951 14.0225ZM58.6477 14.0225C58.6477 16.5956 57.9733 18.603 56.6209 20.0418C55.2696 21.4815 53.3779 22.2018 50.946 22.2018C48.6139 22.2018 46.7575 21.4656 45.3795 19.9932C43.9998 18.5209 43.3104 16.5311 43.3104 14.0226C43.3104 11.4573 43.9858 9.46403 45.3381 8.04292C46.6903 6.62168 48.5865 5.91118 51.028 5.91118C52.5367 5.91118 53.8714 6.24044 55.0277 6.89805C56.1849 7.55553 57.0783 8.49757 57.7059 9.72456C58.3344 10.9497 58.6477 12.3833 58.6477 14.0225ZM60.7536 21.9238H66.0569V6.18925H60.7536V21.9238ZM60.7533 4.28594H66.0568V0.740234H60.7533V4.28594ZM76.8014 17.9105C77.5173 17.9105 78.37 17.7286 79.3648 17.3677V21.3267C78.6497 21.6409 77.97 21.8659 77.3238 21.9993C76.6778 22.1344 75.9195 22.2014 75.0518 22.2014C73.2713 22.2014 71.9879 21.7539 71.1996 20.8605C70.4147 19.9673 70.0212 18.5956 70.0212 16.7445V10.2581H68.1638V6.19068H70.0212V2.17239L75.3652 1.24296V6.19055H78.7487V10.2582H75.3652V16.3825C75.3652 17.4012 75.8445 17.9105 76.8014 17.9105ZM89.0753 17.9105C89.7912 17.9105 90.644 17.7286 91.6388 17.3677V21.3267C90.9247 21.6409 90.2441 21.8659 89.5979 21.9993C88.9508 22.1344 88.1954 22.2014 87.3258 22.2014C85.5454 22.2014 84.2619 21.7539 83.4753 20.8605C82.6889 19.9673 82.2952 18.5956 82.2952 16.7445V10.2581H80.4371V6.19068H82.2952V2.11158L87.6382 1.24296V6.19055H91.0236V10.2582H87.6383V16.3825C87.6383 17.4012 88.1175 17.9105 89.0753 17.9105ZM98.3304 12.1056C98.4028 11.2442 98.6491 10.6129 99.0692 10.2096C99.4912 9.80707 100.012 9.60579 100.635 9.60579C101.315 9.60579 101.855 9.83175 102.256 10.2872C102.659 10.74 102.869 11.3466 102.886 12.1056H98.3304ZM105.809 7.76616C104.548 6.53046 102.76 5.91157 100.446 5.91157C98.0144 5.91157 96.1429 6.6222 94.8312 8.04331C93.5204 9.46455 92.8646 11.5035 92.8646 14.1607C92.8646 16.7337 93.5734 18.7181 94.9875 20.111C96.4025 21.5039 98.3895 22.2013 100.948 22.2013C102.177 22.2013 103.235 22.1175 104.121 21.9507C105.002 21.7856 105.855 21.4872 106.682 21.0564L105.867 17.5105C105.266 17.7561 104.694 17.9449 104.154 18.0692C103.373 18.2503 102.517 18.3412 101.585 18.3412C100.563 18.3412 99.7561 18.0914 99.1646 17.5918C98.5731 17.0913 98.258 16.4009 98.2219 15.5218H107.7V13.1058C107.7 10.7816 107.07 9.00107 105.809 7.76616ZM24.5229 12.1056C24.5953 11.2442 24.8416 10.6129 25.2617 10.2096C25.6827 9.80707 26.2044 9.60579 26.8286 9.60579C27.5065 9.60579 28.0468 9.83175 28.4484 10.2872C28.8517 10.74 29.0609 11.3466 29.0795 12.1056H24.5229ZM32.0022 7.76616C30.7407 6.53046 28.9532 5.91157 26.6388 5.91157C24.206 5.91157 22.3355 6.6222 21.0246 8.04331C19.7138 9.46455 19.0571 11.5035 19.0571 14.1607C19.0571 16.7337 19.765 18.7181 21.1809 20.111C22.595 21.5039 24.582 22.2013 27.1411 22.2013C28.3698 22.2013 29.4273 22.1175 30.3135 21.9507C31.1945 21.7856 32.0472 21.4872 32.8752 21.0564L32.0596 17.5105C31.4584 17.7561 30.8864 17.9449 30.347 18.0692C29.5651 18.2503 28.7097 18.3412 27.7774 18.3412C26.7561 18.3412 25.9486 18.0914 25.3571 17.5918C24.7647 17.0913 24.4505 16.4009 24.4144 15.5218H33.893V13.1058C33.893 10.7816 33.2628 9.00107 32.0022 7.76616Z" fill="#0F0B0B"/>
</svg>
