<svg width="87" height="35" viewBox="0 0 87 35" fill="none" xmlns="http://www.w3.org/2000/svg">
<path fill-rule="evenodd" clip-rule="evenodd" d="M0.762404 4.09939L0.761719 4.058V0.745441H4.06728V25.0416L4.06865 25.1173V28.3955H0.761719V25.0829L0.762404 25.0416V4.09939Z" fill="#3781C2"/>
<path fill-rule="evenodd" clip-rule="evenodd" d="M34.3733 18.3261C34.4582 23.3514 37.5673 27.3703 41.3182 27.3029C45.0685 27.2356 48.0394 23.1073 47.9546 18.082C47.869 13.056 44.7599 9.03717 41.0089 9.1052C37.2587 9.17253 34.2877 13.3008 34.3733 18.3261ZM61.7428 12.2501C61.8291 12.4416 61.6243 11.964 61.6243 11.964L61.7428 12.2501ZM63.9956 33.0549C64.1471 32.7954 64.3582 32.3984 64.6093 31.9025L63.9956 33.0549ZM64.1899 10.5164C64.2299 10.6279 64.2762 10.7443 64.3281 10.8671L65.4411 13.6087L64.1899 10.5164ZM50.3392 24.3179C52.3823 26.1835 54.222 27.1479 56.5744 27.1479C58.9822 27.1662 61.1228 25.9816 61.1228 23.7014C61.1228 21.7986 59.4458 20.6855 56.4496 19.4111C53.9106 18.3058 52.0211 17.5307 51.0336 15.9309C51.1542 16.626 51.2174 17.3442 51.2174 18.0792C51.2174 24.2506 46.7679 29.2541 41.2789 29.2541C35.79 29.2541 31.3406 24.2506 31.3406 18.0792C31.3406 14.3585 32.9579 11.0627 35.4443 9.03156H28.7189V25.0417L28.7195 25.1055V28.3957H25.7324V25.2128C25.7345 25.1567 25.7352 25.0999 25.7352 25.0417V9.03156H23.1016V7.01653H25.7738C26.1189 2.95139 28.622 0.652302 32.0875 0.652302C34.3347 0.652302 35.5684 0.887966 36.281 1.21972V3.97539C36.2698 4.18089 36.2698 4.30644 36.2698 4.30644C36.2389 4.30293 36.1653 4.30153 36.1653 4.30153C35.0838 3.29787 34.017 2.55091 31.525 2.55371C29.5401 2.55371 28.2272 4.17598 28.6859 7.01653H39.8657C40.3279 6.94289 40.7992 6.90431 41.2789 6.90431C45.2606 6.90431 48.696 9.53724 50.2818 13.3401C50.267 13.129 50.26 12.9087 50.26 12.6787C50.26 8.71103 54.0776 7.02355 58.0431 7.03196C58.1946 7.03126 58.3433 7.03195 58.4892 7.03546C59.8849 7.01302 61.8733 7.47102 63.0873 7.79225L65.4411 13.6087L68.8049 21.8624L69.1998 23.188L69.6395 21.8624L73.8933 11.2682C74.6782 8.35123 77.7845 7.08876 81.2156 7.09578C82.9214 7.08806 84.181 7.29497 85.6918 7.82941V11.0333C83.8317 9.67332 82.4998 8.88287 80.3894 8.88287C78.5343 8.88287 76.3046 9.70909 76.3046 12.4557C76.2689 14.5198 77.4998 14.8971 81.1118 16.7003C84.0807 17.9972 86.8196 19.4287 86.8357 22.744C86.8357 28.2715 81.4225 29.2289 78.7875 29.2373C76.4351 29.2373 74.2791 28.6531 73.0797 27.6494V24.0002L73.2726 24.1608C75.4125 26.1709 77.3034 27.2125 79.747 27.2125C82.1555 27.2307 84.2953 26.0454 84.2953 23.7652C84.2953 21.8624 82.6183 20.7493 79.6221 19.4749C76.7584 18.2279 74.8794 17.4017 74.1114 15.3362C72.9437 18.2013 67.5116 31.5097 66.233 34.3545H63.304L64.6296 31.8646C65.364 30.41 66.4321 28.1277 67.3811 25.9444L61.7428 12.2501C61.7049 12.1667 61.6124 11.9563 61.4237 11.5249C60.991 10.5332 60.5884 9.61721 59.3708 9.15571C58.7185 8.93478 58.0242 8.81904 57.2169 8.81904C55.3618 8.81904 52.989 9.64526 52.989 12.3918C52.9533 14.456 54.3265 14.8333 57.9393 16.6358C60.9082 17.9333 63.647 19.3648 63.6632 22.6802C63.6632 28.2077 58.2493 29.1644 55.6142 29.1735C53.5228 29.1735 51.5856 28.7113 50.3392 27.9033V24.3179Z" fill="#3781C2"/>
<path fill-rule="evenodd" clip-rule="evenodd" d="M10.2371 7.22271L10.2736 9.64103L10.2715 9.80375L10.3037 9.80304C10.3423 9.70204 10.3942 9.61648 10.4433 9.55265C11.6574 8.2432 13.1878 6.94216 16.8251 6.94216C20.3067 6.94216 22.5602 9.91807 22.6506 11.7914L22.6541 25.0417V25.1076V28.3956H19.6705V24.4448L19.6698 13.1647C19.6698 10.8291 17.6323 9.14025 15.1383 9.14025C13.065 9.14025 10.404 11.0171 10.3157 12.9171V25.0452L10.3171 25.1343V28.3984H7.33203V10.0071L7.33276 7.22271H10.2371Z" fill="#3781C2"/>
</svg>
