<svg width="234" height="134" viewBox="0 0 234 134" fill="none" xmlns="http://www.w3.org/2000/svg">
<rect width="234" height="134" fill="white"/>
<g clip-path="url(#clip0_2602_7963)">
<path d="M49.1914 73.3822C49.1914 74.7669 50.3222 75.886 51.7134 75.886H65.4467V72.1463H53.1973V68.4065H62.304V64.9785H56.5254C54.6883 64.9785 53.1973 66.4588 53.1973 68.2826V61.2387H65.4467V57.8105H49.1914V73.3893V73.3822Z" fill="black"/>
<path d="M79.9115 69.9235L74.8854 57.8047H68.5859V75.8873H72.5953V62.7166L77.8069 74.6513C78.1529 75.4481 78.9448 75.9617 79.8187 75.9617H80.0078C80.8817 75.9617 81.6701 75.4481 82.0197 74.6513L87.2311 62.7166V75.8873H91.2406V57.8047H84.9411L79.915 69.9235H79.9115Z" fill="black"/>
<path d="M102.785 71.2325L97.3534 57.7998H92.8086L99.6928 73.9913C100.2 75.1847 101.377 75.9603 102.682 75.9603C103.988 75.9603 105.165 75.1847 105.671 73.9913L112.556 57.7998H108.197L102.79 71.2325H102.785Z" fill="black"/>
<path d="M162.29 64.8764C158.577 64.5576 157.639 64.1539 157.639 62.9286C157.639 61.7033 159.173 60.9808 161.78 60.9808C164.038 60.9808 166.164 61.5686 167.965 62.7444L169.471 59.5925C167.32 58.1512 164.737 57.4287 161.617 57.4287C156.426 57.4287 153.359 59.5394 153.359 63.1163C153.359 66.6931 155.431 68.1912 161.509 68.7224C165.223 69.0411 166.161 69.4448 166.161 70.6701C166.161 71.9805 164.627 72.6746 161.695 72.6746C158.977 72.6746 156.423 71.8991 154.165 70.4329L152.523 73.691C155.106 75.4016 158.092 76.2267 161.777 76.2267C167.452 76.2267 170.438 74.2506 170.438 70.486C170.438 66.7215 168.366 65.4111 162.287 64.8799L162.29 64.8764Z" fill="black"/>
<path d="M177.178 57.8047H173.094V75.8873H177.178V57.8047Z" fill="black"/>
<path d="M214.292 57.8047L209.536 64.4485L204.778 57.8047H199.77L207.033 67.9474L201.346 75.8873H206.358L219.303 57.8047H214.292Z" fill="black"/>
<path d="M180.312 61.2328H187.222V75.8873H191.306V64.5936C191.306 62.7379 189.79 61.2328 187.921 61.2328H198.216V57.8047H180.316V61.2328H180.312Z" fill="black"/>
<path d="M144.489 68.927V68.9164H145.837C146.771 68.9164 147.71 68.6933 148.494 68.1869C149.953 67.2449 150.709 65.6724 150.709 63.5193C150.709 59.7972 148.434 57.7998 144.203 57.7998H133.523V75.8824H137.533V68.9093H142.281L146.985 75.8824H151.483L148.137 70.9244C147.317 69.7096 145.958 68.9695 144.489 68.9235V68.927ZM137.529 65.3502V61.3661H143.743C145.591 61.3661 146.447 62.0566 146.447 63.5193C146.447 64.9818 145.591 65.3502 143.743 65.3502H137.529Z" fill="black"/>
<path d="M114.121 73.3822C114.121 74.7669 115.252 75.886 116.644 75.886H130.377V72.1463H118.127V68.4065H127.234V64.9785H121.456C119.618 64.9785 118.127 66.4588 118.127 68.2826V61.2387H130.377V57.8105H114.121V73.3893V73.3822Z" fill="black"/>
<path d="M16.5601 58.7607L13.125 62.1711L17.8336 66.8458L13.125 71.5206L16.5601 74.931L19.1463 72.3634C22.214 69.3177 22.214 64.3739 19.1463 61.3283L16.5601 58.7607Z" fill="#00A66B"/>
<path d="M35.2861 56.6282L31.8474 53.2178L26.1365 58.8876C21.7097 63.2825 21.7097 70.4044 26.1365 74.7993L31.8474 80.4692L35.2826 77.0588L24.9915 66.8417L35.2826 56.6246L35.2861 56.6282Z" fill="#00A66B"/>
<path d="M36.4581 57.8047L32.9089 61.3284C29.8377 64.3776 29.8377 69.3179 32.9089 72.3671L36.4581 75.8908L39.8969 72.4769L34.2287 66.8495L39.8969 61.2222L36.4581 57.8082V57.8047Z" fill="#00A66B"/>
</g>
<defs>
<clipPath id="clip0_2602_7963">
<rect width="207" height="27.9286" fill="white" transform="translate(13 53)"/>
</clipPath>
</defs>
</svg>
