<svg width="1920" height="424" viewBox="0 0 1920 424" fill="none" xmlns="http://www.w3.org/2000/svg">
<rect width="1920" height="424" fill="#0060AA"/>
<mask id="mask0_2488_8157" style="mask-type:alpha" maskUnits="userSpaceOnUse" x="0" y="0" width="1920" height="424">
<rect width="1920" height="424" fill="#0060AA"/>
</mask>
<g mask="url(#mask0_2488_8157)">
</g>
<g opacity="0.1" clip-path="url(#clip0_2488_8157)">
<mask id="mask1_2488_8157" style="mask-type:luminance" maskUnits="userSpaceOnUse" x="0" y="-155" width="1918" height="1097">
<path d="M1917.48 -154.5H0V941.706H1917.48V-154.5Z" fill="white"/>
</mask>
<g mask="url(#mask1_2488_8157)">
<g opacity="0.4">
<path d="M2.26846 5.48739C2.45655 3.58638 1.06865 1.89276 -0.831493 1.70459C-2.73164 1.51642 -4.42448 2.90495 -4.61257 4.80596C-4.80065 6.70697 -3.41276 8.40059 -1.51261 8.58876C0.387532 8.77693 2.08038 7.3884 2.26846 5.48739Z" fill="white"/>
<path d="M31.9948 10.0685C34.7125 9.42645 36.3954 6.70185 35.7536 3.9829C35.1119 1.26395 32.3886 -0.419736 29.6708 0.222285C26.9531 0.864305 25.2702 3.58892 25.912 6.30787C26.5537 9.02682 29.277 10.7105 31.9948 10.0685Z" fill="white"/>
<path d="M62.8214 11.6349C66.395 11.6349 69.299 8.73647 69.299 5.15439C69.299 1.57914 66.4018 -1.32617 62.8214 -1.32617C59.2477 -1.32617 56.3438 1.5723 56.3438 5.15439C56.3438 8.72963 59.2409 11.6349 62.8214 11.6349Z" fill="white"/>
<path d="M94.8092 12.7014C98.9704 12.7014 102.353 9.32439 102.353 5.15441C102.353 0.991265 98.9772 -2.39258 94.8092 -2.39258C90.6411 -2.39258 87.2656 0.984429 87.2656 5.15441C87.2656 9.31756 90.6411 12.7014 94.8092 12.7014Z" fill="white"/>
<path d="M134.188 8.19232C135.863 4.11334 133.915 -0.551742 129.838 -2.22743C125.761 -3.90312 121.098 -1.95488 119.423 2.12411C117.748 6.20309 119.696 10.8682 123.773 12.5439C127.85 14.2196 132.513 12.2713 134.188 8.19232Z" fill="white"/>
<path d="M164.127 10.4888C167.073 7.54157 167.073 2.76313 164.127 -0.184125C161.181 -3.13138 156.405 -3.13138 153.459 -0.184125C150.513 2.76313 150.513 7.54157 153.459 10.4888C156.405 13.4361 161.181 13.4361 164.127 10.4888Z" fill="white"/>
<path d="M190.79 11.6349C194.364 11.6349 197.268 8.73647 197.268 5.15439C197.268 1.57914 194.371 -1.32617 190.79 -1.32617C187.216 -1.32617 184.312 1.5723 184.312 5.15439C184.312 8.72963 187.21 11.6349 190.79 11.6349Z" fill="white"/>
<path d="M227.529 7.10925C228.611 4.4807 227.359 1.47201 224.732 0.389142C222.104 -0.69372 219.097 0.559307 218.014 3.18786C216.932 5.81641 218.185 8.8251 220.812 9.90796C223.439 10.9908 226.447 9.7378 227.529 7.10925Z" fill="white"/>
<path d="M254.768 8.79112C256.777 8.79112 258.403 7.16415 258.403 5.15435C258.403 3.14456 256.777 1.51758 254.768 1.51758C252.759 1.51758 251.133 3.14456 251.133 5.15435C251.126 7.16415 252.759 8.79112 254.768 8.79112Z" fill="white"/>
<path d="M286.767 7.10943C287.846 7.10943 288.721 6.23442 288.721 5.15433C288.721 4.07423 287.846 3.19922 286.767 3.19922C285.687 3.19922 284.812 4.07423 284.812 5.15433C284.812 6.23442 285.687 7.10943 286.767 7.10943Z" fill="white"/>
<path d="M318.757 5.59962C319.003 5.59962 319.201 5.40138 319.201 5.15529C319.201 4.90919 319.003 4.71094 318.757 4.71094C318.511 4.71094 318.312 4.90919 318.312 5.15529C318.312 5.40138 318.511 5.59962 318.757 5.59962Z" fill="white"/>
<path d="M-1.15837 39.7325C0.262882 39.7325 1.41765 38.5772 1.41765 37.1553C1.41765 35.7334 0.262882 34.5781 -1.15837 34.5781C-2.57961 34.5781 -3.73438 35.7334 -3.73438 37.1553C-3.73438 38.584 -2.57961 39.7325 -1.15837 39.7325Z" fill="white"/>
<path d="M30.8313 41.0646C32.9837 41.0646 34.7329 39.3145 34.7329 37.1612C34.7329 35.0078 32.9837 33.2578 30.8313 33.2578C28.6789 33.2578 26.9297 35.0078 26.9297 37.1612C26.9229 39.3214 28.6721 41.0646 30.8313 41.0646Z" fill="white"/>
<path d="M66.3979 40.7352C68.3725 38.7597 68.3725 35.5567 66.3979 33.5812C64.4233 31.6057 61.2218 31.6057 59.2472 33.5812C57.2726 35.5567 57.2726 38.7597 59.2472 40.7352C61.2218 42.7107 64.4233 42.7107 66.3979 40.7352Z" fill="white"/>
<path d="M94.8089 43.0197C98.0409 43.0197 100.665 40.3947 100.665 37.1612C100.665 33.9278 98.0409 31.3027 94.8089 31.3027C91.577 31.3027 88.9531 33.9278 88.9531 37.1612C88.9531 40.3947 91.5701 43.0197 94.8089 43.0197Z" fill="white"/>
<path d="M126.805 43.3752C130.235 43.3752 133.016 40.5929 133.016 37.1612C133.016 33.7295 130.235 30.9473 126.805 30.9473C123.375 30.9473 120.594 33.7295 120.594 37.1612C120.594 40.5929 123.375 43.3752 126.805 43.3752Z" fill="white"/>
<path d="M158.796 43.1095C162.076 43.1095 164.741 40.4503 164.741 37.1622C164.741 33.8809 162.083 31.2148 158.796 31.2148C155.516 31.2148 152.852 33.874 152.852 37.1622C152.852 40.4435 155.51 43.1095 158.796 43.1095Z" fill="white"/>
<path d="M190.786 42.3087C193.628 42.3087 195.931 40.005 195.931 37.1612C195.931 34.3174 193.628 32.0137 190.786 32.0137C187.943 32.0137 185.641 34.3174 185.641 37.1612C185.641 40.005 187.943 42.3087 190.786 42.3087Z" fill="white"/>
<path d="M222.78 41.1525C224.987 41.1525 226.77 39.3614 226.77 37.1602C226.77 34.9522 224.98 33.168 222.78 33.168C220.572 33.168 218.789 34.959 218.789 37.1602C218.782 39.3683 220.572 41.1525 222.78 41.1525Z" fill="white"/>
<path d="M254.775 39.8272C256.244 39.8272 257.433 38.6377 257.433 37.1612C257.433 35.6914 256.244 34.502 254.775 34.502C253.306 34.502 252.117 35.6914 252.117 37.1612C252.11 38.6309 253.306 39.8272 254.775 39.8272Z" fill="white"/>
<path d="M286.764 38.3164C287.4 38.3164 287.919 37.7969 287.919 37.1612C287.919 36.5254 287.4 36.0059 286.764 36.0059C286.129 36.0059 285.609 36.5254 285.609 37.1612C285.609 37.7969 286.122 38.3164 286.764 38.3164Z" fill="white"/>
<path d="M318.753 37.2494C318.8 37.2494 318.841 37.2085 318.841 37.1608C318.841 37.1131 318.8 37.0723 318.753 37.0723C318.705 37.0723 318.664 37.1131 318.664 37.1608C318.664 37.2085 318.698 37.2494 318.753 37.2494Z" fill="white"/>
<path d="M-1.16469 70.5899C-0.378905 70.5899 0.256556 69.9541 0.256556 69.168C0.256556 68.3819 -0.378905 67.7461 -1.16469 67.7461C-1.95048 67.7461 -2.58594 68.3819 -2.58594 69.168C-2.58594 69.9541 -1.95048 70.5899 -1.16469 70.5899Z" fill="white"/>
<path d="M30.827 71.7452C32.2483 71.7452 33.403 70.5899 33.403 69.168C33.403 67.7461 32.2483 66.5977 30.827 66.5977C29.4058 66.5977 28.2578 67.753 28.2578 69.168C28.251 70.5899 29.4058 71.7452 30.827 71.7452Z" fill="white"/>
<path d="M62.8197 72.7149C64.7808 72.7149 66.366 71.1222 66.366 69.167C66.366 67.2051 64.774 65.6191 62.8197 65.6191C60.8587 65.6191 59.2735 67.2119 59.2735 69.167C59.2666 71.129 60.8587 72.7149 62.8197 72.7149Z" fill="white"/>
<path d="M94.8165 73.338C97.1192 73.338 98.9846 71.4718 98.9846 69.168C98.9846 66.8643 97.1192 64.998 94.8165 64.998C92.5138 64.998 90.6485 66.8643 90.6485 69.168C90.6416 71.4718 92.5138 73.338 94.8165 73.338Z" fill="white"/>
<path d="M126.802 73.6036C129.255 73.6036 131.236 71.6143 131.236 69.167C131.236 66.7197 129.248 64.7305 126.802 64.7305C124.349 64.7305 122.367 66.7197 122.367 69.167C122.367 71.6143 124.349 73.6036 126.802 73.6036Z" fill="white"/>
<path d="M158.793 73.338C161.096 73.338 162.961 71.4718 162.961 69.168C162.961 66.8643 161.096 64.998 158.793 64.998C156.49 64.998 154.625 66.8643 154.625 69.168C154.618 71.4718 156.49 73.338 158.793 73.338Z" fill="white"/>
<path d="M190.791 72.8048C192.8 72.8048 194.427 71.1778 194.427 69.168C194.427 67.1582 192.8 65.5312 190.791 65.5312C188.783 65.5312 187.156 67.1582 187.156 69.168C187.149 71.1778 188.783 72.8048 190.791 72.8048Z" fill="white"/>
<path d="M222.782 71.8253C224.251 71.8253 225.44 70.6358 225.44 69.166C225.44 67.6963 224.251 66.5 222.782 66.5C221.313 66.5 220.117 67.6895 220.117 69.166C220.117 70.6358 221.313 71.8253 222.782 71.8253Z" fill="white"/>
<path d="M254.768 70.6778C255.601 70.6778 256.278 70.001 256.278 69.167C256.278 68.333 255.601 67.6562 254.768 67.6562C253.934 67.6562 253.258 68.333 253.258 69.167C253.258 70.001 253.934 70.6778 254.768 70.6778Z" fill="white"/>
<path d="M286.766 69.4336C286.917 69.4336 287.033 69.3174 287.033 69.167C287.033 69.0166 286.917 68.9004 286.766 68.9004C286.623 68.9004 286.5 69.0166 286.5 69.167C286.5 69.3106 286.616 69.4336 286.766 69.4336Z" fill="white"/>
<path d="M30.8316 102.24C31.4203 102.24 31.8975 101.763 31.8975 101.174C31.8975 100.585 31.4203 100.107 30.8316 100.107C30.2429 100.107 29.7656 100.585 29.7656 101.174C29.7656 101.763 30.2429 102.24 30.8316 102.24Z" fill="white"/>
<path d="M62.8185 103.041C63.8503 103.041 64.6839 102.207 64.6839 101.175C64.6839 100.143 63.8503 99.3086 62.8185 99.3086C61.7867 99.3086 60.9531 100.143 60.9531 101.175C60.9531 102.207 61.7867 103.041 62.8185 103.041Z" fill="white"/>
<path d="M94.8153 103.662C96.1887 103.662 97.2957 102.548 97.2957 101.174C97.2957 99.7998 96.1819 98.6855 94.8153 98.6855C93.4419 98.6855 92.3281 99.7998 92.3281 101.174C92.3281 102.548 93.4419 103.662 94.8153 103.662Z" fill="white"/>
<path d="M126.806 103.834C128.276 103.834 129.464 102.645 129.464 101.175C129.464 99.7051 128.276 98.5156 126.806 98.5156C125.337 98.5156 124.148 99.7051 124.148 101.175C124.148 102.645 125.337 103.834 126.806 103.834Z" fill="white"/>
<path d="M158.8 103.662C160.173 103.662 161.287 102.548 161.287 101.174C161.287 99.7998 160.173 98.6855 158.8 98.6855C157.426 98.6855 156.313 99.7998 156.313 101.174C156.312 102.548 157.426 103.662 158.8 103.662Z" fill="white"/>
<path d="M190.79 103.129C191.87 103.129 192.744 102.254 192.744 101.174C192.744 100.094 191.87 99.2188 190.79 99.2188C189.711 99.2188 188.836 100.094 188.836 101.174C188.836 102.254 189.711 103.129 190.79 103.129Z" fill="white"/>
<path d="M222.78 102.328C223.415 102.328 223.935 101.809 223.935 101.173C223.935 100.537 223.415 100.018 222.78 100.018C222.144 100.018 221.625 100.537 221.625 101.173C221.625 101.809 222.137 102.328 222.78 102.328Z" fill="white"/>
<path d="M254.774 101.439C254.918 101.439 255.041 101.323 255.041 101.173C255.041 101.029 254.925 100.906 254.774 100.906C254.631 100.906 254.508 101.022 254.508 101.173C254.508 101.316 254.624 101.439 254.774 101.439Z" fill="white"/>
<path d="M30.8308 133.269C30.8785 133.269 30.9194 133.228 30.9194 133.18C30.9194 133.133 30.8785 133.092 30.8308 133.092C30.7831 133.092 30.7422 133.133 30.7422 133.18C30.7422 133.228 30.7831 133.269 30.8308 133.269Z" fill="white"/>
<path d="M62.8241 133.535C63.0222 133.535 63.1794 133.378 63.1794 133.18C63.1794 132.981 63.0222 132.824 62.8241 132.824C62.6259 132.824 62.4688 132.981 62.4688 133.18C62.4688 133.378 62.6259 133.535 62.8241 133.535Z" fill="white"/>
<path d="M94.8122 133.891C95.2017 133.891 95.5228 133.569 95.5228 133.18C95.5228 132.79 95.2085 132.469 94.8122 132.469C94.4227 132.469 94.1016 132.783 94.1016 133.18C94.1016 133.569 94.4159 133.891 94.8122 133.891Z" fill="white"/>
<path d="M126.807 133.98C127.251 133.98 127.607 133.625 127.607 133.181C127.607 132.736 127.251 132.381 126.807 132.381C126.363 132.381 126.008 132.736 126.008 133.181C126.008 133.618 126.363 133.98 126.807 133.98Z" fill="white"/>
<path d="M158.797 133.891C159.186 133.891 159.507 133.569 159.507 133.18C159.507 132.79 159.186 132.469 158.797 132.469C158.407 132.469 158.086 132.783 158.086 133.18C158.086 133.569 158.4 133.891 158.797 133.891Z" fill="white"/>
<path d="M190.788 133.623C191.034 133.623 191.232 133.425 191.232 133.179C191.232 132.933 191.034 132.734 190.788 132.734C190.542 132.734 190.344 132.933 190.344 133.179C190.344 133.425 190.542 133.623 190.788 133.623Z" fill="white"/>
<path d="M222.776 133.269C222.824 133.269 222.865 133.228 222.865 133.18C222.865 133.133 222.824 133.092 222.776 133.092C222.728 133.092 222.688 133.133 222.688 133.18C222.688 133.228 222.722 133.269 222.776 133.269Z" fill="white"/>
</g>
</g>
<mask id="mask2_2488_8157" style="mask-type:luminance" maskUnits="userSpaceOnUse" x="0" y="-155" width="1918" height="1097">
<path d="M1917.48 -154.5H0V941.706H1917.48V-154.5Z" fill="white"/>
</mask>
<g mask="url(#mask2_2488_8157)">
<path d="M1775.45 180.875C1731.4 180.875 1695.55 145.02 1695.55 100.942C1695.55 56.8697 1731.4 21.0078 1775.45 21.0078C1819.5 21.0078 1855.35 56.8628 1855.35 100.942C1855.34 145.02 1819.5 180.875 1775.45 180.875ZM1775.45 59.0709C1752.38 59.0709 1733.6 77.8563 1733.6 100.942C1733.6 124.027 1752.38 142.812 1775.45 142.812C1798.53 142.812 1817.3 124.027 1817.3 100.942C1817.3 77.8563 1798.53 59.0709 1775.45 59.0709Z" fill="white"/>
</g>
<mask id="mask3_2488_8157" style="mask-type:luminance" maskUnits="userSpaceOnUse" x="0" y="-155" width="1918" height="1097">
<path d="M1917.48 -154.5H0V941.706H1917.48V-154.5Z" fill="white"/>
</mask>
<g mask="url(#mask3_2488_8157)">
<path d="M180.932 906.603C16.6001 906.603 -117.086 772.849 -117.086 608.45C-117.086 444.043 16.607 310.289 180.932 310.289C345.264 310.289 478.95 444.043 478.95 608.45C478.95 772.849 345.264 906.603 180.932 906.603ZM180.932 348.352C37.584 348.352 -79.0402 465.03 -79.0402 608.45C-79.0402 751.863 37.584 868.54 180.932 868.54C324.28 868.54 440.904 751.863 440.904 608.45C440.904 465.03 324.28 348.352 180.932 348.352Z" fill="white"/>
</g>
<mask id="mask4_2488_8157" style="mask-type:luminance" maskUnits="userSpaceOnUse" x="0" y="-155" width="1918" height="1097">
<path d="M1917.48 -154.5H0V941.706H1917.48V-154.5Z" fill="white"/>
</mask>
<g mask="url(#mask4_2488_8157)">
<path d="M417.645 239.87C367.184 239.87 326.125 198.792 326.125 148.308C326.125 97.8238 367.177 56.7461 417.645 56.7461C468.113 56.7461 509.165 97.8238 509.165 148.308C509.165 198.792 468.113 239.87 417.645 239.87ZM417.645 60.5538C369.282 60.5538 329.931 99.9225 329.931 148.308C329.931 196.693 369.282 236.062 417.645 236.062C466.008 236.062 505.359 196.693 505.359 148.308C505.366 99.9225 466.015 60.5538 417.645 60.5538Z" fill="white"/>
</g>
<mask id="mask5_2488_8157" style="mask-type:luminance" maskUnits="userSpaceOnUse" x="0" y="-155" width="1918" height="1097">
<path d="M1917.48 -154.5H0V941.706H1917.48V-154.5Z" fill="white"/>
</mask>
<g mask="url(#mask5_2488_8157)">
<path d="M1946.23 764.291C1791.34 764.291 1665.33 638.221 1665.33 483.262C1665.33 328.303 1791.34 202.232 1946.23 202.232C2101.12 202.232 2227.13 328.303 2227.13 483.262C2227.13 638.221 2101.12 764.291 1946.23 764.291ZM1946.23 206.04C1793.44 206.04 1669.13 330.401 1669.13 483.262C1669.13 636.122 1793.44 760.484 1946.23 760.484C2099.02 760.484 2223.32 636.122 2223.32 483.262C2223.32 330.401 2099.02 206.04 1946.23 206.04Z" fill="white"/>
</g>
<mask id="mask6_2488_8157" style="mask-type:luminance" maskUnits="userSpaceOnUse" x="-51" y="-715" width="2173" height="1672">
<path d="M1757.58 -714.747L-50.9453 -76.7046L313.231 956.938L2121.75 318.895L1757.58 -714.747Z" fill="white"/>
</mask>
<g mask="url(#mask6_2488_8157)">
<path d="M214.142 69.9688C234.402 62.8216 245.037 40.5994 237.897 20.3343C230.757 0.0691611 208.545 -10.565 188.285 -3.41778C168.025 3.72946 157.39 25.9516 164.53 46.2167C171.67 66.4819 193.882 77.116 214.142 69.9688Z" fill="white"/>
</g>
<mask id="mask7_2488_8157" style="mask-type:luminance" maskUnits="userSpaceOnUse" x="0" y="-155" width="1918" height="1097">
<path d="M1917.48 -154.5H0V941.706H1917.48V-154.5Z" fill="white"/>
</mask>
<g mask="url(#mask7_2488_8157)">
<path d="M1555 108.579C1555 109.994 1553.85 111.143 1552.44 111.143C1551.02 111.143 1549.88 109.994 1549.88 108.579C1549.88 107.164 1551.02 106.016 1552.44 106.016C1553.85 106.016 1555 107.164 1555 108.579Z" fill="white"/>
<path d="M1337.87 139.415C1337.87 140.83 1336.72 141.979 1335.3 141.979C1333.89 141.979 1332.74 140.83 1332.74 139.415C1332.74 138 1333.89 136.852 1335.3 136.852C1336.72 136.852 1337.87 138 1337.87 139.415Z" fill="white"/>
<path d="M1647.91 120.556C1647.91 121.971 1646.76 123.119 1645.34 123.119C1643.93 123.119 1642.78 121.971 1642.78 120.556C1642.78 119.141 1643.93 117.992 1645.34 117.992C1646.76 117.992 1647.91 119.141 1647.91 120.556Z" fill="white"/>
<path d="M1388.37 160.136C1388.37 161.551 1387.23 162.699 1385.81 162.699C1384.4 162.699 1383.25 161.551 1383.25 160.136C1383.25 158.721 1384.4 157.572 1385.81 157.572C1387.23 157.572 1388.37 158.721 1388.37 160.136Z" fill="white"/>
<path d="M1389.52 201.61C1389.52 203.025 1388.37 204.174 1386.95 204.174C1385.54 204.174 1384.39 203.025 1384.39 201.61C1384.39 200.195 1385.54 199.047 1386.95 199.047C1388.37 199.054 1389.52 200.195 1389.52 201.61Z" fill="white"/>
<path d="M1489.66 85.7315C1489.66 87.1465 1488.51 88.295 1487.09 88.295C1485.68 88.295 1484.53 87.1465 1484.53 85.7315C1484.53 84.3164 1485.68 83.168 1487.09 83.168C1488.51 83.168 1489.66 84.3164 1489.66 85.7315Z" fill="white"/>
<path d="M1568.8 139.538C1568.8 140.953 1567.66 142.102 1566.24 142.102C1564.83 142.102 1563.68 140.953 1563.68 139.538C1563.68 138.123 1564.83 136.975 1566.24 136.975C1567.66 136.975 1568.8 138.123 1568.8 139.538Z" fill="white"/>
<path d="M1577.5 80.837C1577.5 82.252 1576.35 83.4005 1574.94 83.4005C1573.52 83.4005 1572.38 82.252 1572.38 80.837C1572.38 79.4219 1573.52 78.2734 1574.94 78.2734C1576.35 78.2734 1577.5 79.4219 1577.5 80.837Z" fill="white"/>
<path d="M1616.12 71.4659C1616.12 72.8809 1614.98 74.0294 1613.56 74.0294C1612.15 74.0294 1611 72.8809 1611 71.4659C1611 70.0508 1612.15 68.9023 1613.56 68.9023C1614.98 68.9023 1616.12 70.0508 1616.12 71.4659Z" fill="white"/>
<path d="M1364.12 129.505C1364.12 130.92 1362.97 132.068 1361.55 132.068C1360.14 132.068 1358.99 130.92 1358.99 129.505C1358.99 128.09 1360.14 126.941 1361.55 126.941C1362.97 126.941 1364.12 128.09 1364.12 129.505Z" fill="white"/>
<path d="M1482.41 175.927C1482.41 177.342 1481.27 178.49 1479.85 178.49C1478.44 178.49 1477.29 177.342 1477.29 175.927C1477.29 174.512 1478.44 173.363 1479.85 173.363C1481.27 173.363 1482.41 174.512 1482.41 175.927Z" fill="white"/>
<path d="M1328.41 100.073C1328.41 101.488 1327.27 102.637 1325.85 102.637C1324.44 102.637 1323.29 101.488 1323.29 100.073C1323.29 98.6582 1324.44 97.5098 1325.85 97.5098C1327.27 97.5166 1328.41 98.6582 1328.41 100.073Z" fill="white"/>
<path d="M1423.84 51.1475C1423.84 52.5626 1422.69 53.711 1421.27 53.711C1419.86 53.711 1418.71 52.5626 1418.71 51.1475C1418.71 49.7324 1419.86 48.584 1421.27 48.584C1422.69 48.584 1423.84 49.7324 1423.84 51.1475Z" fill="white"/>
<path d="M1362.33 90.9971C1362.33 92.4122 1361.18 93.5606 1359.77 93.5606C1358.35 93.5606 1357.2 92.4122 1357.2 90.9971C1357.2 89.582 1358.35 88.4336 1359.77 88.4336C1361.18 88.4336 1362.33 89.582 1362.33 90.9971Z" fill="white"/>
<path d="M1469.39 113.015C1469.39 114.43 1468.24 115.578 1466.83 115.578C1465.41 115.578 1464.27 114.43 1464.27 113.015C1464.27 111.6 1465.41 110.451 1466.83 110.451C1468.25 110.451 1469.39 111.6 1469.39 113.015Z" fill="white"/>
<path d="M1454.84 143.894C1454.84 145.309 1453.7 146.457 1452.28 146.457C1450.87 146.457 1449.72 145.309 1449.72 143.894C1449.72 142.479 1450.87 141.33 1452.28 141.33C1453.7 141.33 1454.84 142.479 1454.84 143.894Z" fill="white"/>
<path d="M1606.95 109.493C1606.95 110.908 1605.8 112.057 1604.39 112.057C1602.98 112.057 1601.83 110.908 1601.83 109.493C1601.83 108.078 1602.98 106.93 1604.39 106.93C1605.8 106.93 1606.95 108.078 1606.95 109.493Z" fill="white"/>
<path d="M1621.8 36.6221C1621.8 38.0372 1620.66 39.1856 1619.24 39.1856C1617.83 39.1856 1616.68 38.0372 1616.68 36.6221C1616.68 35.207 1617.83 34.0586 1619.24 34.0586C1620.66 34.0586 1621.8 35.207 1621.8 36.6221Z" fill="white"/>
<path d="M1398.51 79.21C1398.51 80.6251 1397.36 81.7735 1395.95 81.7735C1394.53 81.7735 1393.38 80.6251 1393.38 79.21C1393.38 77.7949 1394.53 76.6465 1395.95 76.6465C1397.36 76.6465 1398.51 77.7949 1398.51 79.21Z" fill="white"/>
<path d="M1494.35 143.927C1494.35 145.342 1493.2 146.49 1491.79 146.49C1490.37 146.49 1489.23 145.342 1489.23 143.927C1489.23 142.512 1490.37 141.363 1491.79 141.363C1493.2 141.37 1494.35 142.512 1494.35 143.927Z" fill="white"/>
<path d="M1525.87 78.2471C1525.87 79.6622 1524.72 80.8106 1523.3 80.8106C1521.89 80.8106 1520.74 79.6622 1520.74 78.2471C1520.74 76.832 1521.89 75.6836 1523.3 75.6836C1524.72 75.6836 1525.87 76.832 1525.87 78.2471Z" fill="white"/>
<path d="M1483.25 7.46586C1483.25 8.88092 1482.1 10.0294 1480.69 10.0294C1479.27 10.0294 1478.12 8.88092 1478.12 7.46586C1478.12 6.0508 1479.27 4.90234 1480.69 4.90234C1482.1 4.90234 1483.25 6.0508 1483.25 7.46586Z" fill="white"/>
<path d="M1515 113.966C1515 115.381 1513.85 116.529 1512.44 116.529C1511.02 116.529 1509.88 115.381 1509.88 113.966C1509.88 112.551 1511.02 111.402 1512.44 111.402C1513.85 111.402 1515 112.551 1515 113.966Z" fill="white"/>
<path d="M1657.38 47.9073C1657.38 49.3223 1656.23 50.4708 1654.82 50.4708C1653.41 50.4708 1652.26 49.3223 1652.26 47.9073C1652.26 46.4922 1653.41 45.3438 1654.82 45.3438C1656.23 45.3438 1657.38 46.4922 1657.38 47.9073Z" fill="white"/>
<path d="M1474.08 236.569C1474.08 237.984 1472.93 239.133 1471.52 239.133C1470.1 239.133 1468.95 237.984 1468.95 236.569C1468.95 235.154 1470.1 234.006 1471.52 234.006C1472.94 234.006 1474.08 235.154 1474.08 236.569Z" fill="white"/>
<path d="M1389.62 37.1553C1389.62 38.5704 1388.47 39.7188 1387.05 39.7188C1385.64 39.7188 1384.49 38.5704 1384.49 37.1553C1384.49 35.7403 1385.64 34.5918 1387.05 34.5918C1388.47 34.5918 1389.62 35.7403 1389.62 37.1553Z" fill="white"/>
<path d="M1418.41 190.343C1418.41 191.758 1417.26 192.906 1415.84 192.906C1414.43 192.906 1413.28 191.758 1413.28 190.343C1413.28 188.928 1414.43 187.779 1415.84 187.779C1417.26 187.779 1418.41 188.928 1418.41 190.343Z" fill="white"/>
<path d="M1600.31 146.593C1600.31 148.008 1599.16 149.156 1597.75 149.156C1596.34 149.156 1595.19 148.008 1595.19 146.593C1595.19 145.178 1596.34 144.029 1597.75 144.029C1599.17 144.029 1600.31 145.178 1600.31 146.593Z" fill="white"/>
<path d="M1417.7 9.62601C1417.7 11.0411 1416.55 12.1895 1415.14 12.1895C1413.73 12.1895 1412.58 11.0411 1412.58 9.62601C1412.58 8.21095 1413.73 7.0625 1415.14 7.0625C1416.55 7.0625 1417.7 8.21095 1417.7 9.62601Z" fill="white"/>
<path d="M1498.46 208.454C1498.46 209.869 1497.31 211.018 1495.9 211.018C1494.48 211.018 1493.34 209.869 1493.34 208.454C1493.34 207.039 1494.48 205.891 1495.9 205.891C1497.31 205.891 1498.46 207.039 1498.46 208.454Z" fill="white"/>
<path d="M1543.77 215.556C1543.77 216.971 1542.62 218.119 1541.2 218.119C1539.79 218.119 1538.64 216.971 1538.64 215.556C1538.64 214.141 1539.79 212.992 1541.2 212.992C1542.62 212.992 1543.77 214.141 1543.77 215.556Z" fill="white"/>
<path d="M1325.11 58.3526C1325.11 59.7676 1323.96 60.9161 1322.55 60.9161C1321.13 60.9161 1319.98 59.7676 1319.98 58.3526C1319.98 56.9375 1321.13 55.7891 1322.55 55.7891C1323.96 55.7891 1325.11 56.9375 1325.11 58.3526Z" fill="white"/>
<path d="M1427.41 118.243C1427.41 119.658 1426.26 120.807 1424.84 120.807C1423.43 120.807 1422.28 119.658 1422.28 118.243C1422.28 116.828 1423.43 115.68 1424.84 115.68C1426.26 115.68 1427.41 116.835 1427.41 118.243Z" fill="white"/>
<path d="M1453.47 25.7666C1453.47 27.1817 1452.32 28.3302 1450.91 28.3302C1449.49 28.3302 1448.34 27.1817 1448.34 25.7666C1448.34 24.3516 1449.49 23.2031 1450.91 23.2031C1452.32 23.2031 1453.47 24.3516 1453.47 25.7666Z" fill="white"/>
<path d="M1583.52 38.6592C1583.52 40.0743 1582.38 41.2227 1580.96 41.2227C1579.55 41.2227 1578.4 40.0743 1578.4 38.6592C1578.4 37.2442 1579.55 36.0957 1580.96 36.0957C1582.38 36.0957 1583.52 37.2442 1583.52 38.6592Z" fill="white"/>
<path d="M1437.67 88.8428C1437.67 90.2579 1436.52 91.4063 1435.11 91.4063C1433.69 91.4063 1432.55 90.2579 1432.55 88.8428C1432.55 87.4278 1433.69 86.2793 1435.11 86.2793C1436.52 86.2793 1437.67 87.4278 1437.67 88.8428Z" fill="white"/>
<path d="M1518.23 31.2764C1518.23 32.6915 1517.08 33.8399 1515.66 33.8399C1514.25 33.8399 1513.1 32.6915 1513.1 31.2764C1513.1 29.8613 1514.25 28.7129 1515.66 28.7129C1517.08 28.7129 1518.23 29.8613 1518.23 31.2764Z" fill="white"/>
<path d="M1491.16 48.3252C1491.16 49.7403 1490.01 50.8887 1488.59 50.8887C1487.18 50.8887 1486.03 49.7403 1486.03 48.3252C1486.03 46.9102 1487.18 45.7617 1488.59 45.7617C1490.01 45.7617 1491.16 46.9102 1491.16 48.3252Z" fill="white"/>
<path d="M1428.92 224.606C1428.92 226.022 1427.77 227.17 1426.36 227.17C1424.94 227.17 1423.8 226.022 1423.8 224.606C1423.8 223.191 1424.94 222.043 1426.36 222.043C1427.77 222.043 1428.92 223.191 1428.92 224.606Z" fill="white"/>
<path d="M1607.09 186.085C1607.09 187.5 1605.95 188.649 1604.53 188.649C1603.12 188.649 1601.97 187.5 1601.97 186.085C1601.97 184.67 1603.12 183.521 1604.53 183.521C1605.95 183.521 1607.09 184.67 1607.09 186.085Z" fill="white"/>
<path d="M1565.15 177.45C1565.15 178.865 1564 180.014 1562.59 180.014C1561.17 180.014 1560.02 178.865 1560.02 177.45C1560.02 176.035 1561.17 174.887 1562.59 174.887C1564 174.887 1565.15 176.035 1565.15 177.45Z" fill="white"/>
<path d="M1336.99 14.9034C1336.99 16.3184 1335.84 17.4669 1334.43 17.4669C1333.02 17.4669 1331.87 16.3184 1331.87 14.9034C1331.87 13.4883 1333.02 12.3398 1334.43 12.3398C1335.84 12.3467 1336.99 13.4883 1336.99 14.9034Z" fill="white"/>
<path d="M1393.99 117.726C1393.99 119.141 1392.84 120.289 1391.43 120.289C1390.02 120.289 1388.87 119.141 1388.87 117.726C1388.87 116.311 1390.02 115.162 1391.43 115.162C1392.84 115.162 1393.99 116.311 1393.99 117.726Z" fill="white"/>
<path d="M1522.23 180.321C1522.23 181.736 1521.09 182.885 1519.67 182.885C1518.26 182.885 1517.11 181.736 1517.11 180.321C1517.11 178.906 1518.26 177.758 1519.67 177.758C1521.09 177.758 1522.23 178.906 1522.23 180.321Z" fill="white"/>
<path d="M1360.42 172.692C1360.42 174.107 1359.27 175.256 1357.86 175.256C1356.44 175.256 1355.3 174.107 1355.3 172.692C1355.3 171.277 1356.44 170.129 1357.86 170.129C1359.27 170.129 1360.42 171.277 1360.42 172.692Z" fill="white"/>
<path d="M1648.56 8.47758C1648.56 9.89263 1647.41 11.0411 1646 11.0411C1644.59 11.0411 1643.44 9.89263 1643.44 8.47758C1643.44 7.06252 1644.59 5.91406 1646 5.91406C1647.41 5.91406 1648.56 7.06252 1648.56 8.47758Z" fill="white"/>
<path d="M1577.07 213.478C1577.07 214.893 1575.92 216.041 1574.51 216.041C1573.09 216.041 1571.95 214.893 1571.95 213.478C1571.95 212.063 1573.09 210.914 1574.51 210.914C1575.93 210.921 1577.07 212.063 1577.07 213.478Z" fill="white"/>
<path d="M1360.35 52.7549C1360.35 54.17 1359.2 55.3184 1357.79 55.3184C1356.37 55.3184 1355.23 54.17 1355.23 52.7549C1355.23 51.3399 1356.37 50.1914 1357.79 50.1914C1359.2 50.1914 1360.35 51.3399 1360.35 52.7549Z" fill="white"/>
<path d="M1549.47 55.5108C1549.47 56.9258 1548.32 58.0743 1546.91 58.0743C1545.49 58.0743 1544.34 56.9258 1544.34 55.5108C1544.34 54.0957 1545.49 52.9473 1546.91 52.9473C1548.32 52.9473 1549.47 54.0957 1549.47 55.5108Z" fill="white"/>
<path d="M1549.68 18.1377C1549.68 19.5528 1548.53 20.7013 1547.12 20.7013C1545.7 20.7013 1544.55 19.5528 1544.55 18.1377C1544.55 16.7227 1545.7 15.5742 1547.12 15.5742C1548.53 15.5742 1549.68 16.7227 1549.68 18.1377Z" fill="white"/>
<path d="M1459 206.88C1459 208.295 1457.85 209.443 1456.44 209.443C1455.02 209.443 1453.88 208.295 1453.88 206.88C1453.88 205.465 1455.02 204.316 1456.44 204.316C1457.85 204.323 1459 205.465 1459 206.88Z" fill="white"/>
<path d="M1606.12 5.95609C1606.12 7.37115 1604.98 8.5196 1603.56 8.5196C1602.15 8.5196 1601 7.37115 1601 5.95609C1601 4.54103 1602.15 3.39258 1603.56 3.39258C1604.98 3.39258 1606.12 4.54103 1606.12 5.95609Z" fill="white"/>
<path d="M1517.87 235.771C1517.87 237.186 1516.73 238.334 1515.31 238.334C1513.9 238.334 1512.75 237.186 1512.75 235.771C1512.75 234.355 1513.9 233.207 1515.31 233.207C1516.73 233.207 1517.87 234.355 1517.87 235.771Z" fill="white"/>
<path d="M1634.19 155.267C1634.19 156.682 1633.04 157.83 1631.62 157.83C1630.21 157.83 1629.06 156.682 1629.06 155.267C1629.06 153.852 1630.21 152.703 1631.62 152.703C1633.05 152.703 1634.19 153.852 1634.19 155.267Z" fill="white"/>
<path d="M1446.86 175.771C1446.86 177.186 1445.71 178.334 1444.3 178.334C1442.88 178.334 1441.73 177.186 1441.73 175.771C1441.73 174.355 1442.88 173.207 1444.3 173.207C1445.71 173.207 1446.86 174.355 1446.86 175.771Z" fill="white"/>
<path d="M1533.59 147.064C1533.59 148.479 1532.44 149.627 1531.02 149.627C1529.61 149.627 1528.46 148.479 1528.46 147.064C1528.46 145.648 1529.61 144.5 1531.02 144.5C1532.44 144.5 1533.59 145.648 1533.59 147.064Z" fill="white"/>
<path d="M1655.3 85.4854C1655.3 86.9004 1654.15 88.0489 1652.73 88.0489C1651.32 88.0489 1650.17 86.9004 1650.17 85.4854C1650.17 84.0703 1651.32 82.9219 1652.73 82.9219C1654.15 82.9219 1655.3 84.0703 1655.3 85.4854Z" fill="white"/>
<path d="M1376.55 3.50883C1376.55 4.92388 1375.4 6.07234 1373.98 6.07234C1372.57 6.07234 1371.42 4.92388 1371.42 3.50883C1371.42 2.09377 1372.57 0.945312 1373.98 0.945312C1375.4 0.945312 1376.55 2.09377 1376.55 3.50883Z" fill="white"/>
<path d="M1418.59 152.253C1418.59 153.668 1417.44 154.816 1416.02 154.816C1414.61 154.816 1413.46 153.668 1413.46 152.253C1413.46 150.838 1414.61 149.689 1416.02 149.689C1417.44 149.689 1418.59 150.838 1418.59 152.253Z" fill="white"/>
<path d="M1459.79 64.5049C1459.79 65.92 1458.64 67.0684 1457.23 67.0684C1455.81 67.0684 1454.66 65.92 1454.66 64.5049C1454.66 63.0899 1455.81 61.9414 1457.23 61.9414C1458.64 61.9414 1459.79 63.0899 1459.79 64.5049Z" fill="white"/>
</g>
<mask id="mask8_2488_8157" style="mask-type:luminance" maskUnits="userSpaceOnUse" x="0" y="-155" width="1918" height="1097">
<path d="M1917.48 -154.5H0V941.706H1917.48V-154.5Z" fill="white"/>
</mask>
<g mask="url(#mask8_2488_8157)">
<path d="M1718.71 341.407C1682.16 341.407 1640.55 334.175 1606.57 308.97C1546.25 264.222 1534.69 185.881 1523.51 110.117C1519.17 80.7084 1514.69 50.2948 1507.41 22.3149C1481.1 -78.7969 1408.7 -165.109 1313.74 -208.565C1218.77 -252.022 1106.15 -250.381 1012.49 -204.17L1010.81 -207.581C1105.48 -254.298 1219.31 -255.96 1315.32 -212.024C1411.32 -168.096 1484.5 -80.8477 1511.1 21.3579C1518.43 49.536 1522.93 80.0521 1527.29 109.563C1538.35 184.561 1549.8 262.109 1608.84 305.915C1654.09 339.48 1713.46 340.423 1755.28 335.31C1847.06 324.078 1934.51 277.627 1995.22 207.852L1998.09 210.347C1936.77 280.82 1848.44 327.742 1755.74 339.083C1744.46 340.464 1731.9 341.407 1718.71 341.407Z" fill="white"/>
</g>
</g>
<defs>
<clipPath id="clip0_2488_8157">
<rect width="1918" height="421" fill="white" transform="translate(0 3)"/>
</clipPath>
</defs>
</svg>
