<svg width="513" height="493" viewBox="0 0 513 493" fill="none" xmlns="http://www.w3.org/2000/svg">
<path d="M234.615 19.3203C245.316 27.6525 245.316 27.6525 257.893 31.1016C260.315 30.3865 262.202 29.4339 264.365 28.1328C265.163 27.6984 265.961 27.264 266.783 26.8164C271.047 24.3903 275.062 21.6681 279.053 18.8203C295.08 7.49086 311.864 -2.45914 332.24 0.558592C345.235 3.56726 354.339 12.6204 361.283 23.6211C364.741 29.4826 367.09 35.6335 369.428 42.0078C374.704 57.6477 374.704 57.6477 382.365 72.1328C390.437 75.4273 399.723 75.2016 408.322 75.4229C427.082 75.9259 447.241 77.1212 461.365 91.1328C471.016 103.069 472.822 116.178 471.365 131.133C469.652 141.142 466.84 150.946 464.076 160.707C460.835 170.804 460.835 170.804 461.365 181.133C465.482 187.332 472.372 191.51 478.283 195.852C491.998 206.003 509.48 219.083 512.365 237.133C513.706 250.653 512.155 262.229 503.678 273.32C502.266 274.947 500.828 276.551 499.365 278.133C498.659 278.919 497.952 279.705 497.225 280.516C491.542 286.527 485.243 291.414 478.639 296.364C468.518 303.77 468.518 303.77 460.365 313.133C460.56 315.686 460.88 318.007 461.365 320.508C461.569 321.615 461.569 321.615 461.777 322.744C463.16 329.831 465.119 336.741 467.207 343.648C469.913 352.643 471.746 361.208 471.678 370.633C471.672 371.462 471.666 372.29 471.661 373.144C471.439 384.312 468.093 393.677 460.584 402.141C447.427 414.596 428.915 416.081 411.74 416.57C396.199 416.013 396.199 416.013 382.361 420.87C376.412 427.615 373.949 437.731 370.928 446.07C364.519 463.387 357.384 480.69 339.678 489.008C328.774 493.773 317.454 493.036 306.365 489.133C296.941 485.276 288.535 480.091 280.25 474.223C268.665 465.377 268.665 465.377 255.365 461.133C252.658 462.164 250.281 463.226 247.74 464.57C247.03 464.936 246.32 465.301 245.589 465.678C240.408 468.412 235.73 471.569 231.068 475.121C216.885 485.677 201.345 493.6 183.365 492.133C171.401 490.027 161.783 483.204 154.51 473.711C148.211 464.407 144.624 454.018 140.76 443.535C136.515 431.37 136.515 431.37 130.365 420.133C122.443 416.964 113.568 417.05 105.141 416.843C86.1448 416.359 65.6923 415.346 51.3652 401.133C41.7148 389.197 39.9085 376.088 41.3652 361.133C43.0782 351.124 45.8905 341.32 48.6543 331.559C51.8953 321.461 51.8953 321.461 51.3652 311.133C47.248 304.934 40.358 300.756 34.4472 296.414C20.7524 286.277 3.21505 273.173 0.365197 255.133C-0.93052 240.632 0.977034 229.62 10.0605 217.875C17.2607 209.308 25.2263 202.522 34.1425 195.851C44.2379 188.472 44.2379 188.472 52.3652 179.133C52.1702 176.58 51.8503 174.258 51.3652 171.758C51.2293 171.02 51.0934 170.282 50.9533 169.521C49.5704 162.435 47.6117 155.525 45.5234 148.618C42.817 139.622 40.9848 131.057 41.0527 121.633C41.0612 120.39 41.0612 120.39 41.0698 119.121C41.2915 107.953 44.6378 98.5886 52.1464 90.125C65.1421 77.8218 83.4376 76.2027 100.428 75.6953C111.323 75.3014 111.323 75.3014 122.178 74.3203C123.298 74.1901 124.418 74.0599 125.572 73.9258C129.675 72.761 131.635 70.4389 133.694 66.7556C136.644 59.9833 139.287 53.1398 141.803 46.1953C147.95 29.5834 154.843 12.615 171.365 3.82031C194.116 -6.45305 216.297 5.78803 234.615 19.3203ZM313.92 185.124C313.012 186.032 312.103 186.939 311.168 187.875C308.694 190.347 306.233 192.831 303.775 195.318C301.197 197.921 298.607 200.512 296.019 203.105C291.128 208.009 286.246 212.924 281.368 217.841C275.812 223.443 270.243 229.033 264.674 234.623C253.225 246.113 241.79 257.618 230.365 269.133C226.654 265.998 222.978 262.884 219.592 259.394C218.941 258.727 218.29 258.059 217.619 257.372C216.94 256.672 216.26 255.971 215.561 255.25C214.075 253.738 212.59 252.226 211.103 250.715C208.791 248.36 206.483 246.001 204.186 243.631C201.947 241.326 199.693 239.037 197.436 236.75C196.76 236.046 196.085 235.342 195.389 234.616C189.779 228.975 183.898 225.179 175.803 224.633C169.236 224.987 164.39 227.703 159.99 232.508C156.313 237.214 154.771 241.919 155.01 247.964C156.763 258.673 165.577 266.03 172.928 273.254C174.165 274.487 175.401 275.721 176.637 276.956C179.215 279.528 181.801 282.091 184.394 284.648C187.711 287.92 191.013 291.207 194.309 294.5C196.856 297.043 199.409 299.58 201.963 302.115C203.183 303.326 204.401 304.538 205.618 305.75C207.319 307.442 209.027 309.127 210.736 310.81C211.483 311.556 211.483 311.556 212.245 312.317C217.527 317.487 222.244 320.193 229.615 320.445C230.322 320.483 231.028 320.52 231.756 320.559C241.121 319.03 247.148 311.92 253.507 305.509C254.606 304.415 255.706 303.322 256.806 302.231C259.778 299.277 262.737 296.311 265.694 293.342C268.796 290.229 271.908 287.127 275.018 284.023C280.238 278.81 285.449 273.59 290.655 268.364C296.668 262.33 302.695 256.31 308.73 250.297C313.919 245.126 319.101 239.946 324.277 234.76C327.364 231.667 330.454 228.576 333.551 225.493C336.461 222.594 339.362 219.685 342.255 216.768C343.316 215.702 344.381 214.639 345.449 213.579C353.757 205.447 353.757 205.447 357.799 194.762C357.811 188.214 356.271 183.173 351.682 178.371C347.091 174.294 343.399 171.848 337.115 171.758C336.223 171.729 335.331 171.701 334.412 171.672C325.5 173.02 319.97 178.971 313.92 185.124Z" fill="white"/>
</svg>
