<svg width="31" height="30" viewBox="0 0 31 30" fill="none" xmlns="http://www.w3.org/2000/svg">
<path d="M6.64543 14.5383C6.87932 9.93892 10.5913 6.24978 15.2245 6.00803L17.5215 2.99362L15.2406 0C7.26329 0.240302 0.841096 6.60951 0.592102 14.523L3.60878 12.26L6.64543 14.5383Z" fill="black"/>
<path d="M15.2438 23.9927C10.6079 23.7604 6.89053 20.0771 6.6469 15.4799L3.60878 13.2002L0.592102 15.464C0.834762 23.3794 7.25306 29.7525 15.2287 29.9993L12.9475 27.0062L15.2438 23.9927Z" fill="black"/>
<path d="M16.174 6.00682C20.8091 6.23866 24.5274 9.92248 24.7706 14.5196L27.8089 16.7989L30.8259 14.5354C30.5837 6.6199 24.1649 0.247313 16.1893 0L18.4704 2.99362L16.174 6.00682Z" fill="black"/>
<path d="M24.7716 15.4609C24.5374 20.0603 20.8254 23.7499 16.1925 23.9912L13.8953 27.0061L16.1764 29.9997C24.1535 29.7589 30.5762 23.3902 30.8249 15.4762L27.8085 17.7397L24.7716 15.4609Z" fill="black"/>
</svg>
