<svg width="38" height="35" viewBox="0 0 38 35" fill="none" xmlns="http://www.w3.org/2000/svg">
<path d="M24.7967 28.6387C25.7141 28.6387 27.0637 27.8158 28.6953 26.2724C29.5167 25.4954 30.3882 24.56 31.338 23.4539C32.3018 22.3315 34.9216 19.0606 35.1753 18.7646C35.846 17.9823 35.6844 17.0554 34.8953 16.4546C34.066 15.8232 32.989 15.8985 32.1689 16.8401C30.6297 18.6074 28.763 20.6198 26.5683 22.8781C25.8486 23.6186 24.7027 22.6054 25.3614 21.811C25.6355 21.4805 25.7872 21.0682 25.7872 20.6307C25.7872 19.6131 24.9626 18.7846 23.9495 18.7713H14.4971C13.1582 18.7713 11.5928 19.5106 10.5371 20.5974C9.34143 21.8285 8.3851 22.8864 7.66972 23.7684L10.6523 28.6387H24.7967ZM30.9449 15.7905C32.3404 14.1883 34.388 14.045 35.8801 15.1811C37.3678 16.3138 37.7113 18.2839 36.4075 19.8047C36.1773 20.0733 33.5569 23.3449 32.5694 24.4949C31.5862 25.64 30.6785 26.6141 29.8116 27.4342C27.8974 29.245 26.259 30.244 24.7967 30.244C18.7773 30.244 14.2627 30.244 11.253 30.244C10.2489 30.244 6.57256 22.5595 6.81135 22.2773C7.50086 21.4624 8.35422 20.5317 9.37231 19.4835C10.7176 18.0984 12.6919 17.1661 14.4971 17.1661H21.3788C22.5381 17.1661 22.5381 17.1661 23.9601 17.1661C25.5758 17.1872 26.9247 18.2965 27.3006 19.7868C28.6743 18.335 29.8891 17.0028 30.9449 15.7905Z" fill="black"/>
<path d="M7.57911 32.807L10.8481 30.9343L5.72528 22.1298L2.45629 24.0026L7.57911 32.807ZM1.18043 22.88L5.38342 20.4721C5.89925 20.1766 6.55884 20.352 6.85666 20.8638L12.5187 30.595C12.8165 31.1069 12.6398 31.7614 12.124 32.0569L7.92098 34.4648C7.40514 34.7603 6.74555 34.5849 6.44773 34.0731L0.785673 24.3418C0.487857 23.83 0.664594 23.1755 1.18043 22.88Z" fill="black"/>
<path d="M18.2618 18.7713C17.8151 18.7713 17.4529 18.4119 17.4529 17.9686C17.4529 17.5254 17.8151 17.166 18.2618 17.166H23.9005C25.8363 17.166 27.4056 18.7232 27.4056 20.644C27.4056 22.5649 25.8363 24.122 23.9005 24.122H18.5081C18.0614 24.122 17.6992 23.7627 17.6992 23.3194C17.6992 22.8761 18.0614 22.5168 18.5081 22.5168H23.9005C24.9429 22.5168 25.7879 21.6783 25.7879 20.644C25.7879 19.6097 24.9429 18.7713 23.9005 18.7713H18.2618Z" fill="black"/>
<path d="M14.464 15.0261V16.6314H24.7097V15.0261H14.464ZM26.3274 13.4209V18.2366H12.8463V13.4209H26.3274Z" fill="black"/>
<path d="M14.464 11.8152V13.4204H24.7097V11.8152H14.464ZM26.3274 10.21V15.0257H12.8463V10.21H26.3274Z" fill="black"/>
<path d="M14.464 8.60524V10.2105H24.7097V8.60524H14.464ZM26.3274 7V11.8157H12.8463V7H26.3274Z" fill="black"/>
<path d="M15.388 1.966L14.9693 3.51654L24.8658 6.14783L25.2845 4.59729L15.388 1.966ZM27.2658 3.46221L26.0097 8.11383L12.988 4.65162L14.2441 0L27.2658 3.46221Z" fill="black"/>
<rect width="11.469" height="2.38991" transform="matrix(0.962335 0.271866 -0.275795 0.961217 15.001 1.18164)" fill="black"/>
<rect x="14.3554" y="11" width="11.0856" height="3" fill="black"/>
</svg>
