<svg width="19" height="12" viewBox="0 0 19 12" fill="none" xmlns="http://www.w3.org/2000/svg">
<path d="M0.75 4.77297C0.335786 4.77297 0 5.10876 0 5.52297C0 5.93718 0.335786 6.27297 0.75 6.27297V4.77297ZM18.2803 6.0533C18.5732 5.76041 18.5732 5.28553 18.2803 4.99264L13.5074 0.21967C13.2145 -0.0732232 12.7396 -0.0732232 12.4467 0.21967C12.1538 0.512564 12.1538 0.987441 12.4467 1.28033L16.6893 5.52297L12.4467 9.76557C12.1538 10.0585 12.1538 10.5334 12.4467 10.8263C12.7396 11.1192 13.2145 11.1192 13.5074 10.8263L18.2803 6.0533ZM0.75 6.27297H17.75V4.77297H0.75V6.27297Z" fill="white"/>
</svg>
