<svg width="17" height="16" viewBox="0 0 17 16" fill="none" xmlns="http://www.w3.org/2000/svg">
<path d="M1.32019 7C0.767906 7 0.32019 7.44772 0.32019 8C0.32019 8.55228 0.767906 9 1.32019 9V7ZM16.1363 8.70711C16.5268 8.31658 16.5268 7.68342 16.1363 7.29289L9.77231 0.928932C9.38179 0.538408 8.74862 0.538408 8.3581 0.928932C7.96757 1.31946 7.96757 1.95262 8.3581 2.34315L14.015 8L8.3581 13.6569C7.96757 14.0474 7.96757 14.6805 8.3581 15.0711C8.74862 15.4616 9.38179 15.4616 9.77231 15.0711L16.1363 8.70711ZM1.32019 9H15.4292V7H1.32019V9Z" fill="black"/>
</svg>
