<?xml version="1.0" encoding="utf-8"?>
<!-- Generator: Adobe Illustrator 24.2.1, SVG Export Plug-In . SVG Version: 6.00 Build 0)  -->
<svg version="1.1" id="Layer_1" xmlns="http://www.w3.org/2000/svg" xmlns:xlink="http://www.w3.org/1999/xlink" x="0px" y="0px"
	 viewBox="0 0 114 114" style="enable-background:new 0 0 114 114;" xml:space="preserve">
<style type="text/css">
	.st0{display:none;}
	.st1{display:inline;fill:#FEFEFE;}
	.st2{display:inline;fill:#FFFFFF;}
	.st3{fill:#FFFFFF;}
</style>
<g class="st0">
	<path class="st1" d="M294.2,116.8c0.3,0.4,0.7,0.6,1.2,0.7c0.5,0,1-0.1,1.6-0.4c0.4-0.2,0.7-0.5,0.9-0.8c0.2-0.3,0.3-0.6,0.4-0.9
		c0-0.3,0-0.6-0.2-0.9c-0.1-0.2-0.3-0.4-0.5-0.5c-0.2-0.1-0.4-0.2-0.7-0.2c-0.2,0-0.5,0-0.7,0.1c-0.2,0-0.4,0.1-0.6,0.1l-1,0.3
		c-0.3,0.1-0.6,0.1-0.9,0.2c-0.3,0.1-0.7,0.1-1.1,0c-0.4,0-0.7-0.1-1-0.3c-0.3-0.2-0.6-0.5-0.9-0.9c-0.3-0.5-0.4-1-0.4-1.5
		c0-0.5,0.2-1,0.6-1.5c0.3-0.5,0.9-0.9,1.5-1.3c0.6-0.4,1.2-0.6,1.8-0.6c0.6-0.1,1.1,0,1.6,0.2c0.5,0.2,0.9,0.6,1.2,1l-1.1,0.6
		c-0.2-0.3-0.5-0.5-0.8-0.6c-0.3-0.1-0.7-0.1-1,0c-0.4,0.1-0.7,0.2-1.1,0.4c-0.4,0.2-0.7,0.5-1,0.8c-0.2,0.3-0.4,0.7-0.4,1
		c-0.1,0.4,0,0.7,0.2,1c0.2,0.3,0.4,0.5,0.7,0.6c0.3,0.1,0.6,0.1,0.9,0.1c0.3,0,0.7-0.1,1-0.2l1.3-0.3c0.8-0.2,1.5-0.2,2.1-0.1
		c0.6,0.1,1.1,0.5,1.4,1.1c0.3,0.5,0.4,1,0.3,1.5c-0.1,0.5-0.3,1-0.6,1.5c-0.3,0.5-0.8,0.9-1.3,1.2c-0.6,0.3-1.1,0.5-1.7,0.6
		c-0.6,0.1-1.1,0-1.5-0.2c-0.5-0.2-0.8-0.5-1.1-1L294.2,116.8z"/>
	<path class="st1" d="M279.7,121.2l1.2-0.3c0.2,0.3,0.4,0.6,0.6,0.8c0.2,0.2,0.5,0.4,0.8,0.5c0.3,0.1,0.6,0.2,0.9,0.2
		c0.3,0,0.7,0,1-0.1c0.6-0.2,1.1-0.5,1.5-0.9c0.4-0.4,0.7-1,0.8-1.6c0.1-0.7,0.1-1.4-0.2-2.3c-0.2-0.9-0.6-1.5-1-2
		c-0.4-0.5-0.9-0.8-1.5-1c-0.6-0.2-1.1-0.2-1.7,0c-0.3,0.1-0.6,0.2-0.9,0.4c-0.3,0.2-0.5,0.4-0.7,0.6c-0.2,0.2-0.4,0.5-0.5,0.8
		c-0.1,0.3-0.1,0.6-0.1,1l-1.2,0.3c0-0.5,0-1,0.1-1.5c0.1-0.5,0.3-0.9,0.6-1.2c0.3-0.4,0.6-0.7,1-0.9c0.4-0.3,0.8-0.5,1.3-0.6
		c0.8-0.2,1.6-0.2,2.4,0c0.8,0.2,1.4,0.7,2,1.3c0.6,0.7,1,1.5,1.3,2.5c0.3,1,0.3,2,0.2,2.8c-0.2,0.9-0.5,1.6-1.1,2.2
		c-0.5,0.6-1.2,1-2.1,1.2c-0.5,0.1-1,0.2-1.5,0.2c-0.5,0-0.9-0.1-1.4-0.3c-0.4-0.2-0.8-0.4-1.2-0.8
		C280.2,122.1,279.9,121.7,279.7,121.2z"/>
	<path class="st1" d="M274.2,114.8V125h-3.4c-0.8,0-1.4-0.1-2-0.4c-0.5-0.3-0.9-0.6-1.1-1.1c-0.2-0.5-0.4-1-0.4-1.6
		c0-0.6,0.1-1.1,0.4-1.6c0.2-0.5,0.6-0.8,1.1-1.1c0.5-0.3,1.2-0.4,1.9-0.4h2.8v1.1h-2.7c-0.5,0-1,0.1-1.3,0.2
		c-0.3,0.2-0.6,0.4-0.7,0.7c-0.2,0.3-0.2,0.6-0.2,1.1c0,0.4,0.1,0.8,0.2,1.1c0.2,0.3,0.4,0.5,0.7,0.7c0.3,0.2,0.8,0.3,1.3,0.3h2.2
		v-9.1H274.2z M269.4,119.4l-2.5-4.6h1.4l2.5,4.6H269.4z"/>
	<path class="st1" d="M253.9,117c0.3-1,0.7-1.9,1.3-2.5c0.6-0.7,1.2-1.1,2-1.3c0.8-0.2,1.6-0.2,2.4,0c0.8,0.2,1.5,0.6,2.1,1.2
		c0.5,0.6,0.9,1.3,1.1,2.2c0.2,0.9,0.1,1.8-0.2,2.8c-0.3,1-0.7,1.9-1.3,2.5s-1.2,1.1-2,1.3c-0.8,0.2-1.6,0.2-2.4,0
		c-0.8-0.2-1.5-0.6-2.1-1.2c-0.5-0.6-0.9-1.3-1.1-2.2C253.6,119,253.7,118.1,253.9,117z M255.1,117.3c-0.2,0.9-0.3,1.6-0.2,2.3
		c0.1,0.7,0.4,1.2,0.8,1.6c0.4,0.4,0.9,0.7,1.5,0.9c0.6,0.2,1.2,0.2,1.7,0c0.6-0.2,1.1-0.5,1.5-1c0.4-0.5,0.8-1.2,1-2
		c0.2-0.9,0.3-1.6,0.2-2.3c-0.1-0.7-0.4-1.2-0.8-1.6c-0.4-0.4-0.9-0.7-1.5-0.9c-0.6-0.2-1.2-0.2-1.7,0c-0.6,0.2-1.1,0.5-1.5,1
		C255.7,115.8,255.3,116.5,255.1,117.3z"/>
	<path class="st1" d="M251.6,110.3l-5.1,8.8l-1.1-0.6l4.5-7.9l-4.1-2.4l0.5-0.9L251.6,110.3z"/>
	<path class="st1" d="M242.3,104l-7.2,7.2l-0.9-0.9l6.4-6.4l-3.3-3.3l0.8-0.8L242.3,104z"/>
	<path class="st1" d="M229.6,83.6l0.8,3l-9.8,2.6l-0.8-3.2c-0.3-1-0.3-1.8-0.1-2.6c0.2-0.8,0.6-1.5,1.3-2c0.6-0.6,1.5-1,2.5-1.2
		c1-0.3,2-0.3,2.8-0.2c0.8,0.2,1.5,0.5,2.1,1.1C228.9,81.8,229.3,82.6,229.6,83.6z M229,85.7l-0.5-1.8c-0.2-0.8-0.6-1.4-1-1.9
		s-1-0.7-1.7-0.8c-0.6-0.1-1.4-0.1-2.2,0.2c-0.8,0.2-1.4,0.5-1.9,0.9c-0.5,0.4-0.8,0.9-1,1.5c-0.2,0.6-0.2,1.3,0.1,2.1l0.5,1.9
		L229,85.7z"/>
	<path class="st1" d="M222.9,67.1c1.1,0,2,0.2,2.8,0.6s1.4,0.9,1.8,1.6c0.4,0.7,0.6,1.4,0.6,2.3c0,0.9-0.2,1.6-0.6,2.3
		c-0.4,0.7-1,1.2-1.8,1.6c-0.8,0.4-1.7,0.6-2.8,0.6c-1.1,0-2-0.2-2.8-0.6c-0.8-0.4-1.4-0.9-1.8-1.6c-0.4-0.7-0.6-1.4-0.6-2.3
		c0-0.9,0.2-1.6,0.6-2.3c0.4-0.7,1-1.2,1.8-1.6C220.9,67.3,221.8,67.1,222.9,67.1z M222.9,68.3c-0.9,0-1.6,0.1-2.2,0.4
		c-0.6,0.3-1.1,0.7-1.4,1.2c-0.3,0.5-0.5,1.1-0.5,1.7c0,0.6,0.2,1.2,0.5,1.7c0.3,0.5,0.8,0.9,1.4,1.2c0.6,0.3,1.4,0.4,2.2,0.4
		c0.9,0,1.6-0.1,2.2-0.4c0.6-0.3,1.1-0.7,1.4-1.2c0.3-0.5,0.5-1.1,0.5-1.7c0-0.6-0.2-1.2-0.5-1.7c-0.3-0.5-0.8-0.9-1.4-1.2
		C224.5,68.4,223.7,68.3,222.9,68.3z"/>
	<path class="st1" d="M228.6,63.9L218,63.9l0.3-1.2l8.6,0.1l0-0.1l-7.4-4.2l0.4-1.3l8.6,0.1l0-0.1l-7.5-4.2l0.3-1.2l9.1,5.3
		l-0.3,1.2l-8.4,0.1l0,0.1l7.3,4.3L228.6,63.9z"/>
	<path class="st1" d="M227,41.5l8.8,5.1l-0.6,1l-9.7,0.8l0,0.1l6.9,4l-0.6,1.1l-8.8-5.1l0.6-1l9.7-0.8l0-0.1l-6.9-4L227,41.5z"/>
	<path class="st1" d="M247.7,26.8c-0.3-0.4-0.7-0.6-1.2-0.7c-0.5,0-1,0.1-1.6,0.4c-0.4,0.2-0.7,0.5-0.9,0.8
		c-0.2,0.3-0.3,0.6-0.4,0.9c0,0.3,0,0.6,0.2,0.9c0.1,0.2,0.3,0.4,0.5,0.5c0.2,0.1,0.4,0.2,0.7,0.2c0.2,0,0.5,0,0.7-0.1
		c0.2,0,0.4-0.1,0.6-0.1l1-0.3c0.3-0.1,0.6-0.1,0.9-0.2c0.3-0.1,0.7-0.1,1.1,0c0.4,0,0.7,0.1,1,0.3c0.3,0.2,0.6,0.5,0.9,0.9
		c0.3,0.5,0.4,1,0.4,1.5c0,0.5-0.2,1-0.6,1.5c-0.3,0.5-0.9,0.9-1.5,1.3c-0.6,0.4-1.2,0.6-1.8,0.6c-0.6,0.1-1.1,0-1.6-0.2
		c-0.5-0.2-0.9-0.6-1.2-1l1.1-0.6c0.2,0.3,0.5,0.5,0.8,0.6c0.3,0.1,0.7,0.1,1,0c0.4-0.1,0.7-0.2,1.1-0.4c0.4-0.2,0.7-0.5,1-0.8
		c0.2-0.3,0.4-0.7,0.4-1c0.1-0.4,0-0.7-0.2-1c-0.2-0.3-0.4-0.5-0.7-0.6c-0.3-0.1-0.6-0.1-0.9-0.1c-0.3,0-0.7,0.1-1,0.2l-1.3,0.3
		c-0.8,0.2-1.5,0.2-2.1,0.1c-0.6-0.1-1.1-0.5-1.4-1.1c-0.3-0.5-0.4-1-0.3-1.5c0.1-0.5,0.3-1,0.6-1.5c0.3-0.5,0.8-0.9,1.3-1.2
		c0.6-0.3,1.1-0.5,1.7-0.6c0.6-0.1,1.1,0,1.5,0.2c0.5,0.2,0.8,0.5,1.1,1L247.7,26.8z"/>
	<path class="st1" d="M262.2,22.4l-1.2,0.3c-0.2-0.3-0.4-0.6-0.6-0.8c-0.2-0.2-0.5-0.4-0.8-0.5c-0.3-0.1-0.6-0.2-0.9-0.2
		c-0.3,0-0.7,0-1,0.1c-0.6,0.2-1.1,0.5-1.5,0.9c-0.4,0.4-0.7,1-0.8,1.6c-0.1,0.7-0.1,1.4,0.2,2.3c0.2,0.9,0.6,1.5,1,2
		c0.4,0.5,0.9,0.9,1.5,1c0.6,0.2,1.1,0.2,1.7,0c0.3-0.1,0.6-0.2,0.9-0.4c0.3-0.2,0.5-0.4,0.7-0.6c0.2-0.2,0.4-0.5,0.5-0.8
		c0.1-0.3,0.1-0.6,0.1-1l1.2-0.3c0,0.5,0,1-0.1,1.5c-0.1,0.5-0.3,0.9-0.6,1.3c-0.3,0.4-0.6,0.7-1,0.9c-0.4,0.3-0.8,0.5-1.3,0.6
		c-0.8,0.2-1.6,0.2-2.4,0c-0.8-0.2-1.4-0.7-2-1.3c-0.6-0.7-1-1.5-1.3-2.5c-0.3-1-0.3-2-0.2-2.8c0.2-0.9,0.5-1.6,1.1-2.2
		c0.5-0.6,1.2-1,2.1-1.2c0.5-0.1,1-0.2,1.5-0.2c0.5,0,0.9,0.1,1.4,0.3c0.4,0.2,0.8,0.4,1.2,0.8C261.7,21.5,262,21.9,262.2,22.4z"/>
	<path class="st1" d="M267.7,28.8V18.6h3.4c0.8,0,1.4,0.1,2,0.4c0.5,0.3,0.9,0.6,1.1,1.1c0.2,0.5,0.4,1,0.4,1.6
		c0,0.6-0.1,1.1-0.4,1.6c-0.2,0.5-0.6,0.8-1.1,1.1c-0.5,0.3-1.2,0.4-1.9,0.4h-2.8v-1.1h2.7c0.5,0,1-0.1,1.3-0.2
		c0.3-0.2,0.6-0.4,0.7-0.7c0.2-0.3,0.2-0.6,0.2-1.1c0-0.4-0.1-0.8-0.2-1.1c-0.2-0.3-0.4-0.5-0.7-0.7c-0.3-0.2-0.8-0.3-1.3-0.3h-2.2
		v9.1H267.7z M272.5,24.2l2.5,4.6h-1.4l-2.5-4.6H272.5z"/>
	<path class="st1" d="M288,26.6c-0.3,1-0.7,1.9-1.3,2.5c-0.6,0.7-1.2,1.1-2,1.3c-0.8,0.2-1.6,0.2-2.4,0c-0.8-0.2-1.5-0.6-2.1-1.2
		c-0.5-0.6-0.9-1.3-1.1-2.2c-0.2-0.9-0.1-1.8,0.2-2.8c0.3-1,0.7-1.9,1.3-2.5c0.6-0.7,1.2-1.1,2-1.3c0.8-0.2,1.6-0.2,2.4,0
		c0.8,0.2,1.5,0.6,2.1,1.2c0.5,0.6,0.9,1.3,1.1,2.2C288.3,24.6,288.2,25.5,288,26.6z M286.8,26.3c0.2-0.9,0.3-1.6,0.2-2.3
		c-0.1-0.7-0.4-1.2-0.8-1.6c-0.4-0.4-0.9-0.7-1.5-0.9c-0.6-0.2-1.2-0.2-1.7,0c-0.6,0.2-1.1,0.5-1.5,1c-0.4,0.5-0.8,1.2-1,2
		c-0.2,0.9-0.3,1.6-0.2,2.3c0.1,0.7,0.4,1.2,0.8,1.6c0.4,0.4,0.9,0.7,1.5,0.9c0.6,0.2,1.2,0.2,1.7,0c0.6-0.2,1.1-0.5,1.5-1
		C286.2,27.8,286.6,27.1,286.8,26.3z"/>
	<path class="st1" d="M290.3,33.3l5.1-8.8l1.1,0.6l-4.5,7.9l4.1,2.4l-0.5,0.9L290.3,33.3z"/>
	<path class="st1" d="M299.6,39.7l7.2-7.2l0.9,0.9l-6.4,6.4l3.3,3.3l-0.8,0.8L299.6,39.7z"/>
	<path class="st1" d="M312.3,60l-0.8-3l9.8-2.6l0.8,3.2c0.3,1,0.3,1.8,0.1,2.6c-0.2,0.8-0.6,1.5-1.3,2c-0.6,0.6-1.5,1-2.5,1.2
		c-1,0.3-2,0.3-2.8,0.2c-0.8-0.2-1.5-0.5-2.1-1.1C313,61.8,312.6,61,312.3,60z M312.9,57.9l0.5,1.8c0.2,0.8,0.6,1.4,1,1.9
		c0.5,0.5,1,0.7,1.7,0.8c0.7,0.1,1.4,0.1,2.2-0.2c0.8-0.2,1.4-0.5,1.9-0.9c0.5-0.4,0.8-0.9,1-1.5c0.2-0.6,0.2-1.3-0.1-2.1l-0.5-1.9
		L312.9,57.9z"/>
	<path class="st1" d="M319,76.5c-1.1,0-2-0.2-2.8-0.6c-0.8-0.4-1.4-0.9-1.8-1.6s-0.6-1.4-0.6-2.3c0-0.9,0.2-1.6,0.6-2.3
		c0.4-0.7,1-1.2,1.8-1.6c0.8-0.4,1.7-0.6,2.8-0.6s2,0.2,2.8,0.6c0.8,0.4,1.4,0.9,1.8,1.6c0.4,0.7,0.6,1.4,0.6,2.3
		c0,0.9-0.2,1.6-0.6,2.3c-0.4,0.7-1,1.2-1.8,1.6C321,76.3,320.1,76.5,319,76.5z M319,75.3c0.9,0,1.6-0.1,2.2-0.4
		c0.6-0.3,1.1-0.7,1.4-1.2c0.3-0.5,0.5-1.1,0.5-1.7c0-0.6-0.2-1.2-0.5-1.7c-0.3-0.5-0.8-0.9-1.4-1.2c-0.6-0.3-1.3-0.4-2.2-0.4
		c-0.9,0-1.6,0.1-2.2,0.4c-0.6,0.3-1.1,0.7-1.4,1.2c-0.3,0.5-0.5,1.1-0.5,1.7c0,0.6,0.2,1.2,0.5,1.7c0.3,0.5,0.8,0.9,1.4,1.2
		C317.4,75.2,318.2,75.3,319,75.3z"/>
	<path class="st1" d="M313.3,79.7l10.6-0.1l-0.3,1.2l-8.6-0.1l0,0.1l7.4,4.2l-0.4,1.3l-8.6-0.1l0,0.1l7.5,4.2l-0.3,1.2l-9.1-5.3
		l0.3-1.2l8.4-0.1l0-0.1L313,81L313.3,79.7z"/>
	<path class="st1" d="M314.9,102.1l-8.8-5.1l0.6-1l9.7-0.8l0.1-0.1l-6.9-4l0.6-1.1l8.8,5.1l-0.6,1l-9.7,0.8l0,0.1l6.9,4L314.9,102.1
		z"/>
</g>
<g class="st0">
	<polygon class="st2" points="365.7,63.5 365.1,63.5 365.1,3.3 365.7,3.3 	"/>
	<polygon class="st2" points="365.7,63.5 365.3,63.9 360.6,59.3 361,58.8 361,58.8 	"/>
	
		<rect x="367.3" y="58.1" transform="matrix(-0.7071 -0.7071 0.7071 -0.7071 584.1584 364.7349)" class="st2" width="0.6" height="6.6"/>
</g>
<polygon class="st3" points="57.5,86.3 62.1,81.7 61.7,81.3 57.6,85.4 57.6,25.8 57,25.8 57,85.3 52.9,81.3 52.9,81.3 52.5,81.7 
	57.2,86.4 57.2,86.4 57.3,86.5 "/>
</svg>
