<svg width="114" height="114" viewBox="0 0 114 114" fill="none" xmlns="http://www.w3.org/2000/svg">
<path d="M80.2941 102.021C80.5977 102.427 81.0027 102.645 81.5094 102.674C82.016 102.703 82.5362 102.563 83.0701 102.255C83.4605 102.03 83.7656 101.769 83.9854 101.474C84.2024 101.18 84.3289 100.876 84.3649 100.56C84.3981 100.247 84.3334 99.9489 84.171 99.6677C84.0351 99.4323 83.8623 99.2622 83.6526 99.1575C83.4417 99.0573 83.2149 99.0026 82.9723 98.9934C82.7314 98.9871 82.4926 99.0044 82.256 99.0453C82.021 99.0891 81.8093 99.1367 81.6209 99.1881L80.5861 99.4641C80.3217 99.5364 80.0182 99.6006 79.6756 99.6568C79.3301 99.7147 78.9751 99.7263 78.6107 99.6918C78.2451 99.6618 77.8956 99.5536 77.5622 99.3672C77.2288 99.1808 76.9428 98.8809 76.7041 98.4676C76.429 97.9911 76.3053 97.4885 76.333 96.9597C76.3578 96.4325 76.5429 95.918 76.8885 95.4162C77.2312 94.916 77.7412 94.4703 78.4186 94.0792C79.0501 93.7146 79.6557 93.5008 80.2355 93.4378C80.8125 93.3765 81.3382 93.4518 81.8127 93.6639C82.2844 93.8776 82.6766 94.2157 82.9895 94.678L81.8873 95.3144C81.6663 94.998 81.3953 94.787 81.0742 94.6816C80.7518 94.5807 80.4093 94.5641 80.0466 94.6319C79.6827 94.7042 79.3256 94.8415 78.9755 95.0437C78.5679 95.279 78.24 95.5563 77.9919 95.8756C77.7454 96.1978 77.5963 96.5327 77.5444 96.8803C77.4941 97.2308 77.5618 97.5667 77.7474 97.8882C77.9164 98.181 78.1358 98.372 78.4055 98.4612C78.6751 98.5505 78.9766 98.5755 79.3098 98.5361C79.6431 98.4968 79.9895 98.4308 80.3492 98.3379L81.6132 98.0215C82.4164 97.8218 83.125 97.7897 83.739 97.9251C84.353 98.0605 84.8315 98.4252 85.1745 99.0194C85.4596 99.5131 85.5747 100.021 85.5198 100.542C85.4638 101.068 85.2679 101.564 84.932 102.03C84.5949 102.5 84.1451 102.897 83.5825 103.222C83.0142 103.55 82.4502 103.74 81.8905 103.792C81.3325 103.846 80.8232 103.772 80.3627 103.571C79.8993 103.372 79.532 103.054 79.2608 102.617L80.2941 102.021Z" fill="#FEFEFE"/>
<path d="M65.7552 106.418L66.9462 106.099C67.1084 106.423 67.3123 106.691 67.5579 106.903C67.8002 107.116 68.0698 107.277 68.3667 107.386C68.6613 107.499 68.971 107.56 69.296 107.569C69.621 107.578 69.9467 107.539 70.2733 107.452C70.8687 107.292 71.3679 106.997 71.7706 106.566C72.1702 106.137 72.434 105.591 72.5619 104.929C72.6867 104.267 72.635 103.511 72.4068 102.659C72.1786 101.808 71.8452 101.127 71.4064 100.616C70.9645 100.107 70.4632 99.766 69.9023 99.5937C69.3382 99.4223 68.7585 99.4164 68.163 99.5759C67.8365 99.6634 67.5347 99.7923 67.2578 99.9626C66.9809 100.133 66.7428 100.339 66.5434 100.581C66.3418 100.827 66.1892 101.103 66.0858 101.409C65.9801 101.719 65.9375 102.053 65.958 102.411L64.767 102.73C64.722 102.203 64.7647 101.71 64.8953 101.249C65.0258 100.789 65.2298 100.372 65.5074 99.9993C65.7858 99.6296 66.1249 99.3139 66.5249 99.0523C66.9217 98.7916 67.3683 98.5948 67.8645 98.4618C68.7033 98.2371 69.5041 98.2421 70.267 98.4769C71.0299 98.7117 71.6999 99.1566 72.2769 99.8118C72.8539 100.467 73.2814 101.313 73.5593 102.35C73.8372 103.388 73.8902 104.334 73.718 105.19C73.5459 106.046 73.1882 106.767 72.6449 107.351C72.1016 107.936 71.4106 108.341 70.5718 108.566C70.0756 108.699 69.5904 108.751 69.1164 108.724C68.6392 108.697 68.1872 108.592 67.7605 108.408C67.3345 108.227 66.9499 107.97 66.6066 107.636C66.2642 107.306 65.9804 106.9 65.7552 106.418Z" fill="#FEFEFE"/>
<path d="M60.2447 100L60.2447 110.182L56.8043 110.182C56.0089 110.182 55.3559 110.046 54.8455 109.774C54.3351 109.506 53.9572 109.136 53.712 108.665C53.4667 108.195 53.3441 107.66 53.3441 107.06C53.3441 106.46 53.4667 105.928 53.712 105.464C53.9572 105 54.3334 104.635 54.8405 104.37C55.3476 104.108 55.9956 103.977 56.7844 103.977L59.5685 103.977L59.5685 105.091L56.8242 105.091C56.2806 105.091 55.8431 105.17 55.5117 105.33C55.1769 105.489 54.935 105.714 54.7858 106.006C54.6334 106.301 54.5572 106.652 54.5572 107.06C54.5572 107.467 54.6334 107.824 54.7858 108.129C54.9383 108.433 55.1819 108.669 55.5167 108.835C55.8514 109.004 56.2939 109.088 56.8441 109.088L59.0117 109.088L59.0117 100L60.2447 100ZM55.452 104.574L52.9464 100L54.3782 100L56.8441 104.574L55.452 104.574Z" fill="#FEFEFE"/>
<path d="M39.9869 102.229C40.2648 101.191 40.6923 100.345 41.2693 99.69C41.8463 99.0349 42.5163 98.5899 43.2792 98.3551C44.0421 98.1203 44.8429 98.1153 45.6817 98.34C46.5205 98.5648 47.2115 98.9695 47.7548 99.5543C48.2981 100.139 48.6558 100.859 48.8279 101.715C49.0001 102.571 48.9472 103.518 48.6692 104.555C48.3913 105.592 47.9638 106.439 47.3868 107.094C46.8098 107.749 46.1398 108.194 45.3769 108.429C44.614 108.664 43.8132 108.669 42.9744 108.444C42.1356 108.219 41.4446 107.814 40.9013 107.23C40.358 106.645 40.0003 105.924 39.8281 105.068C39.656 104.213 39.7089 103.266 39.9869 102.229ZM41.1394 102.538C40.9112 103.389 40.8611 104.146 40.989 104.808C41.1138 105.47 41.3775 106.016 41.7803 106.446C42.1799 106.876 42.6774 107.17 43.2729 107.33C43.8684 107.489 44.4481 107.483 45.0122 107.312C45.5731 107.14 46.0744 106.799 46.5164 106.289C46.9551 105.779 47.2885 105.098 47.5167 104.246C47.7449 103.395 47.7966 102.638 47.6718 101.977C47.5439 101.315 47.2801 100.769 46.8806 100.339C46.4778 99.9087 45.9786 99.6137 45.3832 99.4541C44.7877 99.2946 44.2095 99.3009 43.6487 99.4732C43.0846 99.6446 42.5832 99.9855 42.1445 100.496C41.7026 101.005 41.3676 101.686 41.1394 102.538Z" fill="#FEFEFE"/>
<path d="M37.6382 95.4734L32.5473 104.291L31.4795 103.675L36.0236 95.8041L31.9247 93.4377L32.4716 92.4905L37.6382 95.4734Z" fill="#FEFEFE"/>
<path d="M28.3403 89.1513L21.1407 96.3509L20.2688 95.4791L26.6951 89.0529L23.3484 85.7062L24.1218 84.9328L28.3403 89.1513Z" fill="#FEFEFE"/>
<path d="M15.635 68.763L16.4482 71.798L6.61332 74.4332L5.76407 71.2638C5.50844 70.3097 5.48658 69.4406 5.6985 68.6564C5.90722 67.873 6.32968 67.2022 6.96588 66.644C7.59888 66.0867 8.42441 65.6716 9.44247 65.3988C10.4669 65.1243 11.3978 65.0705 12.2352 65.2373C13.0693 65.4049 13.7784 65.7845 14.3623 66.3761C14.9431 66.9685 15.3673 67.7641 15.635 68.763ZM15.0726 70.8901L14.5991 69.1229C14.3812 68.3097 14.0438 67.6779 13.5868 67.2273C13.1298 66.7767 12.5764 66.4978 11.9265 66.3905C11.2767 66.2833 10.5517 66.3369 9.75129 66.5513C8.95733 66.7641 8.30856 67.0769 7.80498 67.4898C7.2982 67.9035 6.9602 68.4092 6.79097 69.007C6.61854 69.6057 6.63526 70.2892 6.84114 71.0575L7.35069 72.9592L15.0726 70.8901Z" fill="#FEFEFE"/>
<path d="M8.90909 52.2725C9.98295 52.2725 10.911 52.4663 11.6932 52.8541C12.4754 53.2419 13.0786 53.7739 13.5028 54.45C13.9271 55.1261 14.1392 55.8984 14.1392 56.7668C14.1392 57.6351 13.9271 58.4074 13.5028 59.0835C13.0786 59.7597 12.4754 60.2916 11.6932 60.6794C10.911 61.0672 9.98295 61.2611 8.90909 61.2611C7.83523 61.2611 6.9072 61.0672 6.125 60.6794C5.3428 60.2916 4.73958 59.7597 4.31534 59.0835C3.8911 58.4074 3.67898 57.6351 3.67898 56.7668C3.67898 55.8984 3.8911 55.1261 4.31534 54.45C4.73958 53.7739 5.3428 53.2419 6.125 52.8541C6.9072 52.4663 7.83523 52.2725 8.90909 52.2725ZM8.90909 53.4656C8.02746 53.4656 7.28338 53.6131 6.67685 53.9081C6.07031 54.1998 5.61127 54.5958 5.29972 55.0963C4.98816 55.5935 4.83239 56.1503 4.83239 56.7668C4.83239 57.3832 4.98816 57.9417 5.29972 58.4422C5.61127 58.9394 6.07031 59.3354 6.67685 59.6304C7.28338 59.9221 8.02746 60.0679 8.90909 60.0679C9.79072 60.0679 10.5348 59.9221 11.1413 59.6304C11.7479 59.3354 12.2069 58.9394 12.5185 58.4422C12.83 57.9417 12.9858 57.3832 12.9858 56.7668C12.9858 56.1503 12.83 55.5935 12.5185 55.0963C12.2069 54.5958 11.7479 54.1998 11.1413 53.9081C10.5348 53.6131 9.79072 53.4656 8.90909 53.4656Z" fill="#FEFEFE"/>
<path d="M14.6041 49.0841L4.04867 49.1381L4.37293 47.9279L12.9337 48.0189L12.9594 47.9228L5.51041 43.6828L5.87069 42.3382L14.4418 42.3907L14.4675 42.2946L7.00818 38.093L7.33243 36.8829L16.4467 42.2073L16.1173 43.4367L7.69855 43.5073L7.67797 43.5842L14.9335 47.8547L14.6041 49.0841Z" fill="#FEFEFE"/>
<path d="M13.0791 26.7098L21.8968 31.8007L21.3003 32.834L11.6028 33.6418L11.5531 33.7279L18.4764 37.7251L17.8599 38.7928L9.0422 33.7019L9.63879 32.6686L19.3634 31.8535L19.4131 31.7674L12.4726 27.7603L13.0791 26.7098Z" fill="#FEFEFE"/>
<path d="M33.7059 11.9792C33.4023 11.5727 32.9972 11.355 32.4906 11.326C31.984 11.297 31.4638 11.4367 30.9299 11.7449C30.5395 11.9703 30.2344 12.2306 30.0146 12.526C29.7976 12.8196 29.6711 13.1242 29.6351 13.4397C29.6019 13.7535 29.6666 14.0511 29.829 14.3324C29.9649 14.5677 30.1377 14.7378 30.3474 14.8425C30.5583 14.9427 30.7851 14.9974 31.0277 15.0066C31.2686 15.0129 31.5074 14.9956 31.744 14.9547C31.979 14.9109 32.1907 14.8633 32.3791 14.8119L33.4139 14.5359C33.6783 14.4636 33.9818 14.3994 34.3244 14.3432C34.6699 14.2853 35.0249 14.2737 35.3893 14.3082C35.7549 14.3382 36.1044 14.4464 36.4378 14.6328C36.7712 14.8192 37.0572 15.1191 37.2959 15.5324C37.5709 16.0089 37.6947 16.5115 37.667 17.0403C37.6422 17.5675 37.4571 18.082 37.1115 18.5838C36.7688 19.084 36.2588 19.5297 35.5814 19.9208C34.9499 20.2854 34.3442 20.4992 33.7645 20.5622C33.1875 20.6235 32.6618 20.5482 32.1873 20.3361C31.7156 20.1224 31.3234 19.7843 31.0105 19.322L32.1127 18.6856C32.3337 19.002 32.6047 19.213 32.9258 19.3184C33.2482 19.4193 33.5907 19.4359 33.9534 19.3681C34.3173 19.2958 34.6744 19.1585 35.0245 18.9563C35.4321 18.721 35.76 18.4437 36.0081 18.1244C36.2546 17.8022 36.4037 17.4673 36.4556 17.1197C36.5059 16.7692 36.4382 16.4333 36.2526 16.1118C36.0836 15.819 35.8642 15.628 35.5945 15.5388C35.3249 15.4495 35.0234 15.4245 34.6902 15.4639C34.3569 15.5032 34.0105 15.5692 33.6508 15.6621L32.3868 15.9785C31.5836 16.1782 30.875 16.2103 30.261 16.0749C29.647 15.9395 29.1685 15.5748 28.8255 14.9806C28.5404 14.4869 28.4253 13.9793 28.4802 13.4578C28.5362 12.9317 28.7321 12.4359 29.068 11.9702C29.4051 11.5001 29.8549 11.1026 30.4175 10.7778C30.9858 10.4497 31.5498 10.2599 32.1095 10.2085C32.6675 10.1542 33.1768 10.2276 33.6373 10.4286C34.1007 10.628 34.468 10.946 34.7392 11.3826L33.7059 11.9792Z" fill="#FEFEFE"/>
<path d="M48.2448 7.58197L47.0538 7.90109C46.8916 7.5774 46.6877 7.30949 46.4421 7.09735C46.1998 6.88436 45.9301 6.72328 45.6333 6.61411C45.3387 6.50088 45.0289 6.43976 44.704 6.43076C44.379 6.42175 44.0533 6.461 43.7267 6.5485C43.1313 6.70805 42.6321 7.00306 42.2294 7.43353C41.8298 7.86314 41.566 8.40906 41.4381 9.07127C41.3133 9.73263 41.365 10.4891 41.5932 11.3407C41.8214 12.1923 42.1548 12.8733 42.5936 13.3836C43.0355 13.8932 43.5368 14.234 44.0977 14.4063C44.6618 14.5777 45.2415 14.5836 45.837 14.4241C46.1635 14.3366 46.4653 14.2077 46.7422 14.0374C47.0191 13.8671 47.2572 13.6609 47.4566 13.4188C47.6582 13.1726 47.8108 12.8967 47.9142 12.5911C48.0199 12.2814 48.0625 11.9474 48.042 11.5892L49.233 11.2701C49.278 11.7967 49.2353 12.2903 49.1047 12.7507C48.9742 13.2112 48.7702 13.6279 48.4926 14.0007C48.2142 14.3704 47.875 14.6861 47.4751 14.9477C47.0783 15.2084 46.6317 15.4052 46.1355 15.5382C45.2967 15.7629 44.4959 15.7579 43.733 15.5231C42.9701 15.2883 42.3001 14.8434 41.7231 14.1882C41.1461 13.533 40.7186 12.6868 40.4407 11.6495C40.1628 10.6122 40.1098 9.66564 40.282 8.80973C40.4541 7.95382 40.8118 7.23347 41.3551 6.64869C41.8984 6.06391 42.5894 5.65914 43.4282 5.43439C43.9244 5.30142 44.4096 5.24864 44.8836 5.27604C45.3608 5.30259 45.8128 5.40794 46.2395 5.59211C46.6655 5.77307 47.0501 6.0303 47.3934 6.36381C47.7358 6.69411 48.0196 7.10016 48.2448 7.58197Z" fill="#FEFEFE"/>
<path d="M53.7553 14L53.7553 3.81818L57.1957 3.81818C57.9911 3.81818 58.6441 3.95407 59.1545 4.22585C59.6649 4.49432 60.0428 4.86387 60.288 5.33452C60.5333 5.80516 60.6559 6.34044 60.6559 6.94034C60.6559 7.54025 60.5333 8.07221 60.288 8.53622C60.0428 9.00024 59.6666 9.36482 59.1595 9.62997C58.6524 9.89181 58.0044 10.0227 57.2156 10.0227L54.4315 10.0227L54.4315 8.90909L57.1758 8.90909C57.7194 8.90909 58.1569 8.82955 58.4883 8.67045C58.8231 8.51136 59.065 8.28598 59.2142 7.99432C59.3666 7.69934 59.4428 7.34801 59.4428 6.94034C59.4428 6.53267 59.3666 6.17637 59.2142 5.87145C59.0617 5.56652 58.8181 5.3312 58.4833 5.16548C58.1486 4.99645 57.7061 4.91193 57.1559 4.91193L54.9883 4.91193L54.9883 14L53.7553 14ZM58.548 9.42614L61.0536 14L59.6218 14L57.1559 9.42614L58.548 9.42614Z" fill="#FEFEFE"/>
<path d="M74.0131 11.7713C73.7352 12.8086 73.3077 13.6548 72.7307 14.31C72.1537 14.9651 71.4837 15.4101 70.7208 15.6449C69.9579 15.8797 69.1571 15.8847 68.3183 15.66C67.4795 15.4352 66.7885 15.0304 66.2452 14.4457C65.7019 13.8609 65.3442 13.1405 65.1721 12.2846C64.9999 11.4287 65.0528 10.4821 65.3308 9.44485C65.6087 8.40758 66.0362 7.56135 66.6132 6.90618C67.1902 6.251 67.8602 5.80601 68.6231 5.57122C69.386 5.33643 70.1868 5.33141 71.0256 5.55616C71.8644 5.78092 72.5554 6.18568 73.0987 6.77047C73.642 7.35525 73.9997 8.0756 74.1719 8.93151C74.344 9.78742 74.2911 10.734 74.0131 11.7713ZM72.8606 11.4625C73.0888 10.6109 73.1389 9.85397 73.011 9.19176C72.8862 8.53041 72.6225 7.98449 72.2197 7.55402C71.8201 7.12441 71.3226 6.82983 70.7271 6.67027C70.1316 6.51072 69.5519 6.51664 68.9878 6.68805C68.4269 6.86031 67.9256 7.2012 67.4836 7.71072C67.0449 8.2211 66.7115 8.90208 66.4833 9.75367C66.2551 10.6053 66.2034 11.3617 66.3281 12.0231C66.4561 12.6853 66.7199 13.2312 67.1194 13.6608C67.5222 14.0913 68.0214 14.3863 68.6168 14.5459C69.2123 14.7054 69.7905 14.6991 70.3513 14.5268C70.9154 14.3554 71.4168 14.0145 71.8555 13.5041C72.2974 12.9946 72.6324 12.3141 72.8606 11.4625Z" fill="#FEFEFE"/>
<path d="M76.3618 18.5266L81.4527 9.70888L82.5205 10.3254L77.9764 18.1959L82.0753 20.5623L81.5284 21.5095L76.3618 18.5266Z" fill="#FEFEFE"/>
<path d="M85.6597 24.8487L92.8593 17.6491L93.7312 18.5209L87.3049 24.9471L90.6516 28.2939L89.8782 29.0672L85.6597 24.8487Z" fill="#FEFEFE"/>
<path d="M98.365 45.237L97.5518 42.202L107.387 39.5668L108.236 42.7362C108.492 43.6903 108.513 44.5594 108.301 45.3436C108.093 46.127 107.67 46.7978 107.034 47.356C106.401 47.9133 105.576 48.3284 104.558 48.6012C103.533 48.8757 102.602 48.9295 101.765 48.7627C100.931 48.5951 100.222 48.2155 99.6377 47.6239C99.0569 47.0315 98.6327 46.2359 98.365 45.237ZM98.9274 43.1099L99.4009 44.8771C99.6188 45.6903 99.9562 46.3221 100.413 46.7727C100.87 47.2233 101.424 47.5022 102.073 47.6095C102.723 47.7167 103.448 47.6631 104.249 47.4487C105.043 47.2359 105.691 46.9231 106.195 46.5102C106.702 46.0965 107.04 45.5908 107.209 44.993C107.381 44.3943 107.365 43.7108 107.159 42.9425L106.649 41.0408L98.9274 43.1099Z" fill="#FEFEFE"/>
<path d="M105.091 61.7275C104.017 61.7275 103.089 61.5337 102.307 61.1459C101.525 60.7581 100.921 60.2261 100.497 59.55C100.073 58.8739 99.8608 58.1016 99.8608 57.2332C99.8608 56.3649 100.073 55.5926 100.497 54.9165C100.921 54.2403 101.525 53.7084 102.307 53.3206C103.089 52.9328 104.017 52.7389 105.091 52.7389C106.165 52.7389 107.093 52.9328 107.875 53.3206C108.657 53.7084 109.26 54.2403 109.685 54.9165C110.109 55.5926 110.321 56.3649 110.321 57.2332C110.321 58.1016 110.109 58.8739 109.685 59.55C109.26 60.2261 108.657 60.7581 107.875 61.1459C107.093 61.5337 106.165 61.7275 105.091 61.7275ZM105.091 60.5344C105.973 60.5344 106.717 60.3869 107.323 60.0919C107.93 59.8002 108.389 59.4042 108.7 58.9037C109.012 58.4065 109.168 57.8497 109.168 57.2332C109.168 56.6168 109.012 56.0583 108.7 55.5578C108.389 55.0606 107.93 54.6646 107.323 54.3696C106.717 54.0779 105.973 53.9321 105.091 53.9321C104.209 53.9321 103.465 54.0779 102.859 54.3696C102.252 54.6646 101.793 55.0606 101.482 55.5578C101.17 56.0583 101.014 56.6168 101.014 57.2332C101.014 57.8497 101.17 58.4065 101.482 58.9037C101.793 59.4042 102.252 59.8002 102.859 60.0919C103.465 60.3869 104.209 60.5344 105.091 60.5344Z" fill="#FEFEFE"/>
<path d="M99.3959 64.9159L109.951 64.8619L109.627 66.0721L101.066 65.9811L101.041 66.0772L108.49 70.3172L108.129 71.6618L99.5582 71.6093L99.5325 71.7054L106.992 75.907L106.668 77.1171L97.5533 71.7927L97.8827 70.5633L106.301 70.4927L106.322 70.4158L99.0665 66.1453L99.3959 64.9159Z" fill="#FEFEFE"/>
<path d="M100.921 87.2902L92.1032 82.1993L92.6997 81.166L102.397 80.3582L102.447 80.2721L95.5236 76.2749L96.1401 75.2072L104.958 80.2981L104.361 81.3314L94.6366 82.1465L94.5869 82.2326L101.527 86.2397L100.921 87.2902Z" fill="#FEFEFE"/>
</svg>
