<svg width="54" height="40" viewBox="0 0 54 40" fill="none" xmlns="http://www.w3.org/2000/svg">
<path d="M52.7382 37.159L46.5564 31.025C46.2311 30.7022 45.7105 30.573 45.255 30.7022C45.1899 30.7022 45.0598 30.7022 44.9947 30.6376L42.5871 28.3132C42.522 28.2486 42.522 28.1195 42.5871 27.9903C44.9297 25.0847 44.9947 21.0169 42.9775 17.9822L44.8646 17.1429C44.9947 17.0783 45.1249 17.2074 45.1249 17.3366V26.3761C45.0598 26.3761 44.9947 26.4407 44.9297 26.4407C44.344 26.6989 43.9536 27.2801 43.9536 27.9257C43.9536 28.8297 44.7345 29.6045 45.6454 29.6045C46.5564 29.6045 47.3373 28.8297 47.3373 27.9257C47.3373 27.2801 46.9469 26.6989 46.3612 26.4407C46.2961 26.4407 46.2311 26.3761 46.166 26.3761V16.5617L46.6215 16.368L52.2827 13.7853C53.1937 13.3979 53.1937 12.1065 52.2827 11.6546L27.2955 0.0968523C26.9701 -0.0322841 26.6448 -0.0322841 26.3194 0.0968523L1.39729 11.59C0.486302 11.9774 0.486302 13.2688 1.39729 13.7207L26.3194 25.2139C26.6448 25.343 26.9701 25.343 27.2955 25.2139L27.5558 25.0847C27.6208 25.343 27.751 25.6659 27.8811 25.9241L26.9701 26.3761C26.84 26.4407 26.7098 26.4407 26.5797 26.3761L12.7196 19.9193C12.3943 19.7902 12.0038 19.9839 12.0038 20.3713V28.9588C12.0038 29.1525 12.134 29.3462 12.2641 29.4108L26.5797 36.0613C26.7098 36.1259 26.84 36.1259 26.9701 36.0613L37.7719 31.0896C38.8781 30.8313 39.9843 30.3148 40.9603 29.6045L41.2206 29.4754C41.2857 29.4754 41.3508 29.4754 41.3508 29.54L43.7584 31.929C43.8235 31.9935 43.8235 32.0581 43.8235 32.1872C43.6933 32.6392 43.8235 33.1558 44.1488 33.4786L50.3305 39.6126C50.8511 40.1291 51.697 40.1291 52.2176 39.6126L52.6731 39.1606C53.1936 38.5149 53.1936 37.6755 52.7382 37.159ZM40.0493 28.184C37.5767 30.0565 34.0628 30.0565 31.5901 28.184C30.549 27.4092 29.8332 26.3761 29.3777 25.2785C29.2476 25.0202 29.1825 24.6973 29.1175 24.4391C28.4667 21.9209 29.3127 19.0799 31.5901 17.272C34.0628 15.3995 37.5767 15.3995 40.0493 17.272C40.635 17.724 41.0905 18.1759 41.4809 18.7571C43.1077 21.0169 43.2378 24.0517 41.7412 26.4407C41.2206 27.0218 40.7001 27.6675 40.0493 28.184Z" fill="black"/>
<path d="M40.5047 19.1445C39.5938 17.7886 38.0321 16.9492 36.2751 16.9492C36.145 16.9492 36.0149 17.0784 36.0149 17.2075C36.0149 17.3366 36.145 17.4658 36.2751 17.4658C37.8368 17.4658 39.2033 18.2406 40.0493 19.4028C40.2445 19.6611 40.3746 19.9194 40.5047 20.1776C40.765 20.7587 40.8952 21.4044 40.8952 22.0501C40.8952 22.1792 41.0253 22.3084 41.1555 22.3084C41.2856 22.3084 41.4157 22.1792 41.4157 22.0501C41.4157 21.3399 41.2205 20.6296 40.9602 19.9839C40.765 19.6611 40.6349 19.4028 40.5047 19.1445Z" fill="black"/>
</svg>
