<svg width="35" height="22" viewBox="0 0 35 22" fill="none" xmlns="http://www.w3.org/2000/svg">
<path d="M34.086 6.91565L17.5353 0.0703287C17.3477 -0.0234429 17.1602 -0.0234429 17.0195 0.0703287L0.421972 6.91565C0.140657 7.00942 0 7.29074 0 7.57205C0 7.85337 0.187543 8.13468 0.421972 8.22845L6.56401 10.7603V16.7617C6.56401 17.8869 7.17352 19.481 10.1742 20.6063C12.0965 21.3096 14.6284 21.7316 17.3477 21.7316C22.5989 21.7316 27.9439 20.1843 27.9439 16.7617V10.7603L30.804 9.58814V13.2921C30.804 13.6672 31.1322 13.9954 31.5072 13.9954C31.8823 13.9954 32.2105 13.6672 32.2105 13.2921V8.97863L34.1329 8.18157C34.4142 8.0878 34.5548 7.80648 34.5548 7.52517C34.5548 7.24385 34.3204 7.00942 34.086 6.91565ZM17.254 1.4769L31.9761 7.57205L17.254 13.6672L2.53183 7.57205L17.254 1.4769ZM26.4905 16.7617C26.4905 18.7778 22.5521 20.325 17.3009 20.325C12.0496 20.325 7.97058 18.7778 7.97058 16.7617V11.3229L16.9727 15.0738C17.0664 15.1207 17.1602 15.1207 17.254 15.1207C17.3477 15.1207 17.4415 15.1207 17.5353 15.0738L26.5374 11.3229V16.7617H26.4905Z" fill="white"/>
</svg>
