<svg xmlns="http://www.w3.org/2000/svg" version="1.1" width="512" height="512">
<path d="M0 0 C5.70662802 0.00569666 11.41320941 0.00229643 17.11983585 -0.00343132 C53.89832935 -0.03488137 90.69978264 0.08414034 127.41308594 2.50537109 C128.43237183 2.57073059 129.45165771 2.63609009 130.50183105 2.70343018 C186.7423661 6.33076021 186.7423661 6.33076021 204.10058594 24.25537109 C223.10134086 47.11078736 222.57354822 83.84426935 223.41308594 111.94287109 C223.44435577 112.98692108 223.44435577 112.98692108 223.47625732 114.05206299 C227.34303918 246.8985791 227.34303918 246.8985791 204.85058594 277.13037109 C203.73683594 278.67724609 203.73683594 278.67724609 202.60058594 280.25537109 C181.29992141 302.52424764 144.76869812 299.7605071 116.23339844 301.20751953 C115.38392639 301.2506929 114.53445435 301.29386626 113.65924072 301.33834791 C94.62924489 302.28277326 75.62239678 302.42705755 56.5725708 302.3990221 C51.87227194 302.39379682 47.17197903 302.39869758 42.47167969 302.40179443 C34.59275881 302.40538776 26.71387597 302.40075942 18.83496094 302.39111328 C9.8508143 302.3802379 0.86675859 302.38376682 -8.11738586 302.39476609 C-15.96589409 302.40397386 -23.81437567 302.40505984 -31.66288757 302.39988875 C-36.2913867 302.39684159 -40.91984378 302.39615002 -45.54833984 302.40296173 C-165.61066299 302.55528244 -165.61066299 302.55528244 -187.37597656 282.07568359 C-190.74442054 278.38078249 -193.51081896 274.36831924 -196.14941406 270.13037109 C-196.54 269.50646484 -196.93058594 268.88255859 -197.33300781 268.23974609 C-226.02411496 216.88601346 -216.26230478 102.58469034 -202.14941406 47.13037109 C-198.12120394 33.08959551 -189.94072081 21.03198064 -177.29785156 13.41162109 C-166.00515895 7.4588839 -154.83227685 5.59421973 -142.21191406 4.56787109 C-140.75935213 4.44376207 -139.30679695 4.31957392 -137.85424805 4.1953125 C-115.0385177 2.28449567 -92.18957083 1.12954831 -69.30175781 0.58349609 C-68.42149429 0.56224796 -67.54123077 0.54099983 -66.6342926 0.51910782 C-44.42455416 -0.00194438 -22.21478131 -0.0223473 0 0 Z M-176.14941406 48.13037109 C-176.14941406 56.71037109 -176.14941406 65.29037109 -176.14941406 74.13037109 C-166.24941406 74.13037109 -156.34941406 74.13037109 -146.14941406 74.13037109 C-146.14941406 128.91037109 -146.14941406 183.69037109 -146.14941406 240.13037109 C-136.90941406 240.13037109 -127.66941406 240.13037109 -118.14941406 240.13037109 C-118.14941406 185.35037109 -118.14941406 130.57037109 -118.14941406 74.13037109 C-107.58941406 74.13037109 -97.02941406 74.13037109 -86.14941406 74.13037109 C-86.14941406 65.55037109 -86.14941406 56.97037109 -86.14941406 48.13037109 C-115.84941406 48.13037109 -145.54941406 48.13037109 -176.14941406 48.13037109 Z M15.85058594 48.13037109 C15.85058594 111.49037109 15.85058594 174.85037109 15.85058594 240.13037109 C24.10058594 240.13037109 32.35058594 240.13037109 40.85058594 240.13037109 C41.18058594 235.84037109 41.51058594 231.55037109 41.85058594 227.13037109 C43.08808594 228.49162109 44.32558594 229.85287109 45.60058594 231.25537109 C52.31424024 237.90598639 59.54140597 242.38253099 69.16308594 242.75537109 C76.09660213 242.35710123 79.71024454 240.31935662 84.60058594 235.31787109 C93.58094337 222.59569806 92.15746044 205.29856334 92.11621094 190.37646484 C92.11756354 188.61922655 92.11950897 186.86198862 92.12200928 185.10475159 C92.12493184 181.44992454 92.12075601 177.79519628 92.11132812 174.14038086 C92.09992685 169.49904495 92.10651581 164.85794031 92.11847305 160.21661282 C92.12576264 156.59681004 92.12337161 152.97706047 92.11821747 149.35725594 C92.11690095 147.64755283 92.11845694 145.9378446 92.12317657 144.22814751 C92.68412321 121.34222318 92.68412321 121.34222318 83.41308594 101.25537109 C78.08455092 96.83658596 73.81389068 94.94306701 66.85058594 95.13037109 C56.02252711 97.10355651 48.43149081 103.54946622 40.85058594 111.13037109 C40.85058594 90.34037109 40.85058594 69.55037109 40.85058594 48.13037109 C32.60058594 48.13037109 24.35058594 48.13037109 15.85058594 48.13037109 Z M125.60058594 104.31787109 C113.16549655 117.03557615 112.69275563 133.23529792 112.64746094 150.00537109 C112.64463356 150.71724579 112.64180618 151.42912048 112.63889313 152.16256714 C112.62396512 155.93520467 112.6146972 159.70780465 112.61035156 163.48046875 C112.60489745 167.32834306 112.58091632 171.17585808 112.55237961 175.02362061 C112.53351999 178.02497273 112.52853529 181.02624262 112.52701569 184.02764893 C112.52403735 185.44348092 112.51617794 186.85931324 112.50283051 188.27508545 C112.3701929 203.4341246 113.35593668 220.03889711 123.91308594 231.88037109 C133.33774699 240.64073885 144.19794531 242.62480081 156.51074219 242.40380859 C166.06815736 241.98565874 174.18635381 237.94520734 180.85058594 231.13037109 C188.17424161 221.62222157 190.17375617 213.49978354 189.97558594 201.69287109 C189.93433594 198.20724609 189.89308594 194.72162109 189.85058594 191.13037109 C181.60058594 191.13037109 173.35058594 191.13037109 164.85058594 191.13037109 C164.2745594 197.44143446 164.2745594 197.44143446 163.71435547 203.75390625 C163.26283653 208.47624066 162.61072258 212.67826076 160.85058594 217.13037109 C154.68533726 218.74301159 149.90643647 219.8493244 143.85058594 217.13037109 C139.54612323 213.27119763 138.98740639 206.78059751 138.53173828 201.28466797 C138.50031738 199.9859375 138.46889648 198.68720703 138.43652344 197.34912109 C138.40091309 196.06972656 138.36530273 194.79033203 138.32861328 193.47216797 C138.29461426 191.874375 138.26061523 190.27658203 138.22558594 188.63037109 C138.10183594 183.51537109 137.97808594 178.40037109 137.85058594 173.13037109 C155.01058594 173.13037109 172.17058594 173.13037109 189.85058594 173.13037109 C189.91246094 166.28287109 189.97433594 159.43537109 190.03808594 152.38037109 C190.06539795 150.2447168 190.09270996 148.1090625 190.12084961 145.90869141 C190.23369926 130.85593125 189.29431952 117.01219137 178.66308594 105.38037109 C163.30092819 91.07996075 141.93920259 93.32072527 125.60058594 104.31787109 Z M-82.14941406 97.13037109 C-82.17207646 111.73506364 -82.19046011 126.33974509 -82.20122623 140.94445133 C-82.20636026 147.72721554 -82.21334712 154.50996797 -82.22485352 161.29272461 C-82.23596856 167.8479705 -82.24171165 174.4032088 -82.24429131 180.95846367 C-82.24612788 183.44967274 -82.24971399 185.94088121 -82.25514412 188.43208504 C-84.06428366 214.55115787 -84.06428366 214.55115787 -75.71191406 238.06787109 C-70.69028328 242.10967148 -66.82704044 242.6998696 -60.43457031 242.56005859 C-49.39063229 241.11554827 -41.77206186 233.5524229 -34.14941406 226.13037109 C-33.65441406 233.06037109 -33.65441406 233.06037109 -33.14941406 240.13037109 C-24.56941406 240.13037109 -15.98941406 240.13037109 -7.14941406 240.13037109 C-7.14941406 192.94037109 -7.14941406 145.75037109 -7.14941406 97.13037109 C-15.72941406 97.13037109 -24.30941406 97.13037109 -33.14941406 97.13037109 C-33.14304932 100.48652588 -33.13668457 103.84268066 -33.13012695 107.30053711 C-33.11418042 118.39270297 -33.13660313 129.48455267 -33.17788029 140.57664585 C-33.20219276 147.30148217 -33.21354394 154.02586852 -33.1940918 160.75073242 C-33.17663136 167.24143647 -33.19312014 173.73125003 -33.23309135 180.22184563 C-33.24238134 182.69732058 -33.23946421 185.17287259 -33.22410774 187.64831734 C-33.20467419 191.11802004 -33.22874696 194.58491176 -33.26293945 198.05444336 C-33.24712326 199.07655914 -33.23130707 200.09867493 -33.2150116 201.15176392 C-33.31464044 206.41031464 -33.79846037 209.394386 -37.5478363 213.23667908 C-40.13736403 215.49326781 -42.49646967 217.17081795 -45.83691406 218.13037109 C-46.56265625 218.35724609 -47.28839844 218.58412109 -48.03613281 218.81787109 C-50.4145794 219.16958223 -51.90976496 218.98914722 -54.14941406 218.13037109 C-55.36927473 215.69064976 -55.28753128 214.10017739 -55.30763245 211.37216187 C-55.31742126 210.3681282 -55.32721008 209.36409454 -55.33729553 208.32963562 C-55.34592873 206.67131462 -55.34592873 206.67131462 -55.35473633 204.97949219 C-55.36463593 203.81852524 -55.37453552 202.65755829 -55.38473511 201.46141052 C-55.41642205 197.60889757 -55.44113598 193.75637227 -55.46582031 189.90380859 C-55.48638363 187.23865323 -55.50733158 184.5735037 -55.52879333 181.90835571 C-55.57873869 175.60086361 -55.62367067 169.29334608 -55.6668157 162.9858042 C-55.71617234 155.80569494 -55.77109629 148.62563168 -55.82649529 141.44556689 C-55.94034362 126.67387741 -56.04644144 111.90214075 -56.14941406 97.13037109 C-64.72941406 97.13037109 -73.30941406 97.13037109 -82.14941406 97.13037109 Z " fill="#ffffff" transform="translate(249.1494140625,209.86962890625)"/>
<path d="M0 0 C10.56 0 21.12 0 32 0 C38.27 23.43 44.54 46.86 51 71 C52.78747296 67.42505408 53.77947544 64.45055983 54.77172852 60.61083984 C54.93622498 59.97948624 55.10072144 59.34813263 55.27020264 58.69764709 C55.81055785 56.6197886 56.34466605 54.54037577 56.87890625 52.4609375 C57.25434128 51.01401149 57.63023807 49.56720521 58.00657654 48.12051392 C58.99471489 44.31811508 59.97786986 40.51444731 60.95959473 36.71038818 C62.53337951 30.61424249 64.11321056 24.51966858 65.69590569 18.42583084 C66.24809458 16.29585503 66.79723665 14.16511004 67.34608459 12.03427124 C67.68317599 10.73294466 68.02036449 9.43164323 68.35766602 8.13037109 C68.65141617 6.99215912 68.94516632 5.85394714 69.24781799 4.6812439 C70 2 70 2 71 0 C81.23 0 91.46 0 102 0 C95.68078196 21.96432634 89.13035796 43.84270461 82.41680908 65.68902588 C80.46763163 72.03245744 78.52136418 78.37677953 76.57706642 84.7217083 C75.91145492 86.89200148 75.24412162 89.06175923 74.57658386 91.23146057 C73.75631871 93.89771203 72.9480574 96.56719065 72.14736938 99.23937988 C71.41041412 101.65482589 70.64023343 104.06052056 69.82894897 106.45202637 C66.6483109 116.27045236 66.39568933 125.43916627 66.390625 135.6484375 C66.37560712 137.39964295 66.35887256 139.15083443 66.34051514 140.90200806 C66.29723367 145.46224701 66.27693064 150.02229508 66.26177979 154.58270264 C66.24206565 159.25576892 66.20011285 163.92863322 66.16015625 168.6015625 C66.08527979 177.7343463 66.03679343 186.86698331 66 196 C56.1 196 46.2 196 36 196 C36.01160156 193.64278809 36.02320313 191.28557617 36.03515625 188.85693359 C36.06815195 180.93405364 36.05592494 173.01166331 36.02334595 165.08879662 C36.00496813 160.30041022 36.00029847 155.51295388 36.03076172 150.72460938 C36.17095424 126.70589362 34.72675028 105.9238676 27 83 C26.22661737 80.57479252 25.4571256 78.14834105 24.69140625 75.72070312 C22.37978973 68.47164388 19.94821482 61.26633531 17.5 54.0625 C16.68797389 51.64806484 15.87677557 49.23335112 15.06640625 46.81835938 C11.96816776 37.60634795 8.8535824 28.4011596 5.625 19.23388672 C5.25097046 18.1702037 4.87694092 17.10652069 4.49157715 16.01060486 C3.78585166 14.00980245 3.07587488 12.01049274 2.36096191 10.01295471 C2.04912964 9.130103 1.73729736 8.24725128 1.41601562 7.33764648 C1.14132446 6.5683934 0.8666333 5.79914032 0.58361816 5.00657654 C0 3 0 3 0 0 Z " fill="#ffffff" transform="translate(98,0)"/>
<path d="M0 0 C8.91 0 17.82 0 27 0 C27.02505615 3.58915283 27.0501123 7.17830566 27.07592773 10.8762207 C27.15928235 22.71470951 27.24793393 34.55315456 27.33933926 46.39158344 C27.39464584 53.57150456 27.44812363 60.75143065 27.49731445 67.93139648 C27.5401877 74.188566 27.58647363 80.44569931 27.63687855 86.70281285 C27.66345419 90.01669656 27.6877977 93.33057242 27.70907402 96.64449501 C27.73309978 100.34157964 27.76315705 104.03856847 27.79467773 107.7355957 C27.80331093 109.38852379 27.80331093 109.38852379 27.81211853 111.07484436 C27.82190735 112.08025269 27.83169617 113.08566101 27.84178162 114.12153625 C27.84823417 114.9963178 27.85468672 115.87109934 27.8613348 116.77238941 C27.91511178 119.17313022 27.91511178 119.17313022 29 122 C33.07074692 122.97697926 35.24259638 123.3709732 39.0625 121.5 C45.21552348 116.51650583 45.21552348 116.51650583 48.55794907 109.57476997 C48.77686151 106.67627156 48.80770237 103.83070744 48.77294922 100.92407227 C48.78357895 99.83065018 48.79420868 98.73722809 48.80516052 97.610672 C48.83316825 94.01211257 48.81916228 90.41502442 48.8046875 86.81640625 C48.8159395 84.31533021 48.82982095 81.81426474 48.84622192 79.31321716 C48.87858225 73.41302804 48.88451002 67.51327991 48.87749684 61.61301607 C48.87035465 54.23212005 48.9044937 46.8515099 48.9375 39.47070312 C48.99136453 26.3136979 49.00442182 13.15711488 49 0 C57.91 0 66.82 0 76 0 C76 48.51 76 97.02 76 147 C67.09 147 58.18 147 49 147 C48.67 142.71 48.34 138.42 48 134 C46.55625 135.381875 45.1125 136.76375 43.625 138.1875 C35.58791267 145.43686144 27.45237738 149.42138112 16.6015625 149.27734375 C11.0129028 148.6815557 7.26287519 146.46227653 3.625 142.25 C-0.33210608 134.33578784 -0.27923032 126.74673567 -0.22705078 118.06640625 C-0.22734283 116.78752029 -0.22763489 115.50863434 -0.22793579 114.19099426 C-0.22850658 110.70598478 -0.21679694 107.22111466 -0.20278788 103.73613739 C-0.19023459 100.08598041 -0.18910641 96.43581977 -0.18673706 92.78564453 C-0.18053575 85.88330832 -0.1641433 78.98103591 -0.14403808 72.07872772 C-0.12163696 64.21654843 -0.11067508 56.354366 -0.10064721 48.4921627 C-0.07977578 32.32806529 -0.04311653 16.16405571 0 0 Z " fill="#ffffff" transform="translate(299,49)"/>
<path d="M0 0 C11.38781253 8.36420863 16.27972244 17.44725259 18.5234375 31.2109375 C19.34005229 37.94824828 19.18565523 44.75461473 19.203125 51.53125 C19.20736607 52.64870857 19.20736607 52.64870857 19.21169281 53.78874207 C19.22662471 57.73644353 19.23589029 61.68410906 19.24023438 65.63183594 C19.24569025 69.66130553 19.26967413 73.69043233 19.29820633 77.71979523 C19.3170523 80.86011642 19.32204995 84.00035891 19.32357025 87.14073181 C19.32655141 88.62354899 19.33442109 90.10636637 19.34775543 91.58912659 C19.45945161 104.97148857 19.16404673 119.79762907 11 131 C10.319375 131.94939453 10.319375 131.94939453 9.625 132.91796875 C3.5227062 140.69507688 -4.36291366 144.35803247 -14 146 C-25.04106505 147.12748111 -35.83555782 145.41256069 -44.9375 138.75 C-54.59319875 130.38526463 -58.45546524 120.58038382 -60 108 C-60.10165585 105.52620566 -60.15778938 103.05027048 -60.17700195 100.57446289 C-60.18357315 99.8676236 -60.19014435 99.1607843 -60.19691467 98.43252563 C-60.21648561 96.1125677 -60.22827811 93.79267421 -60.23828125 91.47265625 C-60.24235678 90.67160398 -60.2464323 89.87055172 -60.25063133 89.04522514 C-60.27143024 84.79927715 -60.2857546 80.55336081 -60.29516602 76.30737305 C-60.30617586 71.96727241 -60.34053017 67.62769215 -60.38033772 63.28777409 C-60.40675162 59.9115467 -60.41487985 56.53543831 -60.41844749 53.15911674 C-60.42325528 51.56184846 -60.43469833 49.96458332 -60.45348549 48.36741829 C-60.62627065 32.69586517 -59.02522342 17.81845595 -48 5.82421875 C-36.14126009 -5.75922899 -14.55114327 -8.74005868 0 0 Z M-28 23 C-34.05211537 29.05211537 -33.26933476 38.54748452 -33.30354309 46.47494507 C-33.3032816 47.97027614 -33.30234425 49.46560722 -33.30078125 50.9609375 C-33.30467557 52.51738599 -33.30901174 54.07383344 -33.31376648 55.63027954 C-33.32120063 58.88311212 -33.32095801 62.13583611 -33.31567383 65.38867188 C-33.30988481 69.53309917 -33.32680992 73.67707874 -33.3500185 77.82143211 C-33.36483423 81.03358508 -33.36561692 84.24563217 -33.36250877 87.45781326 C-33.36301812 88.98465486 -33.36818223 90.51150299 -33.37832069 92.038311 C-33.77054577 105.54392156 -33.77054577 105.54392156 -28.72505188 117.70663452 C-26.14617796 120.18640204 -23.99333329 121.00119048 -20.5 121.625 C-15.99060066 120.81975012 -14.11181192 119.32891508 -11 116 C-9.03478078 111.39925787 -8.70312285 107.12987124 -8.70947266 102.19384766 C-8.70275543 101.43528976 -8.69603821 100.67673187 -8.68911743 99.89518738 C-8.67020621 97.40141144 -8.66621685 94.90790557 -8.6640625 92.4140625 C-8.65763015 90.67060233 -8.65090146 88.92714324 -8.64389038 87.1836853 C-8.63193507 83.53388975 -8.62820779 79.88418874 -8.62939453 76.234375 C-8.6295977 71.57171229 -8.60228987 66.9096592 -8.56785011 62.24714088 C-8.54554671 58.64732105 -8.54155803 55.04764719 -8.54261398 51.44776535 C-8.54026343 49.72946445 -8.53147078 48.01115919 -8.51594925 46.29292679 C-8.16630369 34.0022231 -8.16630369 34.0022231 -13 23 C-18.57744781 19.28170146 -22.54109483 19.08078603 -28 23 Z " fill="#ffffff" transform="translate(259,52)"/>
<path d="M0 0 C4.01009457 2.35375116 5.73085022 4.55797578 7 9 C7.87340477 13.42283434 8.13623716 17.62675184 8.16113281 22.13183594 C8.16609772 22.81890625 8.17106262 23.50597656 8.17617798 24.21386719 C8.19069622 26.4707136 8.19758457 28.7274897 8.203125 30.984375 C8.20595238 31.76073555 8.20877975 32.5370961 8.21169281 33.33698273 C8.22664431 37.44633825 8.23589899 41.55565905 8.24023438 45.66503906 C8.24570998 49.88571996 8.26973024 54.10607681 8.29820633 58.32665634 C8.31693306 61.59369809 8.32204364 64.86066335 8.32357025 68.12775421 C8.32657521 69.68251566 8.3345298 71.23727646 8.34775543 72.79198456 C8.49989121 92.05187795 8.49989121 92.05187795 3.1875 99.5625 C0.25759039 101.48786917 -1.46795429 101.93335763 -5 102 C-10.36969254 100.86069132 -14.56596783 99.45530855 -18 95 C-18.40993793 92.03006713 -18.5775995 89.42685617 -18.56518555 86.45532227 C-18.5770137 85.59470184 -18.58884186 84.73408142 -18.60102844 83.84738159 C-18.63391745 81.00346366 -18.63687236 78.16050184 -18.63671875 75.31640625 C-18.64703218 73.33869535 -18.65809509 71.36098823 -18.6698761 69.38328552 C-18.68931367 65.23808951 -18.69272776 61.09323095 -18.6862793 56.94799805 C-18.68028012 51.63659214 -18.724528 46.32693202 -18.78216839 41.01588535 C-18.81914107 36.93144194 -18.82407213 32.84742055 -18.81989479 28.76283073 C-18.82276828 26.8047802 -18.83685595 24.84671276 -18.86237144 22.88882637 C-18.89432235 20.14937209 -18.88181199 17.41353438 -18.8581543 14.67407227 C-18.87703705 13.8661171 -18.8959198 13.05816193 -18.91537476 12.22572327 C-18.84786229 8.93868928 -18.79746564 6.85046397 -16.48975563 4.38938713 C-11.39778675 0.63324364 -6.37607434 -0.89663545 0 0 Z " fill="#ffffff" transform="translate(308,328)"/>
<path d="M0 0 C4.24009741 1.88448774 5.63966169 3.25036001 7.65234375 7.4375 C9.52704788 12.74071708 9.32863883 17.94104507 9.1875 23.5 C9.0946875 28.6975 9.0946875 28.6975 9 34 C0.09 34 -8.82 34 -18 34 C-18.50907656 9.90370955 -18.50907656 9.90370955 -13.78125 3.296875 C-9.79216159 -0.73653661 -5.27648108 -0.99288622 0 0 Z " fill="#ffffff" transform="translate(405,328)"/>
</svg>