<svg width="130" height="130" viewBox="0 0 130 130" fill="none" xmlns="http://www.w3.org/2000/svg">
<path d="M47.256 99.96C31.32 99.96 19.224 87.48 19.224 65.4C19.224 43.32 31.32 30.84 47.256 30.84C63.288 30.84 75.384 43.32 75.384 65.4C75.384 87.48 63.288 99.96 47.256 99.96ZM47.256 89.112C56.472 89.112 62.808 81.624 62.808 65.4C62.808 49.176 56.472 41.688 47.256 41.688C38.136 41.688 31.8 49.176 31.8 65.4C31.8 81.624 38.136 89.112 47.256 89.112ZM79.893 31.8H106.581V99H94.101V42.264H79.893V31.8Z" fill="#9C9C9C" fill-opacity="0.16"/>
</svg>
