<svg width="130" height="130" viewBox="0 0 130 130" fill="none" xmlns="http://www.w3.org/2000/svg">
<path d="M37.256 99.96C21.32 99.96 9.224 87.48 9.224 65.4C9.224 43.32 21.32 30.84 37.256 30.84C53.288 30.84 65.384 43.32 65.384 65.4C65.384 87.48 53.288 99.96 37.256 99.96ZM37.256 89.112C46.472 89.112 52.808 81.624 52.808 65.4C52.808 49.176 46.472 41.688 37.256 41.688C28.136 41.688 21.8 49.176 21.8 65.4C21.8 81.624 28.136 89.112 37.256 89.112ZM90.341 88.44H122.021V99H72.485V90.648L99.173 65.304C105.701 59.064 106.853 55.128 106.853 51.384C106.853 45.24 102.629 41.688 94.373 41.688C87.845 41.688 82.373 43.896 78.629 48.696L69.893 41.976C75.077 34.968 84.389 30.84 95.429 30.84C110.021 30.84 119.429 38.232 119.429 50.136C119.429 56.664 117.605 62.616 108.293 71.352L90.341 88.44Z" fill="#9C9C9C" fill-opacity="0.16"/>
</svg>
