<svg width="130" height="130" viewBox="0 0 130 130" fill="none" xmlns="http://www.w3.org/2000/svg">
<path d="M37.256 99.96C21.32 99.96 9.224 87.48 9.224 65.4C9.224 43.32 21.32 30.84 37.256 30.84C53.288 30.84 65.384 43.32 65.384 65.4C65.384 87.48 53.288 99.96 37.256 99.96ZM37.256 89.112C46.472 89.112 52.808 81.624 52.808 65.4C52.808 49.176 46.472 41.688 37.256 41.688C28.136 41.688 21.8 49.176 21.8 65.4C21.8 81.624 28.136 89.112 37.256 89.112ZM101.488 59.544C114.16 61.176 120.592 68.76 120.592 78.84C120.592 90.168 112.048 99.96 94.0002 99.96C84.4963 99.96 74.9922 97.08 68.7523 92.184L74.1283 82.488C78.9283 86.52 86.2243 89.112 93.8083 89.112C102.736 89.112 108.016 85.176 108.016 78.936C108.016 72.888 103.6 68.952 93.4243 68.952H87.2803V60.408L102.544 42.264H72.0163V31.8H117.808V40.152L101.488 59.544Z" fill="#9C9C9C" fill-opacity="0.16"/>
</svg>
