<svg width="130" height="130" viewBox="0 0 130 130" fill="none" xmlns="http://www.w3.org/2000/svg">
<path d="M32.256 99.96C16.32 99.96 4.224 87.48 4.224 65.4C4.224 43.32 16.32 30.84 32.256 30.84C48.288 30.84 60.384 43.32 60.384 65.4C60.384 87.48 48.288 99.96 32.256 99.96ZM32.256 89.112C41.472 89.112 47.808 81.624 47.808 65.4C47.808 49.176 41.472 41.688 32.256 41.688C23.136 41.688 16.8 49.176 16.8 65.4C16.8 81.624 23.136 89.112 32.256 89.112ZM128.722 73.176V83.736H116.818V99H104.722V83.736H67.8578V75.096L100.978 31.8H114.322L83.1218 73.176H105.106V59.64H116.818V73.176H128.722Z" fill="#9C9C9C" fill-opacity="0.16"/>
</svg>
