<svg width="130" height="130" viewBox="0 0 130 130" fill="none" xmlns="http://www.w3.org/2000/svg">
<path d="M37.256 99.96C21.32 99.96 9.224 87.48 9.224 65.4C9.224 43.32 21.32 30.84 37.256 30.84C53.288 30.84 65.384 43.32 65.384 65.4C65.384 87.48 53.288 99.96 37.256 99.96ZM37.256 89.112C46.472 89.112 52.808 81.624 52.808 65.4C52.808 49.176 46.472 41.688 37.256 41.688C28.136 41.688 21.8 49.176 21.8 65.4C21.8 81.624 28.136 89.112 37.256 89.112ZM94.8418 57.816C114.714 57.816 122.682 66.456 122.682 78.36C122.682 90.168 114.138 99.96 96.0898 99.96C86.5858 99.96 76.9858 97.08 70.8418 92.184L76.1218 82.488C81.0178 86.52 88.3138 89.112 95.8978 89.112C104.826 89.112 110.106 85.176 110.106 78.84C110.106 72.408 105.978 68.376 92.0578 68.376H75.8338L79.2898 31.8H118.746V42.264H89.8498L88.4098 57.816H94.8418Z" fill="#9C9C9C" fill-opacity="0.16"/>
</svg>
