<svg width="130" height="130" viewBox="0 0 130 130" fill="none" xmlns="http://www.w3.org/2000/svg">
<path d="M35.256 99.96C19.32 99.96 7.224 87.48 7.224 65.4C7.224 43.32 19.32 30.84 35.256 30.84C51.288 30.84 63.384 43.32 63.384 65.4C63.384 87.48 51.288 99.96 35.256 99.96ZM35.256 89.112C44.472 89.112 50.808 81.624 50.808 65.4C50.808 49.176 44.472 41.688 35.256 41.688C26.136 41.688 19.8 49.176 19.8 65.4C19.8 81.624 26.136 89.112 35.256 89.112ZM102.346 57.528C115.594 57.528 125.482 65.592 125.482 78.168C125.482 91.512 114.634 99.96 100.906 99.96C82.5698 99.96 71.8178 88.152 71.8178 66.552C71.8178 43.512 85.2578 30.84 104.746 30.84C111.466 30.84 117.898 32.28 122.41 35.16L117.802 44.568C114.154 42.168 109.738 41.304 105.034 41.304C92.3618 41.304 84.3938 49.176 84.3938 64.44V64.536C88.4258 59.832 94.8578 57.528 102.346 57.528ZM100.234 90.168C108.01 90.168 113.386 85.752 113.386 78.744C113.386 71.736 108.106 67.32 99.9458 67.32C91.8818 67.32 86.3138 72.216 86.3138 78.84C86.3138 85.176 91.3058 90.168 100.234 90.168Z" fill="#9C9C9C" fill-opacity="0.16"/>
</svg>
