<svg width="130" height="130" viewBox="0 0 130 130" fill="none" xmlns="http://www.w3.org/2000/svg">
<path d="M36.256 99.96C20.32 99.96 8.224 87.48 8.224 65.4C8.224 43.32 20.32 30.84 36.256 30.84C52.288 30.84 64.384 43.32 64.384 65.4C64.384 87.48 52.288 99.96 36.256 99.96ZM36.256 89.112C45.472 89.112 51.808 81.624 51.808 65.4C51.808 49.176 45.472 41.688 36.256 41.688C27.136 41.688 20.8 49.176 20.8 65.4C20.8 81.624 27.136 89.112 36.256 89.112ZM70.813 31.8H123.037V40.152L96.925 99H83.581L108.829 42.36H82.429V53.784H70.813V31.8Z" fill="#9C9C9C" fill-opacity="0.16"/>
</svg>
