<svg width="130" height="130" viewBox="0 0 130 130" fill="none" xmlns="http://www.w3.org/2000/svg">
<path d="M33.256 99.96C17.32 99.96 5.224 87.48 5.224 65.4C5.224 43.32 17.32 30.84 33.256 30.84C49.288 30.84 61.384 43.32 61.384 65.4C61.384 87.48 49.288 99.96 33.256 99.96ZM33.256 89.112C42.472 89.112 48.808 81.624 48.808 65.4C48.808 49.176 42.472 41.688 33.256 41.688C24.136 41.688 17.8 49.176 17.8 65.4C17.8 81.624 24.136 89.112 33.256 89.112ZM113.402 63.672C120.41 66.84 124.346 72.312 124.346 79.704C124.346 92.184 113.498 99.96 96.7938 99.96C80.0898 99.96 69.4338 92.184 69.4338 79.704C69.4338 72.312 73.2738 66.84 80.1858 63.672C74.8098 60.696 71.8338 55.896 71.8338 49.56C71.8338 38.04 81.9138 30.84 96.7938 30.84C111.77 30.84 121.946 38.04 121.946 49.56C121.946 55.896 118.874 60.696 113.402 63.672ZM96.7938 40.632C89.1138 40.632 84.1218 44.088 84.1218 50.136C84.1218 55.896 88.9218 59.544 96.7938 59.544C104.762 59.544 109.658 55.896 109.658 50.136C109.658 44.088 104.474 40.632 96.7938 40.632ZM96.7938 90.168C106.01 90.168 111.77 86.136 111.77 79.32C111.77 72.696 106.01 68.568 96.7938 68.568C87.5778 68.568 82.0098 72.696 82.0098 79.32C82.0098 86.136 87.5778 90.168 96.7938 90.168Z" fill="#9C9C9C" fill-opacity="0.16"/>
</svg>
