<svg width="26" height="29" viewBox="0 0 26 29" fill="none" xmlns="http://www.w3.org/2000/svg">
<path d="M17.3011 14.7798C19.9269 14.7798 22.0551 12.6516 22.0551 10.0258C22.0551 7.39997 19.9269 5.27181 17.3011 5.27181C14.6753 5.27181 12.5431 7.39997 12.5431 10.0258C12.5431 12.6516 14.6753 14.7798 17.3011 14.7798ZM18.9519 16.034H14.9181C11.5599 16.034 8.82892 18.765 8.82892 22.1232V27.0552L8.84106 27.132L9.18092 27.2372C12.3853 28.2366 15.1689 28.5724 17.4589 28.5724C21.9337 28.5724 24.5272 27.2979 24.685 27.217L25.0006 27.0552H25.0329V22.1191C25.041 18.765 22.31 16.034 18.9519 16.034ZM8.67113 9.9125C9.6017 9.9125 10.4675 9.64143 11.1998 9.18019C11.4345 7.65891 12.2477 6.33185 13.413 5.42555C13.417 5.33654 13.4251 5.24753 13.4251 5.15852C13.4292 2.53271 11.2969 0.404541 8.67113 0.404541C6.04532 0.404541 3.91715 2.53271 3.91715 5.15852C3.91715 7.78434 6.04532 9.9125 8.67113 9.9125ZM12.7818 14.9659C11.7056 13.9342 11.0259 12.4979 10.9733 10.9078C10.8236 10.8957 10.6779 10.8835 10.5282 10.8835H6.49442C3.13628 10.8835 0.405273 13.6145 0.405273 16.9727V21.9087L0.417411 21.9856L0.75727 22.0908C3.32644 22.8919 5.62049 23.2641 7.6111 23.3814V21.8885C7.61514 18.6194 9.7959 15.856 12.7818 14.9659Z" stroke="white" stroke-width="0.854518" stroke-miterlimit="10"/>
</svg>
