<svg width="13" height="17" viewBox="0 0 13 17" fill="none" xmlns="http://www.w3.org/2000/svg">
<path d="M12.0582 4.36072C12.0582 4.9168 11.6095 5.3655 11.0535 5.3655H10.0352C9.86091 7.97791 7.67741 10.0543 5.02481 10.0543H3.81908L9.01031 14.3011C9.4389 14.6493 9.5061 15.2858 9.15097 15.7144C8.95002 15.9555 8.66209 16.0827 8.37384 16.0827C8.15279 16.0827 7.92515 16.0089 7.73738 15.855L0.368932 9.82638C0.0408099 9.55855 -0.0866709 9.10954 0.0609054 8.70763C0.201888 8.30603 0.583702 8.0382 1.00571 8.0382H5.02481C6.57216 8.0382 7.85168 6.86607 8.01903 5.3589H1.00571C0.449628 5.3589 0.000932886 4.91021 0.000932886 4.35413C0.000932886 3.79805 0.449628 3.34935 1.00571 3.34935H7.52983C6.98726 2.53863 6.06977 2.00955 5.02481 2.00955H1.00571C0.449628 2.00955 0.000932886 1.56085 0.000932886 1.00477C0.000932886 0.448695 0.449628 0 1.00571 0H11.0535C11.6095 0 12.0582 0.448695 12.0582 1.00477C12.0582 1.56085 11.6095 2.00955 11.0535 2.00955H9.0439C9.34534 2.41146 9.59307 2.86706 9.76734 3.34935H11.06C11.6161 3.34935 12.0648 3.79805 12.0648 4.35413L12.0582 4.36072Z" fill="#005DA9"/>
</svg>
