<svg width="19" height="22" viewBox="0 0 19 22" fill="none" xmlns="http://www.w3.org/2000/svg">
<g clip-path="url(#clip0_103_300)">
<path fill-rule="evenodd" clip-rule="evenodd" d="M16.8665 21.23H4.6521C4.56564 21.23 4.48954 21.1919 4.44112 21.1435C4.39097 21.0934 4.35466 21.0069 4.35466 20.9325L4.37887 17.6571C4.37887 17.2213 4.02954 16.8858 3.59374 16.8858H0.320073C0.145408 16.8858 0.00878906 16.7492 0.00878906 16.5746V3.28794C0.00878906 2.51665 0.631356 1.89408 1.39054 1.89408H3.86871C4.04337 1.89408 4.17999 2.0307 4.17999 2.20537C4.17999 2.38003 4.04337 2.51665 3.86871 2.51665H1.39054C0.954746 2.51665 0.605416 2.87809 0.605416 3.31388V16.2737H3.59374C4.35293 16.2737 4.97549 16.8962 4.97549 17.6554L4.96339 20.6437H16.8665C17.3023 20.6437 17.6638 20.2944 17.6638 19.8586V3.28794C17.6638 2.86425 17.3023 2.50282 16.8665 2.50282H14.3901C14.2154 2.50282 14.0788 2.3662 14.0788 2.19153C14.0788 2.01687 14.2154 1.88025 14.3901 1.88025H16.8562C17.6274 1.88025 18.25 2.50282 18.25 3.27411V19.8344C18.25 20.6074 17.6274 21.23 16.8665 21.23ZM11.7753 2.50282H6.48349C6.30883 2.50282 6.17221 2.3662 6.17221 2.19153C6.17221 2.01687 6.30883 1.88025 6.48349 1.88025H11.7753C11.95 1.88025 12.0866 2.01687 12.0866 2.19153C12.0866 2.3662 11.9482 2.50282 11.7753 2.50282Z" fill="#005DA9"/>
<path fill-rule="evenodd" clip-rule="evenodd" d="M4.65145 21.2297C4.57709 21.2297 4.48889 21.1917 4.44047 21.1433L0.0946058 16.7715C-0.0299077 16.6591 -0.0299077 16.4602 0.0946058 16.3478C0.207014 16.2233 0.40589 16.2233 0.518297 16.3478L4.87627 20.7058C4.98868 20.8303 4.98868 21.017 4.87627 21.1415C4.80191 21.1917 4.71371 21.2297 4.65145 21.2297Z" fill="#005DA9"/>
<path fill-rule="evenodd" clip-rule="evenodd" d="M15.5582 6.25001H2.69703C2.52236 6.25001 2.38574 6.10128 2.38574 5.93872C2.38574 5.76406 2.52236 5.62744 2.69703 5.62744H15.56C15.7346 5.62744 15.8712 5.76406 15.8712 5.93872C15.8695 6.10128 15.7329 6.25001 15.5582 6.25001Z" fill="#005DA9"/>
<path fill-rule="evenodd" clip-rule="evenodd" d="M15.5582 8.49098H2.69703C2.52236 8.49098 2.38574 8.35436 2.38574 8.17969C2.38574 8.00503 2.52236 7.86841 2.69703 7.86841H15.56C15.7346 7.86841 15.8712 8.00503 15.8712 8.17969C15.8712 8.35436 15.7329 8.49098 15.5582 8.49098Z" fill="#005DA9"/>
<path fill-rule="evenodd" clip-rule="evenodd" d="M15.5582 10.7324H2.69703C2.52236 10.7324 2.38574 10.5958 2.38574 10.4211C2.38574 10.2465 2.52236 10.1099 2.69703 10.1099H15.56C15.7346 10.1099 15.8712 10.2465 15.8712 10.4211C15.8712 10.5958 15.7329 10.7324 15.5582 10.7324Z" fill="#005DA9"/>
<path fill-rule="evenodd" clip-rule="evenodd" d="M15.5582 12.9996H2.69703C2.52236 12.9996 2.38574 12.863 2.38574 12.6884C2.38574 12.5137 2.52236 12.3771 2.69703 12.3771H15.56C15.7346 12.3771 15.8712 12.5137 15.8712 12.6884C15.8695 12.863 15.7329 12.9996 15.5582 12.9996Z" fill="#005DA9"/>
<path fill-rule="evenodd" clip-rule="evenodd" d="M15.5586 15.2409H6.04712C5.87246 15.2409 5.73584 15.1042 5.73584 14.9296C5.73584 14.7549 5.87246 14.6183 6.04712 14.6183H15.5603C15.735 14.6183 15.8716 14.7549 15.8716 14.9296C15.8699 15.1042 15.7332 15.2409 15.5586 15.2409Z" fill="#005DA9"/>
<path fill-rule="evenodd" clip-rule="evenodd" d="M15.5586 17.4823H6.04712C5.87246 17.4823 5.73584 17.3457 5.73584 17.171C5.73584 16.9964 5.87246 16.8597 6.04712 16.8597H15.5603C15.735 16.8597 15.8716 16.9964 15.8716 17.171C15.8699 17.3457 15.7332 17.4823 15.5586 17.4823Z" fill="#005DA9"/>
<path fill-rule="evenodd" clip-rule="evenodd" d="M5.86034 4.22135H4.49069C3.99264 4.22135 3.58105 3.80977 3.58105 3.31171V0.933851C3.58105 0.411586 3.99264 0 4.49069 0H5.86034C6.3584 0 6.76998 0.411586 6.76998 0.933851V3.2875C6.76825 3.80977 6.3584 4.22135 5.86034 4.22135ZM4.49069 0.598356C4.31603 0.598356 4.17941 0.760916 4.17941 0.933851V3.2875C4.17941 3.46217 4.31603 3.59879 4.49069 3.59879H5.86034C6.03501 3.59879 6.17163 3.46217 6.17163 3.2875V0.933851C6.17163 0.759186 6.00907 0.598356 5.86034 0.598356H4.49069Z" fill="#005DA9"/>
<path fill-rule="evenodd" clip-rule="evenodd" d="M13.7669 4.22135H12.4215C11.8992 4.22135 11.4998 3.8236 11.4998 3.31171V0.933851C11.4998 0.411586 11.9113 0 12.4215 0H13.7669C14.2771 0 14.7008 0.411586 14.7008 0.933851V3.2875C14.7008 3.80977 14.265 4.22135 13.7669 4.22135ZM12.3973 0.598356C12.2226 0.598356 12.086 0.734975 12.086 0.933851V3.2875C12.086 3.48638 12.2226 3.59879 12.3973 3.59879H13.7427C13.9416 3.59879 14.0782 3.46217 14.0782 3.2875V0.933851C14.0782 0.759186 13.9157 0.598356 13.7427 0.598356H12.3973Z" fill="#005DA9"/>
</g>
<defs>
<clipPath id="clip0_103_300">
<rect width="18.2481" height="21.2295" fill="white"/>
</clipPath>
</defs>
</svg>
