<svg width="13" height="19" viewBox="0 0 13 19" fill="none" xmlns="http://www.w3.org/2000/svg">
<g clip-path="url(#clip0_103_282)">
<path d="M12.5105 5.9872C12.4442 4.41763 11.7715 2.97734 10.724 1.90236C9.67875 0.827383 8.25561 0.119629 6.69215 0.0143809C2.96081 -0.239968 -0.000244141 2.739 -0.000244141 6.25718C-0.000244141 7.93429 0.654504 9.50957 1.84083 10.6921C2.59129 11.4387 3.07788 12.3905 3.23422 13.3912C2.69464 13.4457 2.3194 13.8915 2.3194 14.3998C2.3194 14.7399 2.48757 15.0408 2.74345 15.2265C2.46012 15.4336 2.3194 15.7329 2.3194 16.0513C2.3194 16.6142 2.77662 17.0737 3.33985 17.0737H3.83444L5.00513 18.2425C5.69687 18.9365 6.81875 18.9365 7.51087 18.2425L8.67966 17.0737H9.17424C9.739 17.0737 10.1966 16.6165 10.1966 16.0513C10.1966 15.7112 10.0265 15.4122 9.77065 15.2265C10.0559 15.0195 10.1966 14.7163 10.1966 14.3998C10.1966 13.8739 9.792 13.4442 9.27987 13.3912C9.42821 12.3787 9.89344 11.4502 10.6088 10.7565C11.8931 9.51339 12.5849 7.77374 12.5105 5.9872ZM5.19275 9.56982H4.81942C4.54982 9.56982 4.33094 9.35094 4.33094 9.08134C4.33094 8.84491 4.52427 8.65119 4.76299 8.65119C4.99941 8.65119 5.19313 8.84453 5.19313 9.08134L5.19275 9.56982ZM5.584 13.3793V9.96107H6.93048V13.3793H5.584ZM8.881 13.3793H7.32135V9.96107H7.69658C8.18125 9.96107 8.57403 9.56639 8.57403 9.08134C8.57403 8.62793 8.20642 8.26032 7.75302 8.26032C7.29961 8.26032 6.9301 8.62755 6.9301 9.08134V9.56982H5.58361V9.08134C5.58361 8.62793 5.21601 8.26032 4.7626 8.26032C4.3092 8.26032 3.93969 8.62755 3.93969 9.08134C3.93969 9.56601 4.33437 9.96107 4.81942 9.96107H5.19275V13.3793H3.63119C3.47103 12.2788 2.93945 11.2332 2.11844 10.4145C1.00457 9.30632 0.390622 7.83056 0.390622 6.25718C0.390622 2.94035 3.1816 0.170727 6.6666 0.403341C9.60019 0.600871 11.9946 3.06161 12.1197 6.00321C12.1902 7.68032 11.5412 9.31013 10.3373 10.4751C9.54757 11.2389 9.03544 12.2651 8.881 13.3793ZM7.32135 9.56982V9.08134C7.32135 8.84491 7.51507 8.65119 7.7534 8.65119C7.98982 8.65119 8.18354 8.84453 8.18354 9.08134C8.18354 9.35094 7.96466 9.56982 7.69696 9.56982H7.32135Z" fill="#005DA9"/>
</g>
<defs>
<clipPath id="clip0_103_282">
<rect width="12.5165" height="18.7635" fill="white"/>
</clipPath>
</defs>
</svg>
