<svg width="17" height="24" viewBox="0 0 17 24" fill="none" xmlns="http://www.w3.org/2000/svg">
<g clip-path="url(#clip0_103_288)">
<path d="M8.48869 14.6613C11.8976 14.6613 14.6614 11.8975 14.6614 8.48857C14.6614 5.07961 11.8981 2.31628 8.48869 2.31628C5.07928 2.31628 2.31641 5.07961 2.31641 8.48857C2.32048 11.8962 5.08155 14.6572 8.48869 14.6613ZM4.06248 11.5752H5.47082C5.67743 12.2601 6.0007 12.9044 6.42704 13.479C5.47398 13.0821 4.65384 12.4215 4.06248 11.5752ZM13.8702 8.10291H11.9501C11.9311 7.45413 11.852 6.8085 11.7145 6.17373H13.3616C13.6505 6.77957 13.8232 7.43378 13.8702 8.10291ZM8.10303 11.5752V13.8253C7.36473 13.6029 6.71414 12.7597 6.2896 11.5752H8.10303ZM6.06218 10.8034C5.90937 10.1709 5.82121 9.52482 5.79815 8.87422H8.10303V10.8034H6.06218ZM8.87479 13.8253V11.5752H10.6882C10.2637 12.7597 9.6131 13.6029 8.87479 13.8253ZM8.87479 10.8034V8.87422H11.1797C11.1571 9.52436 11.0685 10.1709 10.9156 10.8034H8.87479ZM11.9501 8.87467H13.8702C13.8232 9.5438 13.6505 10.198 13.3616 10.8039H11.7145C11.852 10.1691 11.9311 9.52346 11.9501 8.87467ZM11.1788 8.10291H8.87479V6.17373H10.9156C11.0685 6.80624 11.1566 7.45232 11.1797 8.10291H11.1788ZM8.87479 5.40243V3.15225C9.6131 3.37469 10.2637 4.21788 10.6882 5.40243H8.87479ZM8.10303 3.15225V5.40243H6.2896C6.71414 4.21743 7.36473 3.37469 8.10303 3.15225ZM8.10303 6.17419V8.10336H5.79815C5.82075 7.45322 5.90937 6.8067 6.06218 6.17419H8.10303ZM5.02774 8.10291H3.10761C3.15463 7.43378 3.32734 6.77957 3.61624 6.17373H5.2633C5.1254 6.8085 5.04673 7.45413 5.02774 8.10291ZM5.02774 8.87467C5.04673 9.52346 5.12585 10.1691 5.2633 10.8039H3.61624C3.32734 10.1985 3.15463 9.54426 3.10761 8.87467H5.02774ZM10.5503 13.479C10.9767 12.9044 11.3004 12.2601 11.5066 11.5752H12.9149C12.324 12.4215 11.5038 13.0821 10.5503 13.479ZM12.9149 5.40243H11.507C11.3004 4.71747 10.9771 4.07321 10.5508 3.49857C11.5038 3.89552 12.324 4.55607 12.9149 5.40243ZM6.42704 3.49857C6.0007 4.07321 5.67698 4.71747 5.47082 5.40243H4.06248C4.65384 4.55607 5.47398 3.89552 6.42704 3.49857Z" fill="#005DA9"/>
<path d="M0.167319 7.89825C-0.0551219 8.2604 -0.0551219 8.71658 0.167319 9.07873L0.677305 9.91604C0.721613 9.98929 0.738793 10.0761 0.725682 10.1611L0.573771 11.1277C0.506858 11.5486 0.681826 11.9714 1.02724 12.2209L1.81799 12.796C1.88762 12.8467 1.9369 12.9204 1.95679 13.004L2.18828 13.9552C2.26694 14.2767 2.48305 14.5475 2.77919 14.6949L0.817009 20.317C0.728846 20.5711 0.776319 20.8532 0.943601 21.0639C1.11043 21.275 1.37402 21.3862 1.64167 21.3586L4.52978 21.0706L6.72887 22.9564C6.87038 23.0798 7.05168 23.1481 7.23931 23.1486C7.59241 23.1481 7.90256 22.9121 7.9966 22.5717L8.48896 20.7953L8.98176 22.5771C9.07761 22.9157 9.38731 23.149 9.73906 23.149C9.92623 23.1486 10.1075 23.0812 10.249 22.9587L12.4581 21.0684L15.3349 21.3614C15.603 21.3894 15.8666 21.2786 16.0339 21.0675C16.2011 20.8563 16.2491 20.5742 16.1605 20.3197L14.1987 14.6954C14.4958 14.5484 14.7128 14.2776 14.7914 13.9552L15.0229 13.004C15.0428 12.9204 15.0921 12.8467 15.1617 12.796L15.9529 12.2209C16.2979 11.9709 16.4733 11.5482 16.4064 11.1277L16.2522 10.1606C16.2391 10.0761 16.2563 9.98974 16.3006 9.9165L16.8106 9.07963C17.033 8.71749 17.033 8.2613 16.8106 7.89916L16.3006 7.06184C16.2563 6.9886 16.2391 6.90179 16.2522 6.81679L16.4041 5.85017C16.4711 5.42925 16.2961 5.00652 15.9507 4.75695L15.1599 4.18141C15.0903 4.13077 15.041 4.05708 15.0211 3.97344L14.7896 3.02218C14.6906 2.6094 14.3683 2.28705 13.9555 2.18758L13.0038 1.9561C12.9201 1.9362 12.8464 1.88647 12.7958 1.81684L12.2207 1.02609C11.9702 0.681582 11.548 0.506614 11.1275 0.573075L10.1631 0.724985C10.0781 0.737645 9.99134 0.720464 9.91764 0.676609L9.07897 0.167075C8.71682 -0.0553661 8.26064 -0.0553661 7.8985 0.167075L7.06118 0.676609C6.98748 0.720916 6.90068 0.738097 6.81568 0.725438L5.85132 0.573075C5.43085 0.506614 5.00812 0.681582 4.75855 1.02655L4.18346 1.8173C4.13282 1.88692 4.05913 1.9362 3.97549 1.9561L3.02379 2.18758C2.61055 2.28659 2.28774 2.60986 2.18873 3.02309L1.95724 3.97434C1.93735 4.05798 1.88807 4.13168 1.81844 4.18231L1.02724 4.7574C0.682279 5.00742 0.506858 5.43015 0.573771 5.85062L0.726134 6.8177C0.739245 6.90224 0.722065 6.9886 0.677757 7.06184L0.167319 7.89825ZM7.23163 22.3727L5.03253 20.4874C4.86932 20.3459 4.65547 20.2776 4.44026 20.2989L1.54492 20.5688L3.52066 14.9088L3.97278 15.0182C4.05642 15.0381 4.13011 15.0878 4.18075 15.1574L4.75584 15.9482C5.00631 16.2927 5.42859 16.4677 5.84906 16.4012L6.81342 16.2493C6.89842 16.2362 6.98522 16.2533 7.05892 16.2977L7.28 16.4324L8.08612 19.3449L7.23163 22.3727ZM12.5395 20.2989C12.3243 20.2758 12.1095 20.3436 11.9463 20.4861L9.72278 22.3655L8.22311 16.9401C8.51382 17.0174 8.82398 16.9704 9.07852 16.8099L9.91583 16.3004C9.98908 16.2556 10.0763 16.238 10.1613 16.2515L11.1257 16.4057C11.5462 16.4731 11.9689 16.2977 12.2185 15.9522L12.7936 15.1615C12.8442 15.0919 12.9179 15.0426 13.0015 15.0227L13.4527 14.9137L15.4122 20.5946L12.5395 20.2989ZM0.827408 8.30109L1.33739 7.46467C1.4771 7.23545 1.53135 6.96373 1.48976 6.69788L1.33604 5.72991C1.31434 5.59563 1.36995 5.46044 1.48026 5.38042L2.27146 4.80533C2.48893 4.64709 2.6431 4.41651 2.70685 4.15519L2.93834 3.20348C2.96998 3.07147 3.07352 2.96838 3.20554 2.93673L4.15724 2.70525C4.41856 2.64196 4.64914 2.48778 4.80738 2.27032L5.38247 1.47911C5.46204 1.36835 5.59768 1.31274 5.73196 1.33444L6.69632 1.48861C6.96216 1.53066 7.23389 1.4764 7.46311 1.33625L8.29952 0.826259C8.41526 0.755729 8.56084 0.755729 8.67704 0.826259L9.51345 1.33579C9.74313 1.4755 10.0148 1.5293 10.2802 1.4877L11.2446 1.33534C11.3793 1.31454 11.5141 1.37061 11.5945 1.48047L12.1696 2.27122C12.3279 2.48869 12.5585 2.64286 12.8198 2.70661L13.7715 2.93809C13.9039 2.96974 14.007 3.07282 14.0387 3.20484L14.2684 4.15564C14.3316 4.41741 14.4858 4.64799 14.7037 4.80668L15.4945 5.38178C15.6048 5.4618 15.6604 5.59698 15.6387 5.73126L15.4873 6.69562C15.4452 6.96147 15.4995 7.23319 15.6392 7.46286L16.1492 8.29928C16.2201 8.41502 16.2201 8.56105 16.1492 8.6768L15.6392 9.51321C15.4995 9.74243 15.4452 10.0142 15.4868 10.28L15.6387 11.2466C15.6604 11.3809 15.6048 11.5161 15.4945 11.5961L14.7033 12.1712C14.4858 12.3294 14.3316 12.56 14.2679 12.8213L14.0364 13.773C14.0048 13.9051 13.9012 14.0081 13.7692 14.0398L12.8175 14.2713C12.5562 14.3346 12.3256 14.4887 12.1674 14.7062L11.5923 15.4974C11.5123 15.6077 11.3771 15.6633 11.2428 15.6421L10.2784 15.4897C10.013 15.4486 9.74132 15.5024 9.51164 15.6421L8.67523 16.1521C8.55949 16.2226 8.41391 16.2226 8.29771 16.1521L7.46266 15.6407C7.28452 15.5327 7.08017 15.4753 6.87219 15.4753C6.81297 15.4753 6.75419 15.4798 6.69587 15.4888L5.73151 15.6412C5.59678 15.6624 5.46159 15.6064 5.38157 15.4961L4.80648 14.7053C4.64824 14.4878 4.41766 14.3337 4.15633 14.2699L3.20463 14.0384C3.07216 14.0068 2.96908 13.9037 2.93743 13.7717L2.70595 12.8209C2.64265 12.5591 2.48848 12.3285 2.27056 12.1698L1.47981 11.5947C1.36949 11.5147 1.31388 11.3795 1.33559 11.2453L1.48704 10.2809C1.52909 10.0151 1.47529 9.74334 1.33513 9.51366L0.825147 8.67725C0.754165 8.56151 0.754617 8.41547 0.825599 8.29973L0.827408 8.30109Z" fill="#005DA9"/>
</g>
<rect x="0.0226058" y="0.0226058" width="16.9313" height="23.1031" stroke="#005DA9" stroke-width="0.0452116"/>
<defs>
<clipPath id="clip0_103_288">
<rect width="16.9765" height="23.1483" fill="white"/>
</clipPath>
</defs>
</svg>
