<svg width="103" height="35" viewBox="0 0 103 35" fill="none" xmlns="http://www.w3.org/2000/svg">
<g clip-path="url(#clip0_14567_1198)">
<path d="M23.7988 18.598C23.7566 14.1692 27.417 12.0413 27.5817 11.94C25.5214 8.92973 22.3211 8.51598 21.1812 8.46954C18.4581 8.19089 15.8658 10.0739 14.481 10.0739C13.0962 10.0739 10.9641 8.50754 8.70534 8.55398C5.73309 8.5962 2.99304 10.2808 1.46047 12.9406C-1.62156 18.2856 0.675184 26.2229 3.68544 30.5672C5.1589 32.6909 6.90679 35.0847 9.21198 34.9961C11.4327 34.9074 12.2687 33.5606 14.9454 33.5606C17.6221 33.5606 18.3778 34.9961 20.721 34.9539C23.1064 34.9074 24.6179 32.7838 26.0787 30.6517C27.759 28.1818 28.4556 25.7964 28.4979 25.6698C28.443 25.6487 23.8495 23.8881 23.7988 18.598Z" fill="black"/>
<path d="M19.3949 5.58987C20.6193 4.10796 21.4426 2.05187 21.2188 0C19.4583 0.0717732 17.3262 1.1737 16.0638 2.65561C14.9323 3.96442 13.9402 6.0585 14.2104 8.06815C16.1652 8.22015 18.1748 7.06755 19.3949 5.58987ZM39.2381 22.9505L37.2116 29.0935H34.6067L41.2393 9.57117H44.2792L50.9372 29.0935H48.2436L46.1579 22.9505H39.2381ZM45.6386 20.9789L43.7303 15.3595C43.2954 14.0844 43.0083 12.9276 42.717 11.7961H42.6621C42.3708 12.953 42.0542 14.1393 41.6784 15.3299L39.7701 20.9747L45.6386 20.9789ZM52.913 19.649C52.913 17.8546 52.8582 16.4023 52.7948 15.0724H55.0831L55.2013 17.4789H55.2562C56.2991 15.769 57.9498 14.7557 60.2381 14.7557C63.6284 14.7557 66.1742 17.6224 66.1742 21.8824C66.1742 26.9234 63.1048 29.4101 59.8033 29.4101C57.9498 29.4101 56.3286 28.5995 55.4884 27.2105H55.4336V34.8269H52.913V19.649ZM55.4293 23.3854C55.4293 23.7654 55.4842 24.1074 55.5475 24.4282C56.012 26.193 57.5445 27.4131 59.3726 27.4131C62.0662 27.4131 63.6326 25.2135 63.6326 21.9964C63.6326 19.1846 62.1549 16.7865 59.4613 16.7865C57.7261 16.7865 56.1048 18.032 55.6067 19.9445C55.518 20.2612 55.4336 20.6411 55.4336 20.9873L55.4293 23.3854ZM68.8087 19.649C68.8087 17.8546 68.7538 16.4023 68.6905 15.0724H70.9788L71.097 17.4789H71.1519C72.1947 15.769 73.8455 14.7557 76.1338 14.7557C79.524 14.7557 82.0699 17.6224 82.0699 21.8824C82.0699 26.9234 79.0005 29.4101 75.6989 29.4101C73.8455 29.4101 72.2243 28.5995 71.3841 27.2105H71.3292V34.8269H68.8087V19.649ZM71.3292 23.3854C71.3292 23.7654 71.3841 24.1074 71.4474 24.4282C71.9118 26.193 73.4444 27.4131 75.2725 27.4131C77.9661 27.4131 79.5325 25.2135 79.5325 21.9964C79.5325 19.1846 78.0548 16.7865 75.3612 16.7865C73.626 16.7865 72.0047 18.032 71.5065 19.9445C71.4179 20.2612 71.3334 20.6411 71.3334 20.9873L71.3292 23.3854ZM84.7086 8.52835H87.2587V29.0893H84.7086V8.52835ZM92.3841 22.5452C92.439 25.9904 94.6428 27.4131 97.1887 27.4131C99.0126 27.4131 100.114 27.0965 101.069 26.6912L101.504 28.5151C100.608 28.9204 99.0717 29.3848 96.8425 29.3848C92.5276 29.3848 89.948 26.5476 89.948 22.3172C89.948 18.0869 92.439 14.7557 96.5216 14.7557C101.098 14.7557 102.314 18.7793 102.314 21.3589C102.314 21.8824 102.259 22.2835 102.225 22.5452H92.3841ZM99.857 20.7214C99.8865 19.1001 99.1899 16.5796 96.3232 16.5796C93.7436 16.5796 92.6163 18.9566 92.4137 20.7214H99.857Z" fill="black"/>
</g>
<defs>
<clipPath id="clip0_14567_1198">
<rect width="102.319" height="35" fill="white" transform="translate(-0.000488281)"/>
</clipPath>
</defs>
</svg>
