<svg width="116" height="25" viewBox="0 0 116 25" fill="none" xmlns="http://www.w3.org/2000/svg">
<g clip-path="url(#clip0_14567_1210)">
<path d="M109 20.2098C109 18.5256 110.368 17.1592 112.051 17.1592C113.736 17.1592 115.101 18.5256 115.101 20.2098C115.101 21.8941 113.736 23.2597 112.051 23.2597C110.368 23.2597 109 21.8941 109 20.2098Z" fill="#86BC24"/>
<path d="M11.7084 12.131C11.7084 10.1987 11.3351 8.76512 10.5884 7.83113C9.8406 6.89819 8.70821 6.43211 7.18535 6.43211H5.56569V18.2483H6.80503C8.49628 18.2483 9.73561 17.7467 10.5248 16.7405C11.313 15.7361 11.7084 14.1992 11.7084 12.131ZM17.485 11.9296C17.485 15.45 16.5388 18.1626 14.6462 20.0666C12.7536 21.9715 10.0932 22.9239 6.66366 22.9239H0V1.82963H7.12896C10.4356 1.82963 12.9884 2.69566 14.7874 4.42667C16.5856 6.15859 17.485 8.65844 17.485 11.9298M35.9435 22.9238H41.246V1.74101H35.9435V22.9238ZM48.6951 15.0225C48.6951 16.373 48.8715 17.4032 49.2239 18.1111C49.577 18.82 50.1683 19.1739 50.9998 19.1739C51.8225 19.1739 52.4043 18.82 52.7433 18.1111C53.0821 17.4032 53.2508 16.373 53.2508 15.0225C53.2508 13.6789 53.0795 12.6655 52.7362 11.9816C52.3919 11.2955 51.8049 10.9522 50.9725 10.9522C50.1586 10.9522 49.577 11.2939 49.2238 11.9735C48.8717 12.6541 48.6951 13.6701 48.6951 15.0225ZM58.6477 15.0225C58.6477 17.5956 57.9733 19.603 56.6209 21.0418C55.2696 22.4815 53.3779 23.2018 50.946 23.2018C48.6139 23.2018 46.7575 22.4656 45.3795 20.9932C43.9998 19.5209 43.3104 17.5311 43.3104 15.0226C43.3104 12.4573 43.9858 10.464 45.3381 9.04292C46.6903 7.62168 48.5865 6.91118 51.028 6.91118C52.5367 6.91118 53.8714 7.24044 55.0277 7.89805C56.1849 8.55553 57.0783 9.49757 57.7059 10.7246C58.3344 11.9497 58.6477 13.3833 58.6477 15.0225ZM60.7536 22.9238H66.0569V7.18925H60.7536V22.9238ZM60.7533 5.28594H66.0568V1.74023H60.7533V5.28594ZM76.8014 18.9105C77.5173 18.9105 78.37 18.7286 79.3648 18.3677V22.3267C78.6497 22.6409 77.97 22.8659 77.3238 22.9993C76.6778 23.1344 75.9195 23.2014 75.0518 23.2014C73.2713 23.2014 71.9879 22.7539 71.1996 21.8605C70.4147 20.9673 70.0212 19.5956 70.0212 17.7445V11.2581H68.1638V7.19068H70.0212V3.17239L75.3652 2.24296V7.19055H78.7487V11.2582H75.3652V17.3825C75.3652 18.4012 75.8445 18.9105 76.8014 18.9105ZM89.0753 18.9105C89.7912 18.9105 90.644 18.7286 91.6388 18.3677V22.3267C90.9247 22.6409 90.2441 22.8659 89.5979 22.9993C88.9508 23.1344 88.1954 23.2014 87.3258 23.2014C85.5454 23.2014 84.2619 22.7539 83.4753 21.8605C82.6889 20.9673 82.2952 19.5956 82.2952 17.7445V11.2581H80.4371V7.19068H82.2952V3.11158L87.6382 2.24296V7.19055H91.0236V11.2582H87.6383V17.3825C87.6383 18.4012 88.1175 18.9105 89.0753 18.9105ZM98.3304 13.1056C98.4028 12.2442 98.6491 11.6129 99.0692 11.2096C99.4912 10.8071 100.012 10.6058 100.635 10.6058C101.315 10.6058 101.855 10.8318 102.256 11.2872C102.659 11.74 102.869 12.3466 102.886 13.1056H98.3304ZM105.809 8.76616C104.548 7.53046 102.76 6.91157 100.446 6.91157C98.0144 6.91157 96.1429 7.6222 94.8312 9.04331C93.5204 10.4646 92.8646 12.5035 92.8646 15.1607C92.8646 17.7337 93.5734 19.7181 94.9875 21.111C96.4025 22.5039 98.3895 23.2013 100.948 23.2013C102.177 23.2013 103.235 23.1175 104.121 22.9507C105.002 22.7856 105.855 22.4872 106.682 22.0564L105.867 18.5105C105.266 18.7561 104.694 18.9449 104.154 19.0692C103.373 19.2503 102.517 19.3412 101.585 19.3412C100.563 19.3412 99.7561 19.0914 99.1646 18.5918C98.5731 18.0913 98.258 17.4009 98.2219 16.5218H107.7V14.1058C107.7 11.7816 107.07 10.0011 105.809 8.76616ZM24.5229 13.1056C24.5953 12.2442 24.8416 11.6129 25.2617 11.2096C25.6827 10.8071 26.2044 10.6058 26.8286 10.6058C27.5065 10.6058 28.0468 10.8318 28.4484 11.2872C28.8517 11.74 29.0609 12.3466 29.0795 13.1056H24.5229ZM32.0022 8.76616C30.7407 7.53046 28.9532 6.91157 26.6388 6.91157C24.206 6.91157 22.3355 7.6222 21.0246 9.04331C19.7138 10.4646 19.0571 12.5035 19.0571 15.1607C19.0571 17.7337 19.765 19.7181 21.1809 21.111C22.595 22.5039 24.582 23.2013 27.1411 23.2013C28.3698 23.2013 29.4273 23.1175 30.3135 22.9507C31.1945 22.7856 32.0472 22.4872 32.8752 22.0564L32.0596 18.5105C31.4584 18.7561 30.8864 18.9449 30.347 19.0692C29.5651 19.2503 28.7097 19.3412 27.7774 19.3412C26.7561 19.3412 25.9486 19.0914 25.3571 18.5918C24.7647 18.0913 24.4505 17.4009 24.4144 16.5218H33.893V14.1058C33.893 11.7816 33.2628 10.0011 32.0022 8.76616Z" fill="#0F0B0B"/>
</g>
<defs>
<clipPath id="clip0_14567_1210">
<rect width="115.101" height="25" fill="white"/>
</clipPath>
</defs>
</svg>
