<svg width="125" height="25" viewBox="0 0 125 25" fill="none" xmlns="http://www.w3.org/2000/svg">
<g clip-path="url(#clip0_14567_1215)">
<path d="M22.7529 24.5483H26.9453L30.2319 12.2998H26.0826L22.7529 24.5483Z" fill="#004A7F"/>
<path d="M44.2466 24.5483H48.439L51.7255 12.2998H47.5331L44.2466 24.5483Z" fill="#004A7F"/>
<path d="M65.7798 24.5483H69.9311L73.1786 12.2998H68.9862L65.7798 24.5483Z" fill="#004A7F"/>
<path d="M40.3419 16.493H44.5343C45.1094 13.7405 43.3429 12.3438 39.2327 12.3438C34.4651 12.3438 31.2607 14.6854 30.1515 18.6724C29.2046 22.3697 31.1375 24.5902 35.6154 24.5902C40.1365 24.5902 42.8068 23.1934 43.918 20.0281H39.7256C39.1094 21.4249 38.0413 22.1233 36.5623 22.1233C34.5473 22.1233 33.7257 20.8908 34.3419 18.5491C34.9992 16.1233 36.5623 14.7676 38.5753 14.7676C39.89 14.7676 40.4651 15.3427 40.3419 16.493Z" fill="#004A7F"/>
<path d="M61.8767 16.493H66.0691C66.6443 13.7405 64.8347 12.3438 60.7244 12.3438C55.998 12.3438 52.7525 14.6854 51.6844 18.6724C50.6984 22.3697 52.6293 24.5902 57.1092 24.5902C61.5892 24.5902 64.2595 23.1934 65.4098 20.0281H61.2195C60.6423 21.4249 59.533 22.1233 58.0541 22.1233C56.0411 22.1233 55.2195 20.8908 55.8747 18.5491C56.493 16.1233 58.0541 14.7676 60.0671 14.7676C61.3838 14.7676 62 15.3427 61.8767 16.493Z" fill="#004A7F"/>
<path d="M6.60148 5.52175C12.1907 -0.0263418 18.9712 -1.46625 21.6846 2.31532C24.3981 6.09689 22.0133 13.7401 16.4241 19.2882C10.835 24.8774 4.05442 26.3153 1.29989 22.4926C-1.37042 18.672 1.01437 11.0678 6.60148 5.52175Z" fill="#F06321"/>
<path d="M10.301 2.56206C9.68475 3.01396 9.06852 3.54802 8.4523 4.12522C3.56151 8.97287 1.50536 15.6302 3.93125 18.9598C6.43722 22.2875 12.4372 21.055 17.4512 16.1642C20.1647 13.535 21.9723 10.4929 22.7117 7.65825C22.9172 5.56309 22.6296 3.71235 21.6847 2.31557C19.5485 -0.642311 14.9453 -0.397877 10.301 2.56206Z" fill="#AE282E"/>
<path d="M17.369 3.17845V3.30169C17.328 4.00008 16.9171 4.86279 16.1777 5.60227C15.0684 6.67039 13.5895 7.08121 12.9712 6.46704C12.2728 5.80973 12.6857 4.36982 13.7949 3.21953C14.9452 2.11032 16.4241 1.74059 17.0404 2.39789C17.2458 2.6033 17.369 2.84979 17.369 3.17845ZM13.0965 22.0411C10.4652 24.013 7.75383 25.0011 5.12256 24.5902C6.23176 24.6313 7.13761 23.3968 7.87707 21.7535C8.61655 20.0692 9.02737 18.5081 9.39709 17.0271C9.93115 14.6854 9.97225 13.0422 9.68467 12.6724C9.23277 12.0952 8.24681 12.2205 7.09447 12.8778C6.51932 13.2065 5.77986 13.0011 6.64462 11.933C7.54843 10.8648 11.0404 8.31571 12.2728 7.9049C13.6716 7.53516 15.2328 8.06923 14.6987 9.58925C14.3269 10.6985 9.47928 23.3557 13.0965 22.0411Z" fill="white"/>
<path d="M79.4661 22.6163L80.4109 19.0833H82.7115V17.1935H80.945L81.7666 14.1925H82.7115V12.3418H79.5873L76.3418 24.5903H82.7115V22.6163H79.4661ZM82.7115 19.0833H83.1634C85.2606 19.0833 86.2466 19.453 85.8358 20.8909C85.5071 22.1644 84.4801 22.6163 82.7115 22.6163V24.5903C84.439 24.5903 85.7125 24.426 86.9861 23.5612C87.8488 22.9861 88.4671 22.1234 88.7136 21.1374C89.1634 19.453 88.424 18.3007 86.4931 18.0563C88.3007 17.7276 89.453 16.7807 89.8207 15.3017C90.1494 14.1925 89.8617 13.3709 89.0813 12.8368C88.4239 12.3849 87.3147 12.3418 85.8358 12.3418H82.7115V14.1925H84.3158C86.2877 14.1925 87.1915 14.439 86.9039 15.6715C86.5342 16.8628 85.4661 17.1935 83.453 17.1935H82.7115V19.0833Z" fill="#004A7F"/>
<path d="M94.2187 16.0013V17.5193C93.8901 17.6857 93.6025 17.9733 93.4793 18.3841H91.0144C91.4231 17.1927 92.5344 16.369 94.2187 16.0013ZM94.2187 23.1927C93.9312 23.2749 93.6025 23.3159 93.2739 23.3159C92.1647 23.3159 91.6717 22.862 91.9182 22.0404C92.1647 21.0955 92.9041 20.7668 94.2187 20.6436V19.2057C91.3821 19.4111 89.8209 20.1506 89.328 21.9993C88.8761 23.6836 89.9462 24.7949 92.1647 24.7949C92.9041 24.7949 93.6025 24.6716 94.2187 24.4251V23.1927ZM96.6035 20.6436L96.5624 20.7668C96.2337 22.0404 95.369 22.9051 94.2187 23.1927V24.4251C94.835 24.1766 95.369 23.85 95.8619 23.3981L95.6566 24.5895H98.1235C98.2468 24.0123 98.37 23.355 98.5343 22.6977L99.4792 19.2468C99.5613 18.9592 99.6025 18.6717 99.6025 18.3841V17.9733C99.5203 16.5744 98.3289 15.835 96.1105 15.835C95.4101 15.835 94.7939 15.9171 94.2187 16.0013V17.5193C94.5885 17.316 95.0403 17.2338 95.6175 17.2338C96.889 17.2338 97.3841 17.8069 97.0123 19.0414L96.9732 19.1646H95.6565C95.1656 19.1646 94.6706 19.2057 94.2187 19.2057V20.6436L96.6035 20.6436Z" fill="#004A7F"/>
<path d="M100.342 24.5895H102.85L104.041 20.1917C104.452 18.6306 105.89 17.5193 107.41 17.5193C108.889 17.5193 109.425 18.3841 108.932 20.1095L107.739 24.5895H110.247L111.643 19.37C112.219 17.1516 111.109 15.835 108.644 15.835C107.04 15.835 105.767 16.4101 104.657 17.5604L104.945 16.0404H102.439C102.193 17.3961 102.028 18.2198 101.944 18.5484L100.342 24.5895Z" fill="#004A7F"/>
<path d="M112.465 24.5902H114.932L116.164 19.987L119.494 24.5902H122.904L119.122 19.6994L124.218 16.0411H121.055L116.329 19.4529L118.218 12.3438H115.753L112.465 24.5902Z" fill="#004A7F"/>
</g>
<defs>
<clipPath id="clip0_14567_1215">
<rect width="124.423" height="25" fill="white"/>
</clipPath>
</defs>
</svg>
