<svg width="88" height="35" viewBox="0 0 88 35" fill="none" xmlns="http://www.w3.org/2000/svg">
<g clip-path="url(#clip0_14567_1232)">
<path fill-rule="evenodd" clip-rule="evenodd" d="M0.761915 4.09939L0.76123 4.058V0.745441H4.06679V25.0416L4.06816 25.1173V28.3955H0.76123V25.0829L0.761915 25.0416V4.09939Z" fill="#3781C2"/>
<path fill-rule="evenodd" clip-rule="evenodd" d="M34.3738 18.3261C34.4587 23.3514 37.5678 27.3703 41.3187 27.3029C45.0689 27.2356 48.0399 23.1073 47.9551 18.082C47.8695 13.056 44.7604 9.03717 41.0094 9.1052C37.2592 9.17253 34.2882 13.3008 34.3738 18.3261ZM61.7433 12.2501C61.8295 12.4416 61.6248 11.964 61.6248 11.964L61.7433 12.2501ZM63.9961 33.0549C64.1476 32.7954 64.3587 32.3984 64.6098 31.9025L63.9961 33.0549ZM64.1904 10.5164C64.2303 10.6279 64.2766 10.7443 64.3285 10.8671L65.4416 13.6087L64.1904 10.5164ZM50.3397 24.3179C52.3828 26.1835 54.2225 27.1479 56.5749 27.1479C58.9827 27.1662 61.1233 25.9816 61.1233 23.7014C61.1233 21.7986 59.4463 20.6855 56.45 19.4111C53.9111 18.3058 52.0216 17.5307 51.0341 15.9309C51.1547 16.626 51.2179 17.3442 51.2179 18.0792C51.2179 24.2506 46.7683 29.2541 41.2794 29.2541C35.7905 29.2541 31.341 24.2506 31.341 18.0792C31.341 14.3585 32.9584 11.0627 35.4448 9.03156H28.7193V25.0417L28.72 25.1055V28.3957H25.7329V25.2128C25.735 25.1567 25.7357 25.0999 25.7357 25.0417V9.03156H23.1021V7.01653H25.7743C26.1193 2.95139 28.6225 0.652302 32.088 0.652302C34.3352 0.652302 35.5689 0.887966 36.2815 1.21972V3.97539C36.2703 4.18089 36.2703 4.30644 36.2703 4.30644C36.2394 4.30293 36.1658 4.30153 36.1658 4.30153C35.0843 3.29787 34.0175 2.55091 31.5255 2.55371C29.5406 2.55371 28.2277 4.17598 28.6864 7.01653H39.8662C40.3284 6.94289 40.7997 6.90431 41.2794 6.90431C45.2611 6.90431 48.6964 9.53724 50.2822 13.3401C50.2675 13.129 50.2605 12.9087 50.2605 12.6787C50.2605 8.71103 54.078 7.02355 58.0436 7.03196C58.1951 7.03126 58.3438 7.03195 58.4896 7.03546C59.8854 7.01302 61.8738 7.47102 63.0878 7.79225L65.4416 13.6087L68.8054 21.8624L69.2002 23.188L69.64 21.8624L73.8938 11.2682C74.6786 8.35123 77.785 7.08876 81.2161 7.09578C82.9218 7.08806 84.1815 7.29497 85.6923 7.82941V11.0333C83.8322 9.67332 82.5003 8.88287 80.3899 8.88287C78.5348 8.88287 76.3051 9.70909 76.3051 12.4557C76.2693 14.5198 77.5003 14.8971 81.1123 16.7003C84.0812 17.9972 86.8201 19.4287 86.8362 22.744C86.8362 28.2715 81.423 29.2289 78.7879 29.2373C76.4356 29.2373 74.2795 28.6531 73.0802 27.6494V24.0002L73.2731 24.1608C75.413 26.1709 77.3039 27.2125 79.7475 27.2125C82.156 27.2307 84.2958 26.0454 84.2958 23.7652C84.2958 21.8624 82.6188 20.7493 79.6226 19.4749C76.7589 18.2279 74.8799 17.4017 74.1119 15.3362C72.9441 18.2013 67.5121 31.5097 66.2335 34.3545H63.3045L64.6301 31.8646C65.3645 30.41 66.4326 28.1277 67.3816 25.9444L61.7433 12.2501C61.7054 12.1667 61.6129 11.9563 61.4242 11.5249C60.9914 10.5332 60.5889 9.61721 59.3713 9.15571C58.719 8.93478 58.0247 8.81904 57.2174 8.81904C55.3623 8.81904 52.9895 9.64526 52.9895 12.3918C52.9537 14.456 54.327 14.8333 57.9398 16.6358C60.9087 17.9333 63.6475 19.3648 63.6637 22.6802C63.6637 28.2077 58.2498 29.1644 55.6147 29.1735C53.5232 29.1735 51.5861 28.7113 50.3397 27.9033V24.3179Z" fill="#3781C2"/>
<path fill-rule="evenodd" clip-rule="evenodd" d="M10.2352 7.22271L10.2716 9.64103L10.2695 9.80375L10.3018 9.80304C10.3404 9.70204 10.3923 9.61648 10.4414 9.55265C11.6554 8.2432 13.1858 6.94216 16.8231 6.94216C20.3047 6.94216 22.5582 9.91807 22.6487 11.7914L22.6522 25.0417V25.1076V28.3956H19.6686V24.4448L19.6679 13.1647C19.6679 10.8291 17.6304 9.14025 15.1363 9.14025C13.0631 9.14025 10.4021 11.0171 10.3137 12.9171V25.0452L10.3151 25.1343V28.3984H7.33008V10.0071L7.33081 7.22271H10.2352Z" fill="#3781C2"/>
</g>
<defs>
<clipPath id="clip0_14567_1232">
<rect width="87.5" height="35" fill="white"/>
</clipPath>
</defs>
</svg>
