<svg width="48" height="56" viewBox="0 0 48 56" fill="none" xmlns="http://www.w3.org/2000/svg">
<path d="M23.1409 16.0997C20.9207 13.8795 17.3049 13.8795 15.0847 16.0997C12.8645 18.3199 12.8645 21.9357 15.0847 24.1559C17.3049 26.3761 20.9207 26.3761 23.1409 24.1559C25.3738 21.9357 25.3738 18.3326 23.1409 16.0997ZM42.6026 30.7404C39.6085 27.7463 34.7367 27.7463 31.7426 30.7404C28.7485 33.7345 28.7485 38.6063 31.7426 41.6004C34.7367 44.5945 39.6085 44.5945 42.6026 41.6004C45.6094 38.6063 45.6094 33.7345 42.6026 30.7404ZM37.1726 27.3276C42.0571 27.3276 46.0154 31.2859 46.0154 36.1704C46.0154 41.0548 42.0571 45.0131 37.1726 45.0131C32.2882 45.0131 28.3299 41.0548 28.3299 36.1704C28.3299 31.2859 32.2882 27.3276 37.1726 27.3276ZM44.7848 28.5582C40.5854 24.3589 33.7598 24.3589 29.5605 28.5582C25.3611 32.7576 25.3611 39.5705 29.5605 43.7698C31.565 45.7744 34.28 46.9289 37.1726 46.9289C43.0594 46.9289 47.9311 42.1713 47.9311 36.1704C47.9311 33.2016 46.7259 30.4993 44.7848 28.5582ZM28.8754 27.6067C30.3851 26.1477 32.2755 25.082 34.3815 24.5745L34.5211 10.2383C28.9769 9.79429 23.6738 7.87857 19.1192 4.68147C14.5646 7.87857 9.27413 9.80698 3.71726 10.2383L3.88219 27.391C3.92025 30.068 3.81876 33.5061 4.61803 35.8532C5.08745 37.2488 5.97553 38.4921 6.95242 39.5958V32.3389C6.95242 29.1038 9.5913 26.4649 12.8265 26.4649H16.4803C12.0018 24.5872 10.8092 18.7386 14.2728 15.275C16.9497 12.5981 21.2886 12.5981 23.9782 15.275C27.4418 18.7386 26.2492 24.5872 21.7707 26.4649H25.4119C26.6679 26.4649 27.8731 26.8709 28.8754 27.6067ZM25.3231 37.4137C24.9805 34.0897 26.0208 30.8926 28.0761 28.4694C27.3022 27.9239 26.3761 27.6321 25.3992 27.6321H12.8391C10.251 27.6321 8.13231 29.7508 8.13231 32.3516V40.8138C9.26144 41.9175 10.5174 42.9959 11.7608 44.0362V33.836C11.7608 33.0621 12.928 33.0621 12.928 33.836L12.9026 44.9497C14.9198 46.5609 17.0131 48.1087 19.1192 49.6312C21.2125 48.1087 23.3058 46.5609 25.3357 44.9497L25.3231 37.4517C25.3231 37.4391 25.3231 37.4264 25.3231 37.4137ZM27.5052 43.1482C27.1119 42.6153 26.7694 42.0444 26.4776 41.4354V44.0109C26.8328 43.7318 27.1627 43.44 27.5052 43.1482ZM41.6511 47.2207C38.7966 48.3752 35.5614 48.3752 32.7068 47.2207V56L36.7793 52.1432C36.995 51.9275 37.3502 51.9275 37.5786 52.1432L41.6511 56V47.2207ZM37.1726 24.2447C37.4771 24.2447 37.7816 24.2574 38.0988 24.2827C38.1749 17.8505 38.2256 14.7802 38.2383 6.60988C31.2478 6.92705 24.4857 4.59266 19.1192 0C13.7526 4.59266 6.99048 6.92705 0 6.60988C0.0126869 16.0743 0.0761216 19.4237 0.177617 27.6321C0.317173 39.0884 0.342548 40.5474 19.1192 54.2238C23.0267 51.382 26.8835 48.5528 30.1187 45.7997C29.4209 45.2923 28.7993 44.7213 28.2284 44.0743C26.9216 45.1908 25.5387 46.2945 24.1432 47.3602C22.5827 48.5528 21.0095 49.7073 19.4744 50.8237C19.2714 50.976 18.9923 50.9887 18.7766 50.8237C15.1355 48.1849 11.1645 45.2542 7.86588 42.1713C2.41051 37.0711 2.81649 34.483 2.715 26.6806C2.65156 21.0349 2.58813 15.4146 2.55007 9.75623C2.53738 9.42637 2.77843 9.15995 3.0956 9.14726C5.92478 8.96964 8.67784 8.39873 11.3167 7.4599C13.9429 6.52107 16.4549 5.20163 18.7639 3.52696C18.9669 3.37472 19.246 3.36203 19.449 3.52696C24.0671 6.85093 29.4463 8.80471 35.13 9.14726C35.4345 9.15995 35.6756 9.41368 35.6756 9.73086L35.536 24.3715C36.0816 24.2827 36.6271 24.2447 37.1726 24.2447ZM38.0988 34.9144L37.1853 33.1128L36.2592 34.9144C36.183 35.0793 36.0181 35.1935 35.8278 35.2188L33.8233 35.536L35.2569 36.9696C35.3838 37.0965 35.4472 37.2741 35.4218 37.4644L35.1047 39.469L36.9189 38.5555C37.0838 38.4794 37.2741 38.4667 37.4391 38.5555L39.2533 39.469L38.9361 37.5025C38.898 37.3122 38.9488 37.1219 39.0884 36.9696L40.522 35.536L38.5555 35.2315C38.3652 35.2188 38.1876 35.092 38.0988 34.9144ZM37.6928 31.565L38.9995 34.1151L41.8287 34.5718C42.2981 34.6479 42.4757 35.2315 42.1459 35.5614L40.116 37.5913L40.56 40.4205C40.6362 40.8899 40.1414 41.2451 39.7227 41.0295L37.1726 39.7227L34.6226 41.0295C34.2166 41.2324 33.6837 40.9026 33.7979 40.3824L34.242 37.5913L32.212 35.5614C31.8822 35.2315 32.0471 34.6479 32.5419 34.5718L35.3584 34.1151L36.6652 31.565C36.8808 31.1337 37.4771 31.1464 37.6928 31.565Z" fill="white"/>
</svg>
