<svg width="57" height="57" viewBox="0 0 57 57" fill="none" xmlns="http://www.w3.org/2000/svg">
<g clip-path="url(#clip0_4_1832)">
<path d="M50.7656 21.375C49.585 21.3736 48.4532 20.904 47.6184 20.0691C46.7835 19.2343 46.3139 18.1025 46.3125 16.9219V15.1406C46.3125 13.9596 46.7817 12.8269 47.6168 11.9918C48.4519 11.1567 49.5846 10.6875 50.7656 10.6875C51.9467 10.6875 53.0793 11.1567 53.9145 11.9918C54.7496 12.8269 55.2188 13.9596 55.2188 15.1406V16.9219C55.2173 18.1025 54.7477 19.2343 53.9129 20.0691C53.0781 20.904 51.9462 21.3736 50.7656 21.375ZM50.7656 12.4688C50.057 12.4688 49.3774 12.7502 48.8763 13.2513C48.3753 13.7524 48.0938 14.432 48.0938 15.1406V16.9219C48.0938 17.6305 48.3753 18.3101 48.8763 18.8112C49.3774 19.3123 50.057 19.5938 50.7656 19.5938C51.4743 19.5938 52.1539 19.3123 52.6549 18.8112C53.156 18.3101 53.4375 17.6305 53.4375 16.9219V15.1406C53.4375 14.432 53.156 13.7524 52.6549 13.2513C52.1539 12.7502 51.4743 12.4688 50.7656 12.4688Z" fill="white"/>
<path d="M38.2506 57C37.7079 57.0001 37.1729 56.8712 36.6897 56.6239C36.2066 56.3766 35.7891 56.018 35.4718 55.5777C35.1545 55.1374 34.9464 54.6279 34.8646 54.0914C34.7829 53.5548 34.8298 53.0065 35.0016 52.4917L38.4216 42.2325C38.7163 41.3454 39.2831 40.5737 40.0414 40.027C40.7997 39.4804 41.711 39.1866 42.6458 39.1875H45.4219V30.8317L41.3669 32.8641C41.2429 32.9242 41.1066 32.9546 40.9688 32.9531H35.3445C34.7614 32.9524 34.1987 32.7386 33.7622 32.352C33.3257 31.9654 33.0454 31.4327 32.9742 30.8539C32.903 30.2752 33.0456 29.6904 33.3754 29.2095C33.7051 28.7286 34.1992 28.3848 34.7647 28.2426L40.5538 26.7945L44.7397 23.3273C45.5462 22.641 46.5708 22.2646 47.6298 22.2656H53.7341C54.6 22.2666 55.4302 22.611 56.0424 23.2232C56.6547 23.8355 56.9991 24.6657 57 25.5315V41.8594C56.9986 43.04 56.529 44.1718 55.6942 45.0066C54.8594 45.8415 53.7275 46.3111 52.5469 46.3125H44.9241C44.7371 46.3125 44.5548 46.3713 44.4031 46.4806C44.2514 46.59 44.1379 46.7443 44.0789 46.9217L41.5032 54.6577C41.2762 55.3405 40.8397 55.9344 40.2558 56.3549C39.6718 56.7754 38.9702 57.0012 38.2506 57ZM42.6458 40.9688C42.0848 40.9686 41.538 41.1451 41.0829 41.4731C40.6278 41.8011 40.2875 42.2641 40.1102 42.7963L36.6938 53.0545C36.6166 53.2614 36.5819 53.4816 36.5917 53.7021C36.6015 53.9226 36.6556 54.1389 36.7508 54.3381C36.846 54.5373 36.9803 54.7152 37.1458 54.8614C37.3112 55.0075 37.5044 55.1188 37.7138 55.1887C37.9232 55.2586 38.1445 55.2856 38.3645 55.2681C38.5846 55.2506 38.7988 55.1889 38.9945 55.0869C39.1903 54.9848 39.3634 54.8443 39.5037 54.6739C39.644 54.5034 39.7485 54.3065 39.811 54.0948L42.3938 46.3579C42.5709 45.8267 42.9105 45.3646 43.3645 45.0368C43.8185 44.709 44.3641 44.5322 44.9241 44.5313H52.5469C53.2555 44.5313 53.9351 44.2498 54.4362 43.7487C54.9373 43.2476 55.2188 42.568 55.2188 41.8594V25.5315C55.2183 25.1379 55.0618 24.7606 54.7834 24.4822C54.5051 24.2039 54.1277 24.0473 53.7341 24.0469H47.6298C46.9922 24.0476 46.3758 24.2756 45.8913 24.6899L41.537 28.296C41.433 28.3812 41.3113 28.442 41.1808 28.4742L35.1931 29.9704C35.0488 30.007 34.9229 30.0951 34.839 30.218C34.7551 30.341 34.7191 30.4904 34.7377 30.6381C34.7563 30.7858 34.8283 30.9215 34.94 31.0199C35.0518 31.1182 35.1956 31.1722 35.3445 31.1719H40.7586L45.9144 28.5891C46.0506 28.521 46.2019 28.489 46.354 28.4961C46.506 28.5032 46.6537 28.5491 46.7829 28.6295C46.9122 28.7099 47.0187 28.822 47.0922 28.9553C47.1658 29.0885 47.204 29.2384 47.2032 29.3906V40.0781C47.2032 40.3143 47.1093 40.5409 46.9423 40.7079C46.7753 40.8749 46.5488 40.9688 46.3125 40.9688H42.6458Z" fill="white"/>
<path d="M56.1094 48.9844H45.4219C45.1857 48.9844 44.9591 48.8905 44.7921 48.7235C44.6251 48.5565 44.5312 48.33 44.5312 48.0938C44.5312 47.8575 44.6251 47.631 44.7921 47.464C44.9591 47.297 45.1857 47.2031 45.4219 47.2031H56.1094C56.3456 47.2031 56.5721 47.297 56.7391 47.464C56.9062 47.631 57 47.8575 57 48.0938C57 48.33 56.9062 48.5565 56.7391 48.7235C56.5721 48.8905 56.3456 48.9844 56.1094 48.9844Z" fill="white"/>
<path d="M6.23438 21.375C5.05377 21.3736 3.92192 20.904 3.0871 20.0691C2.25229 19.2343 1.78266 18.1025 1.78125 16.9219V15.1406C1.78125 13.9596 2.25042 12.8269 3.08554 11.9918C3.92066 11.1567 5.05333 10.6875 6.23438 10.6875C7.41542 10.6875 8.54809 11.1567 9.38321 11.9918C10.2183 12.8269 10.6875 13.9596 10.6875 15.1406V16.9219C10.6861 18.1025 10.2165 19.2343 9.38165 20.0691C8.54683 20.904 7.41498 21.3736 6.23438 21.375ZM6.23438 12.4688C5.52575 12.4688 4.84615 12.7502 4.34507 13.2513C3.844 13.7524 3.5625 14.432 3.5625 15.1406V16.9219C3.5625 17.6305 3.844 18.3101 4.34507 18.8112C4.84615 19.3123 5.52575 19.5938 6.23438 19.5938C6.943 19.5938 7.6226 19.3123 8.12368 18.8112C8.62475 18.3101 8.90625 17.6305 8.90625 16.9219V15.1406C8.90625 14.432 8.62475 13.7524 8.12368 13.2513C7.6226 12.7502 6.943 12.4688 6.23438 12.4688Z" fill="white"/>
<path d="M18.7494 57C18.0301 57.0005 17.3289 56.7743 16.7454 56.3537C16.1619 55.9331 15.7256 55.3393 15.4987 54.6568L12.9212 46.9217C12.8621 46.7443 12.7487 46.59 12.597 46.4806C12.4453 46.3713 12.263 46.3125 12.076 46.3125H4.45312C3.27252 46.3111 2.14067 45.8415 1.30585 45.0066C0.471036 44.1718 0.00141419 43.04 0 41.8594L0 25.5315C0.000942976 24.6657 0.345333 23.8355 0.957608 23.2232C1.56988 22.611 2.40004 22.2666 3.26592 22.2656H9.37027C10.4323 22.2651 11.4595 22.6442 12.2666 23.3344L16.4436 26.7909L22.2327 28.239C22.8013 28.3782 23.2991 28.7211 23.6318 29.2028C23.9644 29.6844 24.1089 30.2714 24.0378 30.8524C23.9666 31.4334 23.6848 31.9682 23.2458 32.3554C22.8067 32.7426 22.2409 32.9552 21.6555 32.9531H16.0312C15.8934 32.9546 15.7572 32.9242 15.6331 32.8641L11.5781 30.8317V39.1875H14.3542C15.289 39.1866 16.2003 39.4804 16.9586 40.027C17.717 40.5737 18.2837 41.3454 18.5784 42.2325L21.9984 52.4917C22.1702 53.0065 22.2172 53.5548 22.1354 54.0914C22.0537 54.6279 21.8456 55.1374 21.5282 55.5777C21.2109 56.018 20.7935 56.3766 20.3103 56.6239C19.8272 56.8712 19.2922 57.0001 18.7494 57ZM3.26592 24.0469C2.87231 24.0473 2.49495 24.2039 2.21662 24.4822C1.93829 24.7606 1.78172 25.1379 1.78125 25.5315V41.8594C1.78125 42.568 2.06275 43.2476 2.56382 43.7487C3.0649 44.2497 3.7445 44.5312 4.45312 44.5312H12.076C12.636 44.5322 13.1815 44.709 13.6355 45.0368C14.0895 45.3646 14.4291 45.8267 14.6062 46.3579L17.1891 54.0939C17.2979 54.4216 17.5072 54.7067 17.7873 54.9087C18.0675 55.1106 18.4041 55.2191 18.7494 55.2188C19.0097 55.2181 19.266 55.1557 19.4974 55.0368C19.7289 54.9178 19.9288 54.7456 20.0807 54.5344C20.2327 54.3231 20.3324 54.0788 20.3716 53.8216C20.4108 53.5643 20.3884 53.3014 20.3062 53.0545L16.8898 42.7963C16.7125 42.2641 16.3722 41.8011 15.9171 41.4731C15.462 41.1451 14.9152 40.9686 14.3542 40.9688H10.6875C10.4513 40.9688 10.2248 40.8749 10.0577 40.7079C9.89071 40.5409 9.79688 40.3143 9.79688 40.0781V29.3906C9.79604 29.2384 9.83423 29.0885 9.9078 28.9553C9.98136 28.822 10.0879 28.7099 10.2171 28.6295C10.3463 28.5491 10.494 28.5032 10.6461 28.4961C10.7981 28.489 10.9495 28.521 11.0856 28.5891L16.2414 31.1719H21.6555C21.8047 31.1722 21.9488 31.1179 22.0607 31.0193C22.1725 30.9206 22.2444 30.7843 22.2626 30.6363C22.2808 30.4882 22.2441 30.3386 22.1595 30.2158C22.0749 30.0929 21.9482 30.0053 21.8034 29.9695L15.8157 28.4733C15.6852 28.4411 15.5635 28.3803 15.4595 28.2952L11.1159 24.6988C10.6304 24.2802 10.0113 24.049 9.37027 24.0469H3.26592Z" fill="white"/>
<path d="M11.5781 48.9844H0.890625C0.654417 48.9844 0.427883 48.8905 0.260858 48.7235C0.0938335 48.5565 0 48.33 0 48.0938C0 47.8575 0.0938335 47.631 0.260858 47.464C0.427883 47.297 0.654417 47.2031 0.890625 47.2031H11.5781C11.8143 47.2031 12.0409 47.297 12.2079 47.464C12.3749 47.631 12.4688 47.8575 12.4688 48.0938C12.4688 48.33 12.3749 48.5565 12.2079 48.7235C12.0409 48.8905 11.8143 48.9844 11.5781 48.9844Z" fill="white"/>
<path d="M40.9688 35.625H16.0312C15.795 35.625 15.5685 35.5312 15.4015 35.3641C15.2345 35.1971 15.1406 34.9706 15.1406 34.7344C15.1406 34.4982 15.2345 34.2716 15.4015 34.1046C15.5685 33.9376 15.795 33.8438 16.0312 33.8438H40.9688C41.205 33.8438 41.4315 33.9376 41.5985 34.1046C41.7655 34.2716 41.8594 34.4982 41.8594 34.7344C41.8594 34.9706 41.7655 35.1971 41.5985 35.3641C41.4315 35.5312 41.205 35.625 40.9688 35.625Z" fill="white"/>
<path d="M28.5 57C28.2638 57 28.0373 56.9062 27.8702 56.7391C27.7032 56.5721 27.6094 56.3456 27.6094 56.1094V34.7344C27.6094 34.4982 27.7032 34.2716 27.8702 34.1046C28.0373 33.9376 28.2638 33.8438 28.5 33.8438C28.7362 33.8438 28.9627 33.9376 29.1298 34.1046C29.2968 34.2716 29.3906 34.4982 29.3906 34.7344V56.1094C29.3906 56.3456 29.2968 56.5721 29.1298 56.7391C28.9627 56.9062 28.7362 57 28.5 57Z" fill="white"/>
<path d="M16.9219 23.1562C16.7913 23.1565 16.6623 23.1276 16.5443 23.0716C16.391 22.9999 16.2614 22.886 16.1705 22.7432C16.0797 22.6005 16.0314 22.4348 16.0312 22.2656V18.7031H15.1406C14.432 18.7031 13.7524 18.4216 13.2513 17.9206C12.7502 17.4195 12.4688 16.7399 12.4688 16.0312V2.67188C12.4688 1.96325 12.7502 1.28365 13.2513 0.782574C13.7524 0.2815 14.432 0 15.1406 0L32.0625 0C32.7711 0 33.4507 0.2815 33.9518 0.782574C34.4529 1.28365 34.7344 1.96325 34.7344 2.67188V16.0312C34.7344 16.7399 34.4529 17.4195 33.9518 17.9206C33.4507 18.4216 32.7711 18.7031 32.0625 18.7031H22.588L17.4928 22.9505C17.3322 23.0833 17.1303 23.1561 16.9219 23.1562ZM15.1406 1.78125C14.9044 1.78125 14.6779 1.87508 14.5109 2.04211C14.3438 2.20913 14.25 2.43567 14.25 2.67188V16.0312C14.25 16.2675 14.3438 16.494 14.5109 16.661C14.6779 16.828 14.9044 16.9219 15.1406 16.9219H16.9219C17.1581 16.9219 17.3846 17.0157 17.5516 17.1827C17.7187 17.3498 17.8125 17.5763 17.8125 17.8125V20.3641L21.6947 17.1276C21.8553 16.9947 22.0572 16.922 22.2656 16.9219H32.0625C32.2987 16.9219 32.5252 16.828 32.6923 16.661C32.8593 16.494 32.9531 16.2675 32.9531 16.0312V2.67188C32.9531 2.43567 32.8593 2.20913 32.6923 2.04211C32.5252 1.87508 32.2987 1.78125 32.0625 1.78125H15.1406Z" fill="white"/>
</g>
<defs>
<clipPath id="clip0_4_1832">
<rect width="57" height="57" fill="white"/>
</clipPath>
</defs>
</svg>
