<svg width="59" height="45" viewBox="0 0 59 45" fill="none" xmlns="http://www.w3.org/2000/svg">
<path d="M23.9198 16.1797H4.36814C4.00862 16.1797 3.71802 16.4709 3.71802 16.8298V21.3566C3.71802 21.7155 4.00862 22.0067 4.36814 22.0067H23.9198C24.2794 22.0067 24.57 21.7155 24.57 21.3566V16.8298C24.57 16.4709 24.2794 16.1797 23.9198 16.1797ZM23.2697 20.7065H5.01826V17.4799H23.2697V20.7065Z" fill="white"/>
<path d="M38.851 5.05512H49.9271C50.2867 5.05512 50.5773 4.76387 50.5773 4.405C50.5773 4.04614 50.2867 3.75488 49.9271 3.75488H38.851C38.4915 3.75488 38.2009 4.04614 38.2009 4.405C38.2009 4.76387 38.4915 5.05512 38.851 5.05512Z" fill="white"/>
<path d="M52.1408 5.05512H55.03C55.3895 5.05512 55.6801 4.76387 55.6801 4.405C55.6801 4.04614 55.3895 3.75488 55.03 3.75488H52.1408C51.7813 3.75488 51.4907 4.04614 51.4907 4.405C51.4907 4.76387 51.7813 5.05512 52.1408 5.05512Z" fill="white"/>
<path d="M52.7266 26.8369C50.8386 26.8369 49.3018 28.3731 49.3018 30.2611C49.3018 32.149 50.838 33.6859 52.7266 33.6859C54.6152 33.6859 56.1514 32.1497 56.1514 30.2611C56.1514 28.3725 54.6152 26.8369 52.7266 26.8369Z" fill="white"/>
<path d="M4.36814 26.7475H9.19398C9.55349 26.7475 9.8441 26.4563 9.8441 26.0974C9.8441 25.7385 9.55349 25.4473 9.19398 25.4473H4.36814C4.00862 25.4473 3.71802 25.7385 3.71802 26.0974C3.71802 26.4563 4.00862 26.7475 4.36814 26.7475Z" fill="white"/>
<path d="M17.5034 28.0107H14.1455C13.786 28.0107 13.4954 28.302 13.4954 28.6609C13.4954 29.0197 13.786 29.311 14.1455 29.311H17.5034C17.8629 29.311 18.1535 29.0197 18.1535 28.6609C18.1535 28.302 17.8629 28.0107 17.5034 28.0107Z" fill="white"/>
<path d="M11.9628 28.0107H4.36814C4.00862 28.0107 3.71802 28.302 3.71802 28.6609C3.71802 29.0197 4.00862 29.311 4.36814 29.311H11.9635C12.323 29.311 12.6136 29.0197 12.6136 28.6609C12.6136 28.302 12.3224 28.0107 11.9628 28.0107Z" fill="white"/>
<path d="M55.6717 0H2.66744C1.19687 0 0 1.19687 0 2.66809V33.2055C0 34.6761 1.19687 35.873 2.66744 35.873H19.4249C19.7623 40.9608 23.9972 45 29.1689 45C34.3406 45 38.5762 40.9608 38.9129 35.873H55.6704C57.141 35.873 58.3379 34.6761 58.3379 33.2055V2.66809C58.3379 1.19687 57.141 0 55.6704 0H55.6717ZM36.068 32.5489L27.9617 40.6546C27.8349 40.7814 27.6685 40.8451 27.502 40.8451C27.3356 40.8451 27.1692 40.7814 27.0424 40.6546L22.2718 35.8847C22.1496 35.7624 22.0813 35.5973 22.0813 35.425C22.0813 35.2528 22.1496 35.087 22.2718 34.9654L24.1103 33.1269C24.3645 32.8727 24.7754 32.8727 25.0296 33.1269L27.502 35.5986L33.3102 29.7911C33.5644 29.5369 33.9753 29.5369 34.2295 29.7911L36.068 31.6296C36.1902 31.7519 36.2585 31.917 36.2585 32.0893C36.2585 32.2616 36.1902 32.4273 36.068 32.5489ZM57.0389 33.2055C57.0389 33.9597 56.4259 34.5727 55.6717 34.5727H38.9142C38.5768 29.4849 34.3419 25.4457 29.1702 25.4457C23.9985 25.4457 19.763 29.4849 19.4262 34.5727H2.66744C1.91395 34.5727 1.30024 33.9597 1.30024 33.2055V14.8247H57.0383L57.0389 33.2055ZM57.0389 6.76255H1.30089V2.66809C1.30089 1.91395 1.91395 1.30024 2.66809 1.30024H55.6717C56.4252 1.30024 57.0389 1.91395 57.0389 2.66809V6.76255Z" fill="white"/>
<path d="M27.9618 36.9774C27.7076 37.2316 27.2968 37.2316 27.0426 36.9774L24.5701 34.5057L23.6509 35.425L27.5022 39.2756L34.6893 32.0892L33.77 31.1699L27.9618 36.9774Z" fill="white"/>
</svg>
