<svg width="56" height="56" viewBox="0 0 56 56" fill="none" xmlns="http://www.w3.org/2000/svg">
<path d="M47.1407 27.5261V0H8.85946V27.5261H4.68921V56H51.3111V27.5261H47.1407ZM48.0297 52.7188H7.97046V30.8073H9.32671L22.2762 40.8685V48.6314L28.0001 46.9958L33.7241 48.6313V40.8683L46.6735 30.8072H48.0298V52.7188H48.0297ZM12.1407 28.8352V3.28125H43.8595V28.8352L35.655 35.1765C35.3596 31.2104 32.0405 28.073 28.0001 28.073C23.9597 28.073 20.6407 31.2104 20.3453 35.1766L12.1407 28.8352ZM30.9734 38.9904L30.4428 39.478V44.2812L28.0001 43.5833L25.5574 44.2812V39.4779L25.0267 38.9903C24.1084 38.1468 23.6027 36.9965 23.6027 35.7515C23.6027 33.3268 25.5752 31.3541 28 31.3541C30.4247 31.3541 32.3974 33.3268 32.3974 35.7515C32.3975 36.9965 31.8918 38.1468 30.9734 38.9904Z" fill="white"/>
<path d="M34.9089 7.36426H38.3542V10.6455H34.9089V7.36426Z" fill="white"/>
<path d="M17.6094 7.36426H31.6003V10.6455H17.6094V7.36426Z" fill="white"/>
<path d="M24.3269 20.7812H38.3542V24.0625H24.3269V20.7812Z" fill="white"/>
<path d="M17.6094 20.7812H20.9909V24.0625H17.6094V20.7812Z" fill="white"/>
<path d="M21.1094 14.0723H34.8906V17.3535H21.1094V14.0723Z" fill="white"/>
</svg>
