<svg width="51" height="51" viewBox="0 0 51 51" fill="none" xmlns="http://www.w3.org/2000/svg">
<g clip-path="url(#clip0_4_1816)">
<path d="M17.1088 12.75H18.555C19.105 12.75 19.5511 12.304 19.5511 11.7539C19.5511 11.2038 19.105 10.7578 18.555 10.7578H17.1088C16.9827 10.7578 16.8801 10.6552 16.8801 10.5291V9.5625H18.1744C18.7244 9.5625 19.1704 9.11655 19.1704 8.56641C19.1704 8.01626 18.7244 7.57031 18.1744 7.57031H16.8801V6.6037C16.8801 6.4776 16.9827 6.375 17.1088 6.375H18.555C19.105 6.375 19.5511 5.92905 19.5511 5.37891C19.5511 4.82876 19.105 4.38281 18.555 4.38281H17.1088C15.8842 4.38281 14.8879 5.37911 14.8879 6.6037V10.5291C14.8879 11.7537 15.8842 12.75 17.1088 12.75Z" fill="white"/>
<path d="M23.8318 10.7578H22.1218C21.5718 10.7578 21.1257 11.2038 21.1257 11.7539C21.1257 12.304 21.5718 12.75 22.1218 12.75H23.8318C25.2599 12.75 26.4217 11.5882 26.4217 10.1602C26.4217 8.73216 25.2599 7.57031 23.8318 7.57031H23.7156C23.386 7.57031 23.1179 7.30226 23.1179 6.97266C23.1179 6.64305 23.386 6.375 23.7156 6.375H24.8623C25.4123 6.375 25.8584 5.92905 25.8584 5.37891C25.8584 4.82876 25.4123 4.38281 24.8623 4.38281H23.7156C22.2875 4.38281 21.1257 5.54466 21.1257 6.97266C21.1257 8.40066 22.2875 9.5625 23.7156 9.5625H23.8318C24.1614 9.5625 24.4295 9.83055 24.4295 10.1602C24.4295 10.4898 24.1614 10.7578 23.8318 10.7578Z" fill="white"/>
<path d="M12.875 4.38281H9.58789C9.03785 4.38281 8.5918 4.82876 8.5918 5.37891C8.5918 5.92905 9.03785 6.375 9.58789 6.375H10.2354V11.7539C10.2354 12.304 10.6814 12.75 11.2314 12.75C11.7815 12.75 12.2275 12.304 12.2275 11.7539V6.375H12.875C13.425 6.375 13.8711 5.92905 13.8711 5.37891C13.8711 4.82876 13.4251 4.38281 12.875 4.38281Z" fill="white"/>
<path d="M28.7627 6.375H29.4102V11.7539C29.4102 12.304 29.8562 12.75 30.4062 12.75C30.9563 12.75 31.4023 12.304 31.4023 11.7539V6.375H32.0498C32.5998 6.375 33.0459 5.92905 33.0459 5.37891C33.0459 4.82876 32.5998 4.38281 32.0498 4.38281H28.7627C28.2127 4.38281 27.7666 4.82876 27.7666 5.37891C27.7666 5.92905 28.2127 6.375 28.7627 6.375Z" fill="white"/>
<path d="M11.999 16.7344H8.01465C7.46461 16.7344 7.01855 17.1803 7.01855 17.7305V21.7148C7.01855 22.265 7.46461 22.7109 8.01465 22.7109H11.999C12.5491 22.7109 12.9951 22.265 12.9951 21.7148V17.7305C12.9951 17.1803 12.5492 16.7344 11.999 16.7344ZM11.0029 20.7188H9.01074V18.7266H11.0029V20.7188Z" fill="white"/>
<path d="M32.2361 21.7148C32.2361 21.9768 32.3426 22.2338 32.5279 22.4191C32.7133 22.6044 32.9702 22.7109 33.2322 22.7109C33.4942 22.7109 33.7511 22.6044 33.9363 22.4191C34.1226 22.2338 34.2283 21.9768 34.2283 21.7148C34.2283 21.4529 34.1226 21.1959 33.9363 21.0106C33.7511 20.8253 33.495 20.7188 33.2322 20.7188C32.9702 20.7188 32.7132 20.8253 32.5279 21.0106C32.3426 21.1959 32.2361 21.4529 32.2361 21.7148Z" fill="white"/>
<path d="M29.2483 20.7188H15.9504C15.4004 20.7188 14.9543 21.1647 14.9543 21.7148C14.9543 22.265 15.4004 22.7109 15.9504 22.7109H29.2483C29.7983 22.7109 30.2444 22.265 30.2444 21.7148C30.2444 21.1647 29.7984 20.7188 29.2483 20.7188Z" fill="white"/>
<path d="M11.999 27.0938H8.01465C7.46461 27.0938 7.01855 27.5397 7.01855 28.0898V32.0742C7.01855 32.6244 7.46461 33.0703 8.01465 33.0703H11.999C12.5491 33.0703 12.9951 32.6244 12.9951 32.0742V28.0898C12.9951 27.5397 12.5492 27.0938 11.999 27.0938ZM11.0029 31.0781H9.01074V29.0859H11.0029V31.0781Z" fill="white"/>
<path d="M11.999 37.4531H8.01465C7.46461 37.4531 7.01855 37.8991 7.01855 38.4492V42.4336C7.01855 42.9837 7.46461 43.4297 8.01465 43.4297H11.999C12.5491 43.4297 12.9951 42.9837 12.9951 42.4336V38.4492C12.9951 37.8991 12.5492 37.4531 11.999 37.4531ZM11.0029 41.4375H9.01074V39.4453H11.0029V41.4375Z" fill="white"/>
<path d="M24.5044 41.4375H15.9504C15.4004 41.4375 14.9543 41.8835 14.9543 42.4336C14.9543 42.9837 15.4004 43.4297 15.9504 43.4297H24.5044C25.0544 43.4297 25.5005 42.9837 25.5005 42.4336C25.5005 41.8835 25.0545 41.4375 24.5044 41.4375Z" fill="white"/>
<path d="M48.4105 7.92791C47.5349 7.42229 46.5147 7.28812 45.5382 7.54979C44.5615 7.81147 43.7453 8.43781 43.2399 9.31348L42.2812 10.974V10.9742L40.9399 13.2974V3.38672C40.9399 1.51924 39.4207 0 37.5532 0H4.08447C2.217 0 0.697754 1.51924 0.697754 3.38672V47.6133C0.697754 49.4808 2.217 51 4.08447 51H37.5532C39.4207 51 40.9399 49.4808 40.9399 47.6133V28.5879C40.9399 28.5427 40.9359 28.4985 40.93 28.4549L48.8373 14.7591L49.796 13.0985C50.8395 11.291 50.2181 8.97152 48.4105 7.92791ZM46.0539 9.47405C46.5165 9.34993 46.9997 9.41368 47.4145 9.65314C48.2707 10.1475 48.565 11.2462 48.0707 12.1024L47.61 12.9004L44.5045 11.1074L44.9652 10.3095C45.2047 9.8947 45.5912 9.59796 46.0539 9.47405ZM33.9296 36.5955L30.8241 34.8025L43.5084 12.8327L46.6139 14.6256L33.9296 36.5955ZM30.2531 36.7731L32.5086 38.0754L29.7979 40.166L30.2531 36.7731ZM38.9477 47.6133C38.9477 48.3823 38.3221 49.0078 37.5531 49.0078H4.08437C3.31539 49.0078 2.68984 48.3823 2.68984 47.6133V3.38672C2.68984 2.61773 3.31539 1.99219 4.08437 1.99219H37.5531C38.3221 1.99219 38.9477 2.61773 38.9477 3.38672V16.7344C38.9477 16.7386 38.9483 16.7425 38.9483 16.7466L30.6741 31.0781H15.9503C15.4003 31.0781 14.9542 31.5241 14.9542 32.0742C14.9542 32.6244 15.4003 33.0703 15.9503 33.0703H29.5239L28.6008 34.669C28.5359 34.7816 28.4935 34.9058 28.4762 35.0346L27.5014 42.3011C27.4478 42.7013 27.6409 43.0943 27.9906 43.2962C28.1454 43.3856 28.3172 43.4297 28.4886 43.4297C28.7041 43.4297 28.9188 43.3598 29.097 43.2223L34.9025 38.7449C35.0054 38.6655 35.0918 38.5667 35.1568 38.4542L38.9477 31.8883V47.6133Z" fill="white"/>
</g>
<defs>
<clipPath id="clip0_4_1816">
<rect width="51" height="51" fill="white"/>
</clipPath>
</defs>
</svg>
