<svg width="56" height="64" viewBox="0 0 56 64" fill="none" xmlns="http://www.w3.org/2000/svg">
<path d="M42.2425 35.3918L48.9844 49.1029C49.2425 49.6295 49.8723 49.8359 50.3989 49.5882L55.1585 47.2548C55.6851 46.9967 55.8916 46.3669 55.6438 45.8403L48.8915 32.1293C48.6334 31.6027 48.0036 31.3962 47.477 31.6543L42.7277 33.9877C42.2012 34.2458 41.9947 34.8756 42.2425 35.4022V35.3918ZM51.8547 44.1368L52.7632 45.9745L51.0184 46.8315L50.1098 44.9937L51.8547 44.1368Z" fill="white"/>
<path d="M46.989 48.6174L41.4344 37.3223C39.9373 37.7869 37.0464 37.8591 31.7189 35.691C23.8206 32.48 19.03 40.3474 17.7084 44.0332C17.5226 44.5392 17.7394 45.1173 18.2246 45.3341C19.8043 46.0569 23.4489 45.2722 25.8339 41.0494L34.8989 46.7383C36.8915 45.6955 37.542 44.1675 37.573 44.0952L39.039 44.6837C39.0081 44.756 38.3473 46.3873 36.4063 47.6778L43.396 52.0555C44.6453 50.197 45.9152 49.1749 46.9993 48.607L46.989 48.6174Z" fill="white"/>
<path d="M21.7573 63.0728C22.6659 63.6923 23.9152 63.4652 24.5347 62.5566L25.1025 61.7306C25.722 60.8221 25.4948 59.5728 24.5863 58.9533C23.6777 58.3338 22.4284 58.561 21.809 59.4695L22.3768 58.6436C22.9963 57.735 22.7691 56.4857 21.8606 55.8663C20.952 55.2468 19.7027 55.4739 19.0833 56.3825C19.7027 55.4739 19.4756 54.2246 18.567 53.6052C17.6585 52.9857 16.4092 53.2128 15.7897 54.1214L15.2219 54.9474C15.8413 54.0388 15.6142 52.7895 14.7056 52.17C13.7971 51.5506 12.5478 51.7777 11.9283 52.6863L10.7926 54.3279C10.1731 55.2365 10.4003 56.4857 11.3088 57.1052C12.2174 57.7247 13.4667 57.4975 14.0862 56.589C13.4667 57.4975 13.6938 58.7468 14.6024 59.3663C15.5109 59.9858 16.7602 59.7586 17.3797 58.8501L17.9476 58.0241C17.3281 58.9327 17.5552 60.1819 18.4638 60.8014C19.3723 61.4209 20.6216 61.1937 21.2411 60.2852C20.6216 61.1937 20.8488 62.443 21.7573 63.0625V63.0728Z" fill="white"/>
<path d="M7.77946 33.7076L0.13925 46.9437C-0.149839 47.4496 0.0256791 48.0898 0.531585 48.3892L4.96084 50.929C5.46674 51.2181 6.10687 51.0426 6.39596 50.547L14.0362 37.3212C14.3253 36.8153 14.1497 36.1752 13.6438 35.8758L9.21458 33.3359C8.70867 33.0468 8.06854 33.2223 7.77946 33.7179V33.7076Z" fill="white"/>
<path d="M43.6146 56.3933C43.8005 56.0732 43.9037 55.7119 43.9037 55.3608C43.9037 54.6897 43.5527 54.0186 42.9332 53.647L26.3106 43.2294C23.461 47.0599 19.548 47.6897 17.5657 46.7811C16.3474 46.2236 15.7589 44.7885 16.2132 43.4979C16.6055 42.4035 17.2043 41.1748 17.9683 39.9565C16.781 39.5023 15.8208 38.9344 15.1704 38.4595L7.97412 50.9213L10.132 52.5113L10.6379 51.7782C11.7529 50.1572 13.983 49.7443 15.6143 50.8593C15.986 51.1174 16.2958 51.4375 16.5435 51.7885C16.6261 51.7679 16.7087 51.7472 16.7913 51.7369C17.7309 51.5614 18.6807 51.7679 19.4654 52.3048C20.0539 52.7177 20.5082 53.2753 20.7663 53.9361C21.4581 53.9361 22.1498 54.1425 22.759 54.5659C23.5436 55.1027 24.0702 55.9184 24.2457 56.8579C24.256 56.9405 24.2767 57.0231 24.287 57.116C24.7103 57.2193 25.113 57.3948 25.4846 57.6529C27.0437 58.7267 27.467 60.8019 26.5274 62.4022L28.7162 63.7134C29.6661 64.2813 30.8844 63.9819 31.4523 63.0424C31.6381 62.712 31.7517 62.3609 31.7517 62.0099C31.7517 61.3491 31.4006 60.6883 30.8018 60.3167L32.4847 61.3285C33.4243 61.8963 34.6529 61.5969 35.2207 60.6574C35.7886 59.7075 35.4892 58.4892 34.5393 57.9213L36.2532 58.9435C37.1927 59.5113 38.4214 59.2119 38.9892 58.2724C39.5468 57.3225 39.2577 56.1042 38.3181 55.5364L40.8683 57.0747C41.8182 57.6426 43.0468 57.3535 43.6146 56.4036V56.3933Z" fill="white"/>
<path d="M27.6939 30.9738C36.2324 30.9738 43.1808 24.0254 43.1808 15.4869C43.1808 6.94846 36.2324 0 27.6939 0C19.1555 0 12.207 6.94846 12.207 15.4869C12.207 24.0254 19.1555 30.9738 27.6939 30.9738ZM27.6939 2.06492C29.7382 2.06492 31.6689 2.53985 33.4034 3.3555L31.1733 9.86C30.8533 10.8512 31.9786 11.6668 32.8149 11.0473C33.0008 10.9028 33.2279 10.8202 33.4447 10.8202C34.0436 10.8202 34.6114 11.3674 34.4875 12.0695L34.1881 13.8866C34.0126 14.8468 35.1483 15.4972 35.9123 14.8674L40.4138 11.2228C40.8681 12.565 41.1159 13.9898 41.1159 15.4869C41.1159 21.9914 36.4699 27.4221 30.3164 28.6508L30.7397 26.1212C30.9565 24.81 29.9241 23.7053 28.6954 23.7053C28.4786 23.7053 28.2515 23.7363 28.0346 23.8085C26.4034 24.3557 24.8547 22.7967 25.3916 21.1758L25.9801 19.3999C26.2795 18.512 25.9491 17.5312 25.1644 17.0149L24.3281 16.4677C23.4918 15.8999 23.1718 14.8158 23.5847 13.8866L26.8163 6.61807C27.2913 5.53399 26.775 4.28471 25.6806 3.84075L23.2131 2.84959C24.6172 2.35401 26.1246 2.06492 27.6939 2.06492ZM16.7808 13.7937C18.1334 14.0518 18.98 15.4043 18.6496 16.7259L18.3089 18.0681C18.154 18.7288 18.2779 19.4309 18.6496 19.9884L19.8782 21.8262C20.2499 22.3837 20.3738 23.0858 20.2086 23.7466L19.5994 26.1625C16.3678 23.7053 14.272 19.8439 14.272 15.4869C14.272 14.7435 14.3442 14.0311 14.4681 13.3187L16.7808 13.7937Z" fill="white"/>
</svg>
