<svg width="59" height="59" viewBox="0 0 59 59" fill="none" xmlns="http://www.w3.org/2000/svg">
<path d="M54.1037 36.5293C54.9265 35.6109 55.4277 34.3986 55.4277 33.0723C55.4277 30.2133 53.1012 27.8867 50.2422 27.8867H40.1776C41.1744 24.8618 41.5996 20.8482 41.5996 19.1278V17.4004C41.5996 13.5884 38.4975 10.4863 34.6855 10.4863H32.957C32.1642 10.4863 31.4728 11.0256 31.2804 11.7954L30.3389 15.5624C29.0195 20.8378 24.8307 26.6583 20.4956 27.7162C19.7362 25.7941 17.8613 24.4297 15.6719 24.4297H5.30078C4.34664 24.4297 3.57227 25.2041 3.57227 26.1582V57.2715C3.57227 58.2256 4.34664 59 5.30078 59H15.6719C17.7334 59 19.5172 57.7912 20.3527 56.0442L26.2919 58.024C28.2336 58.6716 30.2571 59 32.3048 59H46.7852C49.6441 59 51.9707 56.6734 51.9707 53.8145C51.9707 53.1403 51.8416 52.495 51.6066 51.9039C53.8052 51.3035 55.4277 49.288 55.4277 46.9004C55.4277 45.574 54.9265 44.3618 54.1037 43.4434C54.9265 42.5249 55.4277 41.3127 55.4277 39.9863C55.4277 38.66 54.9265 37.4477 54.1037 36.5293ZM17.4004 53.8145C17.4004 54.7674 16.6249 55.543 15.6719 55.543H7.0293V27.8867H15.6719C16.6249 27.8867 17.4004 28.6622 17.4004 29.6152V53.8145ZM46.7852 38.2578H50.2422C51.1952 38.2578 51.9707 39.0333 51.9707 39.9863C51.9707 40.9393 51.1952 41.7148 50.2422 41.7148H46.7852C45.831 41.7148 45.0566 42.4892 45.0566 43.4434C45.0566 44.3975 45.831 45.1719 46.7852 45.1719H50.2422C51.1952 45.1719 51.9707 45.9474 51.9707 46.9004C51.9707 47.8534 51.1952 48.6289 50.2422 48.6289H46.7852C45.831 48.6289 45.0566 49.4033 45.0566 50.3574C45.0566 51.3116 45.831 52.0859 46.7852 52.0859C47.7381 52.0859 48.5137 52.8615 48.5137 53.8145C48.5137 54.7674 47.7381 55.543 46.7852 55.543H32.3048C30.6293 55.543 28.9734 55.2745 27.3843 54.7444L20.8574 52.5688V31.1801C23.5689 30.665 26.2227 28.948 28.6185 26.1375C30.9577 23.3926 32.8545 19.7535 33.6922 16.4013L34.3064 13.9434H34.6855C36.5915 13.9434 38.1426 15.4944 38.1426 17.4004V19.1278C38.1426 21.4486 37.4166 25.9001 36.4878 27.8867H32.957C32.0029 27.8867 31.2285 28.6611 31.2285 29.6152C31.2285 30.5694 32.0029 31.3438 32.957 31.3438H50.2422C51.1952 31.3438 51.9707 32.1193 51.9707 33.0723C51.9707 34.0253 51.1952 34.8008 50.2422 34.8008H46.7852C45.831 34.8008 45.0566 35.5752 45.0566 36.5293C45.0566 37.4834 45.831 38.2578 46.7852 38.2578Z" fill="white"/>
<path d="M12.2148 52.0859C13.1695 52.0859 13.9434 51.3121 13.9434 50.3574C13.9434 49.4028 13.1695 48.6289 12.2148 48.6289C11.2602 48.6289 10.4863 49.4028 10.4863 50.3574C10.4863 51.3121 11.2602 52.0859 12.2148 52.0859Z" fill="white"/>
<path d="M36.4141 0C35.4595 0 34.6855 0.773914 34.6855 1.72852V5.30078C34.6855 6.25538 35.4595 7.0293 36.4141 7.0293C37.3687 7.0293 38.1426 6.25538 38.1426 5.30078V1.72852C38.1426 0.773914 37.3687 0 36.4141 0Z" fill="white"/>
<path d="M29.0808 7.62262L26.6363 5.17816C25.9614 4.50311 24.8669 4.50311 24.1918 5.17816C23.5168 5.8532 23.5168 6.94758 24.1918 7.62262L26.6363 10.0671C27.3112 10.742 28.4058 10.7421 29.0808 10.0671C29.7558 9.39205 29.7558 8.29767 29.0808 7.62262Z" fill="white"/>
<path d="M48.6364 5.17816C47.9615 4.50311 46.867 4.50311 46.192 5.17816L43.7475 7.62251C43.0725 8.29755 43.0725 9.39193 43.7475 10.067C44.4224 10.742 45.5169 10.7421 46.192 10.0671L48.6364 7.62262C49.3115 6.94758 49.3115 5.8532 48.6364 5.17816Z" fill="white"/>
</svg>
