<svg width="57" height="57" viewBox="0 0 57 57" fill="none" xmlns="http://www.w3.org/2000/svg">
<path d="M56.0537 47.9377H52.1057V45.3762C52.1057 44.8534 51.682 44.4299 51.1594 44.4299H5.84055C5.3179 44.4299 4.89427 44.8536 4.89427 45.3762V47.9377H0.946282C0.423638 47.9377 0 48.3613 0 48.8837V51.4454H57V48.8837C57 48.3612 56.5764 47.9377 56.0537 47.9377Z" fill="white"/>
<path d="M8.36327 23.5056H5.80986C5.30419 23.5056 4.89429 23.9155 4.89429 24.4212V40.0066C4.89429 40.5123 5.30419 40.9223 5.80986 40.9223H8.36327C8.86908 40.9223 9.27898 40.5123 9.27898 40.0066V24.4212C9.27898 23.9155 8.86908 23.5056 8.36327 23.5056Z" fill="white"/>
<path d="M22.5822 23.5056H20.0287C19.5231 23.5056 19.113 23.9155 19.113 24.4212V40.0066C19.113 40.5123 19.5231 40.9223 20.0287 40.9223H22.5822C23.0877 40.9223 23.4977 40.5123 23.4977 40.0066V24.4212C23.4977 23.9155 23.0877 23.5056 22.5822 23.5056Z" fill="white"/>
<path d="M51.1903 23.5056H48.6368C48.1311 23.5056 47.7212 23.9155 47.7212 24.4212V40.0066C47.7212 40.5123 48.1311 40.9223 48.6368 40.9223H51.1903C51.6958 40.9223 52.1059 40.5123 52.1059 40.0066V24.4212C52.1059 23.9155 51.6958 23.5056 51.1903 23.5056Z" fill="white"/>
<path d="M36.8011 23.5056H34.2476C33.7419 23.5056 33.332 23.9155 33.332 24.4212V40.0066C33.332 40.5123 33.7419 40.9223 34.2476 40.9223H36.8011C37.3068 40.9223 37.7167 40.5123 37.7167 40.0066V24.4212C37.7167 23.9155 37.3068 23.5056 36.8011 23.5056Z" fill="white"/>
<path d="M56.4073 15.7207L30.3136 5.88539C29.1447 5.44478 27.8553 5.44478 26.6864 5.88539L0.592689 15.7207C0.236133 15.8551 0 16.1963 0 16.5774V19.0823C0 19.588 0.410033 19.9979 0.915705 19.9979H28.5H56.0843C56.59 19.9979 57 19.588 57 19.0823V16.5774C57 16.1963 56.7639 15.855 56.4073 15.7207ZM28.5 16.7292C26.4388 16.7292 24.7678 15.0583 24.7678 12.9971C24.7678 10.9359 26.4388 9.2648 28.5 9.2648C30.5612 9.2648 32.2322 10.9358 32.2322 12.9971C32.2322 15.0582 30.5612 16.7292 28.5 16.7292Z" fill="white"/>
</svg>
