<svg width="49" height="49" viewBox="0 0 49 49" fill="none" xmlns="http://www.w3.org/2000/svg">
<path d="M2.46972 35.4658V11.6572C1.63004 11.8795 0.790246 12.1512 0 12.3982V42.4552C6.62934 40.6229 13.6738 40.9867 20.0791 43.4925C15.7263 39.0912 9.79599 36.6106 3.60589 36.6018C2.98386 36.5888 2.48292 36.0877 2.46972 35.4658Z" fill="white"/>
<path d="M4.79138 5.16187L4.71729 34.4532C11.9874 34.8297 18.7678 38.2333 23.4133 43.8383V15.9053C19.1721 9.66856 12.3134 5.71166 4.79138 5.16187Z" fill="white"/>
<path d="M46.5302 11.7068V35.4906C46.5171 36.1125 46.0161 36.6135 45.3942 36.6266C39.2178 36.6321 33.3016 39.1143 28.9702 43.5173V43.5419C35.3545 41.0273 42.3811 40.646 48.9999 42.4552V12.4476C48.2097 12.176 47.3947 11.9044 46.5302 11.7068Z" fill="white"/>
<path d="M44.3076 5.16187C36.7555 5.65701 29.8595 9.62491 25.6362 15.9053V43.8383C30.2761 38.2394 37.0462 34.8365 44.3076 34.4532V5.16187Z" fill="white"/>
</svg>
