<svg width="56" height="56" viewBox="0 0 56 56" fill="none" xmlns="http://www.w3.org/2000/svg">
<path d="M54.496 35.7462L48.92 25.7143C48.7884 25.4785 48.6309 25.2671 48.463 25.0671V7.74485C48.4589 3.47778 44.924 0.00404079 40.5834 0H7.8796C3.53828 0.00404079 0.0041111 3.47778 0 7.74485V39.8894C0.0041111 44.1558 3.53828 47.6302 7.8796 47.6342H17.0021C17.307 47.8558 17.6421 48.0457 18.0141 48.1851L18.0135 48.1865L18.0326 48.1945L34.2448 54.542C36.1811 55.5003 38.3641 55.9993 40.6087 56C43.1014 56 45.6716 55.3845 48.0642 54.1008C53.0633 51.4137 55.9959 46.5122 56 41.5744C56.0007 39.5802 55.5169 37.5807 54.496 35.7462ZM3.76714 43.9315C2.70784 42.889 2.05555 41.4626 2.05555 39.8894V7.74485C2.05555 6.17096 2.70784 4.74456 3.76714 3.70271C4.82711 2.66221 6.27833 2.0204 7.8796 2.0204H40.5834C42.184 2.0204 43.6352 2.66221 44.6959 3.70271C45.7545 4.74456 46.4074 6.17096 46.4074 7.74485V23.7235C46.0073 23.605 45.5928 23.5383 45.1727 23.5383C44.4855 23.5383 43.7846 23.7026 43.1412 24.0474C42.4334 24.4286 41.8797 24.9802 41.5029 25.6206L41.3885 25.4159L41.3898 25.4173C40.6163 24.0245 39.1486 23.2373 37.6426 23.2379C36.956 23.2373 36.2537 23.4016 35.6096 23.7491C35.2561 23.9383 34.9628 24.1969 34.7306 24.4859C34.3811 24.9209 34.1618 25.4186 34.0221 25.9304C34.0097 25.9749 34.007 26.0227 33.996 26.0678C33.2396 25.486 32.3057 25.1688 31.354 25.1694C30.6667 25.1688 29.9644 25.3338 29.3203 25.6806C28.6139 26.0604 28.061 26.612 27.6848 27.2511L23.8546 20.3602C23.079 18.9708 21.6134 18.1836 20.106 18.1836C19.4195 18.1836 18.7171 18.3479 18.0731 18.6954L18.0744 18.6947C16.6602 19.4564 15.8599 20.8976 15.8613 22.3766C15.8613 23.0521 16.0285 23.7403 16.3786 24.372L16.3793 24.3734L26.3679 42.3448L21.0173 40.3547L21.0125 40.3534C20.5274 40.1749 20.0252 40.0887 19.5311 40.0894C17.8038 40.0894 16.1751 41.1252 15.5331 42.8088C15.5317 42.8122 15.5324 42.8162 15.531 42.8196C15.3508 43.2944 15.2652 43.7854 15.2652 44.2669C15.2652 44.7302 15.3502 45.1841 15.4995 45.6158H7.8796C6.27833 45.6138 4.82711 44.972 3.76714 43.9315ZM47.0796 52.3276C44.9891 53.4496 42.7582 53.9789 40.6094 53.9789C38.6519 53.9796 36.7635 53.5398 35.1143 52.7115L35.0272 52.6731L18.774 46.3095L18.7541 46.3014C17.8737 45.9802 17.3221 45.1417 17.3221 44.2649C17.3221 44.0157 17.366 43.7645 17.4598 43.5166C17.4605 43.5153 17.4598 43.5133 17.4598 43.5133C17.625 43.0789 17.9148 42.7321 18.2814 42.4876C18.6466 42.2431 19.0871 42.1078 19.5318 42.1084C19.7847 42.1084 20.0402 42.1509 20.2924 42.2438L28.2378 45.199C28.6406 45.3491 29.0929 45.2374 29.3765 44.9168C29.6595 44.5969 29.7095 44.1416 29.5033 43.7692L18.1841 23.4049C18.0018 23.0763 17.9168 22.7261 17.9168 22.3759C17.9175 21.6041 18.3328 20.8559 19.0611 20.4666L19.0625 20.4659C19.3941 20.2868 19.749 20.204 20.106 20.2033C20.8912 20.204 21.6545 20.6148 22.0506 21.3293L27.6252 31.3599C27.6286 31.3653 27.6327 31.37 27.6355 31.3747L31.0347 37.4912C31.306 37.9808 31.9316 38.1606 32.429 37.8932C32.9278 37.6258 33.1101 37.0116 32.8388 36.522L29.4245 30.378C29.2484 30.052 29.1641 29.7086 29.1641 29.3638C29.1655 28.5906 29.5807 27.8417 30.307 27.4538C30.6414 27.2733 30.997 27.1905 31.354 27.1905C32.1351 27.1905 32.8915 27.5959 33.2924 28.3071L36.7059 34.4457C36.9773 34.9353 37.6028 35.1152 38.1003 34.8471C38.5984 34.5804 38.7813 33.9656 38.51 33.4766L36.3517 29.5948C36.3503 29.5927 36.3503 29.5907 36.349 29.5887C36.3462 29.584 36.3448 29.5786 36.3421 29.5746C36.0797 29.1173 35.8734 28.2876 35.8796 27.5104C35.8782 27.0026 35.9611 26.5157 36.1037 26.1641C36.1742 25.987 36.2571 25.8449 36.3414 25.7412C36.4264 25.6368 36.5093 25.5688 36.5977 25.5216C36.9293 25.3425 37.2856 25.2597 37.6426 25.2597C38.4285 25.2597 39.1897 25.6685 39.5844 26.3844L39.5851 26.3857L41.4447 29.7295C41.446 29.7328 41.4488 29.7348 41.4508 29.7389L42.9932 32.5149C43.2645 33.0052 43.8901 33.185 44.3875 32.9183C44.8856 32.6503 45.0686 32.0368 44.7973 31.5465L43.246 28.7543C43.0679 28.4283 42.9836 28.0801 42.9836 27.7326C42.9836 26.9588 43.3995 26.2093 44.1258 25.822C44.4588 25.6429 44.8151 25.56 45.1721 25.5594C45.9573 25.5607 46.7192 25.9688 47.1159 26.6841L52.6913 36.716C53.5409 38.2454 53.9431 39.9001 53.9438 41.5757C53.9486 45.7189 51.4504 49.9826 47.0796 52.3276Z" fill="#FEFEFE"/>
</svg>
