<?xml version="1.0" encoding="utf-8"?>
<!-- Generator: Adobe Illustrator 24.2.1, SVG Export Plug-In . SVG Version: 6.00 Build 0)  -->
<svg version="1.1" id="Layer_1" xmlns="http://www.w3.org/2000/svg" xmlns:xlink="http://www.w3.org/1999/xlink" x="0px" y="0px"
	 viewBox="0 0 114 114" style="enable-background:new 0 0 114 114;" xml:space="preserve">
<style type="text/css">
	.st0{fill:#FEFEFE;}
	.st1{display:none;}
	.st2{display:inline;fill:#FFFFFF;}
	.st3{fill:#FFFFFF;}
</style>
<g>
	<path class="st0" d="M80.6,101.2c0.3,0.4,0.7,0.6,1.2,0.7c0.5,0,1-0.1,1.6-0.4c0.4-0.2,0.7-0.5,0.9-0.8c0.2-0.3,0.3-0.6,0.4-0.9
		c0-0.3,0-0.6-0.2-0.9c-0.1-0.2-0.3-0.4-0.5-0.5c-0.2-0.1-0.4-0.2-0.7-0.2c-0.2,0-0.5,0-0.7,0.1c-0.2,0-0.4,0.1-0.6,0.1l-1,0.3
		c-0.3,0.1-0.6,0.1-0.9,0.2c-0.3,0.1-0.7,0.1-1.1,0c-0.4,0-0.7-0.1-1-0.3c-0.3-0.2-0.6-0.5-0.9-0.9c-0.3-0.5-0.4-1-0.4-1.5
		c0-0.5,0.2-1,0.6-1.5c0.3-0.5,0.9-0.9,1.5-1.3c0.6-0.4,1.2-0.6,1.8-0.6c0.6-0.1,1.1,0,1.6,0.2c0.5,0.2,0.9,0.6,1.2,1l-1.1,0.6
		c-0.2-0.3-0.5-0.5-0.8-0.6c-0.3-0.1-0.7-0.1-1,0c-0.4,0.1-0.7,0.2-1.1,0.4c-0.4,0.2-0.7,0.5-1,0.8c-0.2,0.3-0.4,0.7-0.4,1
		c-0.1,0.4,0,0.7,0.2,1c0.2,0.3,0.4,0.5,0.7,0.6c0.3,0.1,0.6,0.1,0.9,0.1c0.3,0,0.7-0.1,1-0.2l1.3-0.3c0.8-0.2,1.5-0.2,2.1-0.1
		s1.1,0.5,1.4,1.1c0.3,0.5,0.4,1,0.3,1.5c-0.1,0.5-0.3,1-0.6,1.5c-0.3,0.5-0.8,0.9-1.3,1.2c-0.6,0.3-1.1,0.5-1.7,0.6
		c-0.6,0.1-1.1,0-1.5-0.2c-0.5-0.2-0.8-0.5-1.1-1L80.6,101.2z"/>
	<path class="st0" d="M66.1,105.6l1.2-0.3c0.2,0.3,0.4,0.6,0.6,0.8c0.2,0.2,0.5,0.4,0.8,0.5c0.3,0.1,0.6,0.2,0.9,0.2
		c0.3,0,0.7,0,1-0.1c0.6-0.2,1.1-0.5,1.5-0.9c0.4-0.4,0.7-1,0.8-1.6c0.1-0.7,0.1-1.4-0.2-2.3c-0.2-0.9-0.6-1.5-1-2
		c-0.4-0.5-0.9-0.8-1.5-1c-0.6-0.2-1.1-0.2-1.7,0c-0.3,0.1-0.6,0.2-0.9,0.4c-0.3,0.2-0.5,0.4-0.7,0.6c-0.2,0.2-0.4,0.5-0.5,0.8
		c-0.1,0.3-0.1,0.6-0.1,1l-1.2,0.3c0-0.5,0-1,0.1-1.5c0.1-0.5,0.3-0.9,0.6-1.2c0.3-0.4,0.6-0.7,1-0.9c0.4-0.3,0.8-0.5,1.3-0.6
		c0.8-0.2,1.6-0.2,2.4,0c0.8,0.2,1.4,0.7,2,1.3c0.6,0.7,1,1.5,1.3,2.5c0.3,1,0.3,2,0.2,2.8c-0.2,0.9-0.5,1.6-1.1,2.2
		c-0.5,0.6-1.2,1-2.1,1.2c-0.5,0.1-1,0.2-1.5,0.2c-0.5,0-0.9-0.1-1.4-0.3c-0.4-0.2-0.8-0.4-1.2-0.8C66.6,106.5,66.3,106,66.1,105.6z
		"/>
	<path class="st0" d="M60.5,99.1v10.2h-3.4c-0.8,0-1.4-0.1-2-0.4c-0.5-0.3-0.9-0.6-1.1-1.1c-0.2-0.5-0.4-1-0.4-1.6
		c0-0.6,0.1-1.1,0.4-1.6c0.2-0.5,0.6-0.8,1.1-1.1c0.5-0.3,1.2-0.4,1.9-0.4h2.8v1.1h-2.7c-0.5,0-1,0.1-1.3,0.2
		c-0.3,0.2-0.6,0.4-0.7,0.7c-0.2,0.3-0.2,0.6-0.2,1.1c0,0.4,0.1,0.8,0.2,1.1c0.2,0.3,0.4,0.5,0.7,0.7c0.3,0.2,0.8,0.3,1.3,0.3h2.2
		v-9.1H60.5z M55.7,103.7l-2.5-4.6h1.4l2.5,4.6H55.7z"/>
	<path class="st0" d="M40.3,101.4c0.3-1,0.7-1.9,1.3-2.5c0.6-0.7,1.2-1.1,2-1.3c0.8-0.2,1.6-0.2,2.4,0c0.8,0.2,1.5,0.6,2.1,1.2
		c0.5,0.6,0.9,1.3,1.1,2.2c0.2,0.9,0.1,1.8-0.2,2.8c-0.3,1-0.7,1.9-1.3,2.5s-1.2,1.1-2,1.3s-1.6,0.2-2.4,0c-0.8-0.2-1.5-0.6-2.1-1.2
		c-0.5-0.6-0.9-1.3-1.1-2.2C40,103.4,40,102.4,40.3,101.4z M41.4,101.7c-0.2,0.9-0.3,1.6-0.2,2.3c0.1,0.7,0.4,1.2,0.8,1.6
		c0.4,0.4,0.9,0.7,1.5,0.9c0.6,0.2,1.2,0.2,1.7,0c0.6-0.2,1.1-0.5,1.5-1c0.4-0.5,0.8-1.2,1-2c0.2-0.9,0.3-1.6,0.2-2.3
		c-0.1-0.7-0.4-1.2-0.8-1.6c-0.4-0.4-0.9-0.7-1.5-0.9c-0.6-0.2-1.2-0.2-1.7,0c-0.6,0.2-1.1,0.5-1.5,1
		C42,100.2,41.7,100.8,41.4,101.7z"/>
	<path class="st0" d="M37.9,94.6l-5.1,8.8l-1.1-0.6l4.5-7.9l-4.1-2.4l0.5-0.9L37.9,94.6z"/>
	<path class="st0" d="M28.6,88.3l-7.2,7.2l-0.9-0.9l6.4-6.4l-3.3-3.3l0.8-0.8L28.6,88.3z"/>
	<path class="st0" d="M15.9,67.9l0.8,3l-9.8,2.6l-0.8-3.2c-0.3-1-0.3-1.8-0.1-2.6c0.2-0.8,0.6-1.5,1.3-2c0.6-0.6,1.5-1,2.5-1.2
		c1-0.3,2-0.3,2.8-0.2c0.8,0.2,1.5,0.5,2.1,1.1C15.2,66.1,15.7,66.9,15.9,67.9z M15.4,70l-0.5-1.8c-0.2-0.8-0.6-1.4-1-1.9
		c-0.5-0.5-1-0.7-1.7-0.8c-0.6-0.1-1.4-0.1-2.2,0.2c-0.8,0.2-1.4,0.5-1.9,0.9c-0.5,0.4-0.8,0.9-1,1.5c-0.2,0.6-0.2,1.3,0.1,2.1
		l0.5,1.9L15.4,70z"/>
	<path class="st0" d="M9.2,51.4c1.1,0,2,0.2,2.8,0.6c0.8,0.4,1.4,0.9,1.8,1.6c0.4,0.7,0.6,1.4,0.6,2.3c0,0.9-0.2,1.6-0.6,2.3
		c-0.4,0.7-1,1.2-1.8,1.6c-0.8,0.4-1.7,0.6-2.8,0.6s-2-0.2-2.8-0.6c-0.8-0.4-1.4-0.9-1.8-1.6C4.2,57.6,4,56.8,4,55.9
		c0-0.9,0.2-1.6,0.6-2.3c0.4-0.7,1-1.2,1.8-1.6C7.2,51.6,8.1,51.4,9.2,51.4z M9.2,52.6c-0.9,0-1.6,0.1-2.2,0.4
		c-0.6,0.3-1.1,0.7-1.4,1.2c-0.3,0.5-0.5,1.1-0.5,1.7c0,0.6,0.2,1.2,0.5,1.7c0.3,0.5,0.8,0.9,1.4,1.2c0.6,0.3,1.4,0.4,2.2,0.4
		s1.6-0.1,2.2-0.4c0.6-0.3,1.1-0.7,1.4-1.2c0.3-0.5,0.5-1.1,0.5-1.7c0-0.6-0.2-1.2-0.5-1.7c-0.3-0.5-0.8-0.9-1.4-1.2
		C10.8,52.8,10.1,52.6,9.2,52.6z"/>
	<path class="st0" d="M14.9,48.2L4.3,48.3l0.3-1.2l8.6,0.1l0-0.1l-7.4-4.2l0.4-1.3l8.6,0.1l0-0.1l-7.5-4.2L7.6,36l9.1,5.3l-0.3,1.2
		L8,42.7l0,0.1l7.3,4.3L14.9,48.2z"/>
	<path class="st0" d="M13.4,25.9l8.8,5.1l-0.6,1l-9.7,0.8l0,0.1l6.9,4l-0.6,1.1l-8.8-5.1l0.6-1l9.7-0.8l0-0.1l-6.9-4L13.4,25.9z"/>
	<path class="st0" d="M34,11.1c-0.3-0.4-0.7-0.6-1.2-0.7c-0.5,0-1,0.1-1.6,0.4c-0.4,0.2-0.7,0.5-0.9,0.8c-0.2,0.3-0.3,0.6-0.4,0.9
		c0,0.3,0,0.6,0.2,0.9c0.1,0.2,0.3,0.4,0.5,0.5c0.2,0.1,0.4,0.2,0.7,0.2c0.2,0,0.5,0,0.7-0.1c0.2,0,0.4-0.1,0.6-0.1l1-0.3
		c0.3-0.1,0.6-0.1,0.9-0.2c0.3-0.1,0.7-0.1,1.1,0c0.4,0,0.7,0.1,1,0.3c0.3,0.2,0.6,0.5,0.9,0.9c0.3,0.5,0.4,1,0.4,1.5
		c0,0.5-0.2,1-0.6,1.5c-0.3,0.5-0.9,0.9-1.5,1.3c-0.6,0.4-1.2,0.6-1.8,0.6c-0.6,0.1-1.1,0-1.6-0.2c-0.5-0.2-0.9-0.6-1.2-1l1.1-0.6
		c0.2,0.3,0.5,0.5,0.8,0.6c0.3,0.1,0.7,0.1,1,0c0.4-0.1,0.7-0.2,1.1-0.4c0.4-0.2,0.7-0.5,1-0.8c0.2-0.3,0.4-0.7,0.4-1
		c0.1-0.4,0-0.7-0.2-1c-0.2-0.3-0.4-0.5-0.7-0.6c-0.3-0.1-0.6-0.1-0.9-0.1c-0.3,0-0.7,0.1-1,0.2l-1.3,0.3c-0.8,0.2-1.5,0.2-2.1,0.1
		c-0.6-0.1-1.1-0.5-1.4-1.1c-0.3-0.5-0.4-1-0.3-1.5c0.1-0.5,0.3-1,0.6-1.5c0.3-0.5,0.8-0.9,1.3-1.2c0.6-0.3,1.1-0.5,1.7-0.6
		c0.6-0.1,1.1,0,1.5,0.2c0.5,0.2,0.8,0.5,1.1,1L34,11.1z"/>
	<path class="st0" d="M48.5,6.7L47.4,7c-0.2-0.3-0.4-0.6-0.6-0.8c-0.2-0.2-0.5-0.4-0.8-0.5c-0.3-0.1-0.6-0.2-0.9-0.2
		c-0.3,0-0.7,0-1,0.1c-0.6,0.2-1.1,0.5-1.5,0.9c-0.4,0.4-0.7,1-0.8,1.6c-0.1,0.7-0.1,1.4,0.2,2.3s0.6,1.5,1,2c0.4,0.5,0.9,0.9,1.5,1
		c0.6,0.2,1.1,0.2,1.7,0c0.3-0.1,0.6-0.2,0.9-0.4c0.3-0.2,0.5-0.4,0.7-0.6c0.2-0.2,0.4-0.5,0.5-0.8c0.1-0.3,0.1-0.6,0.1-1l1.2-0.3
		c0,0.5,0,1-0.1,1.5c-0.1,0.5-0.3,0.9-0.6,1.3c-0.3,0.4-0.6,0.7-1,0.9c-0.4,0.3-0.8,0.5-1.3,0.6c-0.8,0.2-1.6,0.2-2.4,0
		c-0.8-0.2-1.4-0.7-2-1.3s-1-1.5-1.3-2.5s-0.3-2-0.2-2.8c0.2-0.9,0.5-1.6,1.1-2.2s1.2-1,2.1-1.2c0.5-0.1,1-0.2,1.5-0.2
		c0.5,0,0.9,0.1,1.4,0.3c0.4,0.2,0.8,0.4,1.2,0.8C48,5.8,48.3,6.2,48.5,6.7z"/>
	<path class="st0" d="M54.1,13.1V3h3.4c0.8,0,1.4,0.1,2,0.4C60,3.6,60.3,4,60.6,4.5C60.8,5,61,5.5,61,6.1c0,0.6-0.1,1.1-0.4,1.6
		c-0.2,0.5-0.6,0.8-1.1,1.1c-0.5,0.3-1.2,0.4-1.9,0.4h-2.8V8.1h2.7c0.5,0,1-0.1,1.3-0.2c0.3-0.2,0.6-0.4,0.7-0.7
		c0.2-0.3,0.2-0.6,0.2-1.1S59.7,5.3,59.5,5c-0.2-0.3-0.4-0.5-0.7-0.7c-0.3-0.2-0.8-0.3-1.3-0.3h-2.2v9.1H54.1z M58.8,8.6l2.5,4.6
		h-1.4l-2.5-4.6H58.8z"/>
	<path class="st0" d="M74.3,10.9c-0.3,1-0.7,1.9-1.3,2.5c-0.6,0.7-1.2,1.1-2,1.3c-0.8,0.2-1.6,0.2-2.4,0c-0.8-0.2-1.5-0.6-2.1-1.2
		c-0.5-0.6-0.9-1.3-1.1-2.2c-0.2-0.9-0.1-1.8,0.2-2.8c0.3-1,0.7-1.9,1.3-2.5c0.6-0.7,1.2-1.1,2-1.3s1.6-0.2,2.4,0
		c0.8,0.2,1.5,0.6,2.1,1.2c0.5,0.6,0.9,1.3,1.1,2.2C74.6,8.9,74.6,9.9,74.3,10.9z M73.2,10.6c0.2-0.9,0.3-1.6,0.2-2.3
		c-0.1-0.7-0.4-1.2-0.8-1.6C72.1,6.3,71.6,6,71,5.8c-0.6-0.2-1.2-0.2-1.7,0c-0.6,0.2-1.1,0.5-1.5,1c-0.4,0.5-0.8,1.2-1,2
		c-0.2,0.9-0.3,1.6-0.2,2.3c0.1,0.7,0.4,1.2,0.8,1.6c0.4,0.4,0.9,0.7,1.5,0.9c0.6,0.2,1.2,0.2,1.7,0c0.6-0.2,1.1-0.5,1.5-1
		C72.6,12.1,72.9,11.5,73.2,10.6z"/>
	<path class="st0" d="M76.7,17.7l5.1-8.8l1.1,0.6l-4.5,7.9l4.1,2.4l-0.5,0.9L76.7,17.7z"/>
	<path class="st0" d="M86,24l7.2-7.2l0.9,0.9l-6.4,6.4l3.3,3.3l-0.8,0.8L86,24z"/>
	<path class="st0" d="M98.7,44.4l-0.8-3l9.8-2.6l0.8,3.2c0.3,1,0.3,1.8,0.1,2.6c-0.2,0.8-0.6,1.5-1.3,2c-0.6,0.6-1.5,1-2.5,1.2
		c-1,0.3-2,0.3-2.8,0.2c-0.8-0.2-1.5-0.5-2.1-1.1C99.4,46.2,98.9,45.4,98.7,44.4z M99.2,42.3l0.5,1.8c0.2,0.8,0.6,1.4,1,1.9
		c0.5,0.5,1,0.7,1.7,0.8c0.7,0.1,1.4,0.1,2.2-0.2c0.8-0.2,1.4-0.5,1.9-0.9c0.5-0.4,0.8-0.9,1-1.5c0.2-0.6,0.2-1.3-0.1-2.1l-0.5-1.9
		L99.2,42.3z"/>
	<path class="st0" d="M105.4,60.9c-1.1,0-2-0.2-2.8-0.6c-0.8-0.4-1.4-0.9-1.8-1.6c-0.4-0.7-0.6-1.4-0.6-2.3c0-0.9,0.2-1.6,0.6-2.3
		c0.4-0.7,1-1.2,1.8-1.6c0.8-0.4,1.7-0.6,2.8-0.6c1.1,0,2,0.2,2.8,0.6c0.8,0.4,1.4,0.9,1.8,1.6c0.4,0.7,0.6,1.4,0.6,2.3
		c0,0.9-0.2,1.6-0.6,2.3c-0.4,0.7-1,1.2-1.8,1.6C107.4,60.7,106.5,60.9,105.4,60.9z M105.4,59.7c0.9,0,1.6-0.1,2.2-0.4
		c0.6-0.3,1.1-0.7,1.4-1.2c0.3-0.5,0.5-1.1,0.5-1.7c0-0.6-0.2-1.2-0.5-1.7c-0.3-0.5-0.8-0.9-1.4-1.2c-0.6-0.3-1.3-0.4-2.2-0.4
		c-0.9,0-1.6,0.1-2.2,0.4c-0.6,0.3-1.1,0.7-1.4,1.2c-0.3,0.5-0.5,1.1-0.5,1.7c0,0.6,0.2,1.2,0.5,1.7c0.3,0.5,0.8,0.9,1.4,1.2
		C103.8,59.5,104.5,59.7,105.4,59.7z"/>
	<path class="st0" d="M99.7,64.1l10.6-0.1l-0.3,1.2l-8.6-0.1l0,0.1l7.4,4.2l-0.4,1.3l-8.6-0.1l0,0.1l7.5,4.2l-0.3,1.2l-9.1-5.3
		l0.3-1.2l8.4-0.1l0-0.1l-7.3-4.3L99.7,64.1z"/>
	<path class="st0" d="M101.2,86.4l-8.8-5.1l0.6-1l9.7-0.8l0-0.1l-6.9-4l0.6-1.1l8.8,5.1l-0.6,1l-9.7,0.8l0,0.1l6.9,4L101.2,86.4z"/>
</g>
<g class="st1">
	<polygon class="st2" points="365.7,63.5 365.1,63.5 365.1,3.3 365.7,3.3 	"/>
	<polygon class="st2" points="365.7,63.5 365.3,63.9 360.6,59.3 361,58.8 361,58.8 	"/>
	
		<rect x="367.3" y="58.1" transform="matrix(-0.7071 -0.7071 0.7071 -0.7071 584.1584 364.7349)" class="st2" width="0.6" height="6.6"/>
</g>
<polygon class="st3" points="57.5,86.3 62.1,81.7 61.7,81.3 57.6,85.4 57.6,25.8 57,25.8 57,85.3 52.9,81.3 52.9,81.3 52.5,81.7 
	57.2,86.4 57.2,86.4 57.3,86.5 "/>
</svg>
