<svg width="11" height="8" viewBox="0 0 11 8" fill="none" xmlns="http://www.w3.org/2000/svg">
<path d="M10.4636 2.64706C10.5469 2.58453 10.672 2.64706 10.672 2.75128V7.00341C10.672 7.56619 10.2134 8.00391 9.67151 8.00391H1.0005C0.437719 8.00391 0 7.56619 0 7.00341V2.75128C0 2.64706 0.104219 2.58453 0.187594 2.64706C0.667 3.02225 1.27147 3.48081 3.39753 5.02325C3.83525 5.3359 4.58563 6.02375 5.336 6.02375C6.06553 6.02375 6.83675 5.3359 7.25363 5.02325C9.37969 3.48081 9.98416 3.02225 10.4636 2.64706ZM5.336 5.3359C4.83575 5.35675 4.14791 4.73144 3.79356 4.48131C1.02134 2.48031 0.812907 2.29272 0.187594 1.79247C0.0625313 1.70909 0 1.56318 0 1.39643V1.0004C0 0.458465 0.437719 -9.799e-05 1.0005 -9.799e-05H9.67151C10.2134 -9.799e-05 10.672 0.458465 10.672 1.0004V1.39643C10.672 1.56318 10.5886 1.70909 10.4636 1.79247C9.83826 2.29272 9.62982 2.48031 6.8576 4.48131C6.50325 4.73144 5.81541 5.35675 5.336 5.3359Z" fill="#0060AA"/>
</svg>
