<svg width="28" height="24" viewBox="0 0 28 24" fill="none" xmlns="http://www.w3.org/2000/svg">
<path d="M1.37091 0H26.5628C27.3191 0 27.9351 0.760689 27.9351 1.69404V20.182C27.9351 20.4141 27.8967 20.6377 27.8275 20.84C27.6187 21.4472 27.1313 21.8746 26.5628 21.8746H1.37091C0.614573 21.8746 0 21.116 0 20.182V1.69404C0 0.760689 0.614573 0 1.37091 0ZM0.86948 20.2626H27.0656V2.00751C27.0656 1.42797 26.7604 0.958822 26.3847 0.958822H1.549C1.17397 0.958822 0.86948 1.42868 0.86948 2.00751V20.2626Z" fill="white"/>
<path d="M4.46939 23.9443H23.5581V23.9153C23.5581 23.0542 22.8695 22.3564 22.0196 22.3564H6.00792C5.15799 22.3564 4.46939 23.0542 4.46939 23.9153V23.9443Z" fill="white"/>
</svg>
