<svg width="11" height="11" viewBox="0 0 11 11" fill="none" xmlns="http://www.w3.org/2000/svg">
<path d="M10.3593 7.54533C10.5261 7.6287 10.6512 7.8163 10.6512 8.02473C10.6512 8.04558 10.6512 8.08726 10.6512 8.12895L10.1509 10.2967C10.0884 10.526 9.90079 10.6719 9.67151 10.6719C4.31466 10.6719 0 6.35723 0 1.00039C0 0.771105 0.145906 0.583511 0.375188 0.52098L2.54294 0.0207294C2.58463 0.0207294 2.62631 -0.000114322 2.64716 -0.000114322C2.8556 -0.000114322 3.04319 0.124948 3.12656 0.312542L4.12706 2.64704C4.14791 2.70957 4.16875 2.77211 4.16875 2.83464C4.16875 3.00139 4.08538 3.14729 3.98116 3.23067L2.70969 4.27286C3.48091 5.89867 4.77322 7.19098 6.39903 7.9622L7.44122 6.69073C7.5246 6.58651 7.6705 6.50314 7.81641 6.50314C7.89979 6.50314 7.96232 6.52398 8.02485 6.54483L10.3593 7.54533Z" fill="#0060AA"/>
</svg>
