<svg width="180" height="32" viewBox="0 0 180 32" fill="none" xmlns="http://www.w3.org/2000/svg">
<path d="M16.1363 1.51467C16.458 0.883775 17.3594 0.883775 17.6812 1.51467L21.5281 9.05775C21.6598 9.31607 21.9119 9.49145 22.2 9.52507L31.0366 10.5568C31.7853 10.6443 32.0736 11.5794 31.5041 12.0732L25.1081 17.6192C24.871 17.8248 24.7635 18.1424 24.8269 18.4497L26.4834 26.4721C26.6303 27.1835 25.8897 27.7494 25.2419 27.4208L17.301 23.3926C17.0544 23.2675 16.763 23.2675 16.5164 23.3926L8.57555 27.4208C7.92773 27.7494 7.18718 27.1835 7.33407 26.4721L8.99054 18.4497C9.05399 18.1424 8.94647 17.8248 8.7094 17.6192L2.31336 12.0732C1.74386 11.5794 2.03217 10.6443 2.78086 10.5568L11.6175 9.52507C11.9055 9.49145 12.1577 9.31607 12.2894 9.05775L16.1363 1.51467Z" fill="#FBBF24"/>
<path d="M52.5547 1.51467C52.8765 0.883775 53.7779 0.883775 54.0996 1.51467L57.9465 9.05775C58.0783 9.31607 58.3304 9.49145 58.6184 9.52507L67.4551 10.5568C68.2037 10.6443 68.492 11.5794 67.9226 12.0732L61.5265 17.6192C61.2894 17.8248 61.1819 18.1424 61.2454 18.4497L62.9018 26.4721C63.0487 27.1835 62.3082 27.7494 61.6604 27.4208L53.7195 23.3926C53.4729 23.2675 53.1815 23.2675 52.9349 23.3926L44.994 27.4208C44.3462 27.7494 43.6056 27.1835 43.7525 26.4721L45.409 18.4497C45.4724 18.1424 45.3649 17.8248 45.1279 17.6192L38.7318 12.0732C38.1623 11.5794 38.4506 10.6443 39.1993 10.5568L48.036 9.52507C48.324 9.49145 48.5761 9.31607 48.7078 9.05775L52.5547 1.51467Z" fill="#FBBF24"/>
<path d="M88.974 1.51467C89.2958 0.883775 90.1972 0.883775 90.519 1.51467L94.3658 9.05775C94.4976 9.31607 94.7497 9.49145 95.0377 9.52507L103.874 10.5568C104.623 10.6443 104.911 11.5794 104.342 12.0732L97.9458 17.6192C97.7087 17.8248 97.6012 18.1424 97.6647 18.4497L99.3212 26.4721C99.468 27.1835 98.7275 27.7494 98.0797 27.4208L90.1388 23.3926C89.8922 23.2675 89.6008 23.2675 89.3542 23.3926L81.4133 27.4208C80.7655 27.7494 80.0249 27.1835 80.1718 26.4721L81.8283 18.4497C81.8918 18.1424 81.7842 17.8248 81.5472 17.6192L75.1511 12.0732C74.5816 11.5794 74.8699 10.6443 75.6186 10.5568L84.4553 9.52507C84.7433 9.49145 84.9954 9.31607 85.1272 9.05775L88.974 1.51467Z" fill="#FBBF24"/>
<path d="M125.392 1.51467C125.714 0.883775 126.616 0.883775 126.937 1.51467L130.784 9.05775C130.916 9.31607 131.168 9.49145 131.456 9.52507L140.293 10.5568C141.041 10.6443 141.33 11.5794 140.76 12.0732L134.364 17.6192C134.127 17.8248 134.02 18.1424 134.083 18.4497L135.739 26.4721C135.886 27.1835 135.146 27.7494 134.498 27.4208L126.557 23.3926C126.311 23.2675 126.019 23.2675 125.773 23.3926L117.832 27.4208C117.184 27.7494 116.443 27.1835 116.59 26.4721L118.247 18.4497C118.31 18.1424 118.203 17.8248 117.966 17.6192L111.569 12.0732C111 11.5794 111.288 10.6443 112.037 10.5568L120.874 9.52507C121.162 9.49145 121.414 9.31607 121.545 9.05775L125.392 1.51467Z" fill="#FBBF24"/>
<path d="M161.811 1.51467C162.133 0.883775 163.034 0.883775 163.356 1.51467L167.203 9.05775C167.335 9.31607 167.587 9.49145 167.875 9.52507L176.712 10.5568C177.46 10.6443 177.749 11.5794 177.179 12.0732L170.783 17.6192C170.546 17.8248 170.438 18.1424 170.502 18.4497L172.158 26.4721C172.305 27.1835 171.565 27.7494 170.917 27.4208L162.976 23.3926C162.729 23.2675 162.438 23.2675 162.191 23.3926L154.25 27.4208C153.603 27.7494 152.862 27.1835 153.009 26.4721L154.665 18.4497C154.729 18.1424 154.621 17.8248 154.384 17.6192L147.988 12.0732C147.419 11.5794 147.707 10.6443 148.456 10.5568L157.292 9.52507C157.58 9.49145 157.833 9.31607 157.964 9.05775L161.811 1.51467Z" fill="#FBBF24"/>
</svg>
