<svg width="125" height="25" viewBox="0 0 125 25" fill="none" xmlns="http://www.w3.org/2000/svg">
<path d="M22.75 24.5488H26.9424L30.2289 12.3003H26.0797L22.75 24.5488Z" fill="#004A7F"/>
<path d="M44.2461 24.5488H48.4385L51.725 12.3003H47.5326L44.2461 24.5488Z" fill="#004A7F"/>
<path d="M65.7773 24.5488H69.9286L73.1761 12.3003H68.9838L65.7773 24.5488Z" fill="#004A7F"/>
<path d="M40.3394 16.4925H44.5318C45.107 13.74 43.3405 12.3433 39.2302 12.3433C34.4627 12.3433 31.2583 14.6849 30.1491 18.6719C29.2022 22.3693 31.135 24.5897 35.613 24.5897C40.134 24.5897 42.8043 23.193 43.9156 20.0276H39.7232C39.107 21.4244 38.0388 22.1228 36.5599 22.1228C34.5448 22.1228 33.7232 20.8903 34.3394 18.5487C34.9967 16.1228 36.5599 14.7671 38.5729 14.7671C39.8875 14.7671 40.4627 15.3422 40.3394 16.4925Z" fill="#004A7F"/>
<path d="M61.8738 16.4925H66.0662C66.6414 13.74 64.8317 12.3433 60.7215 12.3433C55.995 12.3433 52.7496 14.6849 51.6815 18.6719C50.6955 22.3693 52.6263 24.5897 57.1063 24.5897C61.5863 24.5897 64.2566 23.193 65.4069 20.0276H61.2165C60.6393 21.4244 59.5301 22.1228 58.0512 22.1228C56.0382 22.1228 55.2165 20.8903 55.8718 18.5487C56.4901 16.1228 58.0512 14.7671 60.0642 14.7671C61.3808 14.7671 61.9971 15.3422 61.8738 16.4925Z" fill="#004A7F"/>
<path d="M6.59952 5.52175C12.1887 -0.0263418 18.9692 -1.46625 21.6827 2.31532C24.3961 6.09689 22.0114 13.7401 16.4222 19.2882C10.833 24.8774 4.05247 26.3153 1.29794 22.4926C-1.37237 18.672 1.01242 11.0678 6.59952 5.52175Z" fill="#F06321"/>
<path d="M10.3 2.56157C9.68377 3.01347 9.06754 3.54754 8.45132 4.12473C3.56054 8.97238 1.50438 15.6297 3.93027 18.9593C6.43624 22.287 12.4362 21.0545 17.4502 16.1637C20.1637 13.5345 21.9713 10.4924 22.7108 7.65777C22.9162 5.5626 22.6287 3.71186 21.6837 2.31509C19.5475 -0.642799 14.9443 -0.398365 10.3 2.56157Z" fill="#AE282E"/>
<path d="M17.3675 3.17796V3.30121C17.3266 3.99959 16.9157 4.86231 16.1762 5.60178C15.067 6.6699 13.588 7.08072 12.9698 6.46655C12.2714 5.80924 12.6843 4.36933 13.7934 3.21904C14.9437 2.10983 16.4227 1.7401 17.0389 2.3974C17.2443 2.60281 17.3675 2.8493 17.3675 3.17796ZM13.0951 22.0406C10.4638 24.0126 7.75237 25.0006 5.12109 24.5898C6.2303 24.6308 7.13614 23.3963 7.87561 21.7531C8.61509 20.0687 9.0259 18.5076 9.39563 17.0266C9.92969 14.685 9.97079 13.0417 9.68321 12.6719C9.23131 12.0948 8.24534 12.22 7.093 12.8774C6.51786 13.206 5.7784 13.0006 6.64316 11.9325C7.54696 10.8644 11.0389 8.31523 12.2714 7.90441C13.6702 7.53467 15.2313 8.06874 14.6972 9.58876C14.3255 10.698 9.47781 23.3552 13.0951 22.0406Z" fill="white"/>
<path d="M79.4641 22.6159L80.409 19.0828H82.7096V17.1931H80.943L81.7647 14.192H82.7096V12.3413H79.5853L76.3398 24.5898H82.7096V22.6159H79.4641ZM82.7096 19.0828H83.1615C85.2587 19.0828 86.2447 19.4526 85.8338 20.8904C85.5052 22.1639 84.4782 22.6159 82.7096 22.6159V24.5898C84.4371 24.5898 85.7106 24.4255 86.9841 23.5607C87.8468 22.9856 88.4651 22.1229 88.7116 21.1369C89.1615 19.4526 88.422 18.3002 86.4912 18.0558C88.2988 17.7271 89.4511 16.7802 89.8188 15.3012C90.1474 14.192 89.8598 13.3704 89.0793 12.8363C88.422 12.3844 87.3128 12.3413 85.8338 12.3413H82.7096V14.192H84.3138C86.2857 14.192 87.1895 14.4385 86.902 15.671C86.5322 16.8624 85.4641 17.1931 83.4511 17.1931H82.7096V19.0828Z" fill="#004A7F"/>
<path d="M94.2153 16.0018V17.5198C93.8867 17.6862 93.5991 17.9738 93.4759 18.3846H91.011C91.4197 17.1932 92.531 16.3695 94.2153 16.0018ZM94.2153 23.1932C93.9277 23.2754 93.5991 23.3164 93.2704 23.3164C92.1612 23.3164 91.6683 22.8625 91.9147 22.0408C92.1612 21.096 92.9007 20.7673 94.2153 20.6441V19.2062C91.3786 19.4116 89.8175 20.1511 89.3245 21.9998C88.8726 23.6841 89.9428 24.7954 92.1612 24.7954C92.9007 24.7954 93.5991 24.6721 94.2153 24.4256V23.1932ZM96.6001 20.6441L96.559 20.7673C96.2303 22.0408 95.3656 22.9056 94.2153 23.1932V24.4256C94.8315 24.1771 95.3655 23.8505 95.8585 23.3986L95.6531 24.59H98.1201C98.2434 24.0128 98.3666 23.3555 98.5309 22.6982L99.4758 19.2473C99.5579 18.9597 99.5991 18.6721 99.5991 18.3846V17.9738C99.5169 16.5749 98.3255 15.8354 96.1071 15.8354C95.4067 15.8354 94.7905 15.9176 94.2153 16.0018V17.5198C94.5851 17.3164 95.0369 17.2343 95.6141 17.2343C96.8856 17.2343 97.3807 17.8074 97.0089 19.0419L96.9698 19.1651H95.6531C95.1622 19.1651 94.6672 19.2062 94.2153 19.2062V20.6441L96.6001 20.6441Z" fill="#004A7F"/>
<path d="M100.34 24.59H102.848L104.039 20.1922C104.45 18.6311 105.888 17.5198 107.408 17.5198C108.887 17.5198 109.423 18.3846 108.93 20.11L107.737 24.59H110.245L111.641 19.3705C112.217 17.1521 111.107 15.8354 108.642 15.8354C107.038 15.8354 105.765 16.4106 104.655 17.5609L104.943 16.0409H102.437C102.191 17.3966 102.026 18.2202 101.942 18.5489L100.34 24.59Z" fill="#004A7F"/>
<path d="M112.465 24.5897H114.932L116.164 19.9865L119.494 24.5897H122.904L119.122 19.6989L124.218 16.0406H121.055L116.329 19.4525L118.218 12.3433H115.753L112.465 24.5897Z" fill="#004A7F"/>
</svg>
