<svg width="278" height="301" viewBox="0 0 278 301" fill="none" xmlns="http://www.w3.org/2000/svg">
<path d="M133.785 144.67H143.936C146.758 144.67 148.722 146.36 148.722 147.868C148.722 150.831 151.123 153.231 154.086 153.231C157.049 153.231 159.449 150.831 159.449 147.868C158.987 139.87 152.229 133.702 144.224 133.97V130.739C144.163 127.775 141.716 125.422 138.753 125.482C135.87 125.536 133.551 127.862 133.497 130.739V133.963C125.492 133.695 118.734 139.863 118.271 147.861V156.423C118.741 164.535 125.666 170.756 133.785 170.348C137.915 170.75 148.367 168.712 148.722 173.545V182.107C148.367 186.947 137.915 184.903 133.785 185.305C130.963 185.305 128.998 183.615 128.998 182.107C128.998 179.144 126.598 176.743 123.635 176.743C120.672 176.743 118.271 179.144 118.271 182.107C118.734 190.105 125.492 196.273 133.497 196.005V199.23C133.497 202.193 135.897 204.593 138.86 204.593C141.824 204.593 144.224 202.193 144.224 199.23V196.005C152.229 196.273 158.987 190.105 159.449 182.107V173.545C158.98 165.433 152.054 159.212 143.936 159.621C139.806 159.218 129.354 161.256 128.998 156.423V147.861C128.998 146.353 130.963 144.67 133.785 144.67Z" fill="black"/>
<path d="M138.859 100.636C103.327 100.676 74.5383 129.465 74.498 164.998C78.0312 250.384 199.701 250.357 203.221 164.998C203.187 129.465 174.392 100.67 138.859 100.636ZM138.859 218.632C109.253 218.598 85.2585 194.604 85.2249 164.998C88.1748 93.8448 189.557 93.8649 192.494 164.998C192.46 194.604 168.472 218.592 138.859 218.632Z" fill="black"/>
<path d="M252.524 27.4654H224.567C221.483 9.47776 204.401 -2.60339 186.413 0.480585C172.609 2.8472 161.795 13.6612 159.428 27.4654H118.304C115.213 9.47776 98.1309 -2.59669 80.1432 0.487289C66.3458 2.85391 55.5385 13.6679 53.1651 27.4654H25.2082C11.29 27.4855 0.0134086 38.7622 0 52.6803V274.935C0.0134086 288.846 11.29 300.129 25.2015 300.143H252.518C266.429 300.123 277.706 288.846 277.719 274.935C277.726 255.465 277.712 65.7738 277.719 52.6803C277.712 38.7622 266.436 27.4855 252.524 27.4654ZM252.524 289.409H25.2015C17.2099 289.403 10.7336 282.926 10.7269 274.928V224.156L61.2371 273.466C64.0864 276.262 67.9213 277.817 71.9104 277.811H242.897C245.86 277.811 248.26 275.411 248.26 272.447C248.26 269.484 245.86 267.084 242.897 267.084H73.2311V221.347C73.2244 212.906 66.386 206.068 57.9453 206.061H47.3324C44.3691 206.108 42.0092 208.549 42.0494 211.505C42.0963 214.401 44.4294 216.741 47.3324 216.788H57.952C60.4661 216.795 62.5042 218.833 62.5109 221.347V259.716L10.7269 209.165C10.6934 187.303 10.7537 71.801 10.7269 52.6736C10.7336 44.6821 17.2099 38.199 25.2015 38.1923H85.7279C88.6912 38.1454 91.0579 35.7117 91.0109 32.7484C90.9707 29.8454 88.6242 27.5056 85.7279 27.4654H64.1401C67.1168 15.525 79.2181 8.25758 91.1584 11.2343C103.099 14.211 110.366 26.3123 107.39 38.2526C104.909 48.1884 95.9788 55.1609 85.7346 55.1475C82.7713 55.2078 80.4181 57.6549 80.4785 60.6182C80.5388 63.4943 82.8585 65.8207 85.7346 65.8744C101.899 65.8475 115.669 54.1418 118.304 38.1923H191.998C194.961 38.1454 197.321 35.705 197.274 32.7417C197.227 29.8454 194.894 27.5056 191.991 27.4654H170.397C173.36 15.4982 185.461 8.20394 197.422 11.1672C209.382 14.1305 216.683 26.2318 213.72 38.1923C211.246 48.175 202.269 55.181 191.984 55.1475C189.021 55.2011 186.661 57.6482 186.715 60.6048C186.768 63.4943 189.095 65.8207 191.984 65.8744C208.148 65.8475 221.919 54.1418 224.554 38.1923H252.511C260.502 38.199 266.979 44.6821 266.986 52.6736V76.8761H33.6355C30.6722 76.9298 28.319 79.3768 28.3726 82.3401C28.4262 85.223 30.7526 87.5427 33.6355 87.603H266.999V274.928C266.992 282.926 260.516 289.403 252.524 289.409Z" fill="black"/>
<path d="M179.542 242.385H98.1789C95.2156 242.466 92.8825 244.933 92.963 247.896C93.0434 250.746 95.3296 253.038 98.1789 253.112H179.542C182.506 253.052 184.859 250.605 184.799 247.641C184.752 244.759 182.425 242.439 179.542 242.385Z" fill="black"/>
</svg>
