<svg width="300" height="300" viewBox="0 0 300 300" fill="none" xmlns="http://www.w3.org/2000/svg">
<path d="M150 56.25C98.2239 56.25 56.25 98.2239 56.25 150C56.25 201.776 98.2239 243.75 150 243.75C201.776 243.75 243.75 201.776 243.75 150C243.689 98.2483 201.752 56.311 150 56.25ZM150 231.25C105.127 231.25 68.75 194.873 68.75 150C68.75 105.127 105.127 68.75 150 68.75C194.873 68.75 231.25 105.127 231.25 150C231.201 194.855 194.855 231.201 150 231.25Z" fill="black"/>
<path d="M193.751 143.75H167.603C165.711 138.458 161.549 134.29 156.251 132.397V87.5C156.251 84.0454 153.455 81.25 150.001 81.25C146.546 81.25 143.751 84.0454 143.751 87.5V132.397C134.003 135.822 128.876 146.503 132.307 156.25C135.737 165.997 146.412 171.124 156.159 167.694C161.512 165.814 165.723 161.603 167.603 156.25H193.751C197.205 156.25 200.001 153.455 200.001 150C200.001 146.545 197.205 143.75 193.751 143.75ZM150.001 156.25C146.546 156.25 143.751 153.455 143.751 150C143.751 146.545 146.546 143.75 150.001 143.75C153.455 143.75 156.251 146.545 156.251 150C156.251 153.455 153.455 156.25 150.001 156.25Z" fill="black"/>
<path d="M150 0C67.157 0 0 67.157 0 150C0 232.843 67.157 300 150 300C232.843 300 300 232.843 300 150C299.902 67.1997 232.8 0.0976562 150 0ZM150 287.5C74.0601 287.5 12.5 225.94 12.5 150C12.5 74.0601 74.0601 12.5 150 12.5C225.94 12.5 287.5 74.0601 287.5 150C287.415 225.903 225.903 287.415 150 287.5Z" fill="black"/>
</svg>
