<svg width="299" height="299" viewBox="0 0 299 299" fill="none" xmlns="http://www.w3.org/2000/svg">
<path d="M79.7319 242.041C73.8516 242.041 69.0676 237.257 69.0676 231.376V67.6239C69.0676 61.7435 73.8516 56.9595 79.7319 56.9595H147.356C151.293 57.0094 154.432 60.1489 154.482 64.0857V81.8762C154.482 91.6934 162.455 99.6667 172.272 99.6667H190.063C194 99.7165 197.139 102.856 197.189 106.793V149.65C198.335 149.55 199.581 149.5 200.777 149.5C201.973 149.5 203.119 149.55 204.315 149.65V106.793C204.315 103.255 203.02 99.866 200.628 97.2747C200.478 97.0754 157.472 54.0194 157.472 54.0194C154.731 51.3284 151.143 49.8334 147.356 49.8334H79.7319C69.9147 49.8334 61.9414 57.8067 61.9414 67.6239V231.376C61.9414 241.193 69.9147 249.167 79.7319 249.167H174.216C170.728 247.173 167.488 244.781 164.548 242.041H79.7319Z" fill="black"/>
<path d="M186.477 113.919H109.883C107.939 113.919 106.295 115.514 106.295 117.457C106.295 119.401 107.89 121.045 109.833 121.045C109.833 121.045 109.833 121.045 109.883 121.045H186.477C188.42 121.045 190.015 119.45 190.015 117.457C190.065 115.514 188.47 113.919 186.477 113.919Z" fill="black"/>
<path d="M190.064 149.5C190.064 147.557 188.469 145.962 186.526 145.962H109.882C107.938 145.962 106.344 147.557 106.344 149.5C106.344 151.444 107.938 153.038 109.882 153.038H186.476C188.469 153.038 190.064 151.444 190.064 149.5Z" fill="black"/>
<path d="M153.585 177.955H109.931C107.987 177.955 106.393 179.549 106.393 181.543C106.393 183.486 107.987 185.081 109.931 185.081H150.495C151.292 182.639 152.339 180.247 153.585 177.955Z" fill="black"/>
<path d="M106.344 213.586C106.344 215.529 107.938 217.124 109.882 217.124H149.3C148.652 214.782 148.154 212.39 147.855 209.998H109.882C107.938 209.998 106.344 211.592 106.344 213.586Z" fill="black"/>
<path d="M100.013 109.036C98.6174 107.64 96.3749 107.64 94.9796 109.036L85.6109 118.404L82.1724 114.966C80.7771 113.57 78.5346 113.57 77.1393 114.966C75.7439 116.361 75.7439 118.604 77.1393 119.999L83.0694 125.929C84.4648 127.324 86.7073 127.324 88.1026 125.929L99.9629 114.069C101.408 112.673 101.408 110.431 100.013 109.036Z" fill="black"/>
<path d="M100.013 141.028C98.6174 139.633 96.3749 139.633 94.9796 141.028L85.6109 150.397L82.1724 146.958C80.7771 145.563 78.5346 145.563 77.1393 146.958C75.7439 148.354 75.7439 150.596 77.1393 151.992L83.0694 157.922C84.4648 159.317 86.7073 159.317 88.1026 157.922L99.9629 146.061C101.408 144.716 101.508 142.523 100.162 141.128C100.212 141.078 100.162 141.028 100.013 141.028Z" fill="black"/>
<path d="M100.013 173.071C98.6174 171.676 96.3749 171.676 94.9796 173.071L85.6109 182.44L82.1724 179.001C80.7771 177.606 78.5346 177.606 77.1393 179.001C75.7439 180.397 75.7439 182.639 77.1393 184.035L83.0694 189.965C84.4648 191.36 86.7073 191.36 88.1026 189.965L99.9629 178.104C101.209 176.759 100.96 174.616 100.013 173.071Z" fill="black"/>
<path d="M94.9796 205.114L85.6109 214.482L82.1724 211.044C80.7771 209.649 78.5346 209.649 77.1393 211.044C75.7439 212.439 75.7439 214.682 77.1393 216.077L83.0694 222.007C84.4648 223.403 86.7073 223.403 88.1026 222.007L99.9629 210.147C101.358 208.752 101.358 206.509 99.9629 205.114C98.6174 203.718 96.3749 203.718 94.9796 205.114Z" fill="black"/>
<path d="M200.779 156.626C175.214 156.626 154.483 177.357 154.483 202.922C154.483 228.486 175.214 249.167 200.779 249.167C226.343 249.167 247.074 228.436 247.074 202.872C247.024 177.357 226.343 156.626 200.779 156.626ZM232.722 225.496C232.522 218.818 228.137 213.038 221.808 210.995L220.164 210.446C211.094 221.161 195.098 222.506 184.383 213.436C183.287 212.49 182.29 211.493 181.344 210.397L179.749 210.945C173.42 213.038 169.035 218.818 168.835 225.446C164.151 218.868 161.61 210.945 161.659 202.872C161.659 181.244 179.201 163.703 200.779 163.703C222.356 163.703 239.948 181.244 239.948 202.822C239.948 210.995 237.406 218.868 232.722 225.496Z" fill="black"/>
<path d="M200.776 175.613C190.61 175.613 182.388 183.835 182.388 194.001C182.388 204.167 190.61 212.39 200.776 212.39C210.942 212.39 219.165 204.167 219.165 194.001C219.115 183.835 210.892 175.613 200.776 175.613Z" fill="black"/>
<path d="M149.5 0C66.9262 0 0 66.9262 0 149.5C0 232.074 66.9262 299 149.5 299C232.074 299 299 232.074 299 149.5C298.9 66.976 232.024 0.0996667 149.5 0ZM149.5 290.478C71.6603 290.478 8.5215 227.34 8.5215 149.5C8.5215 71.6603 71.6603 8.5215 149.5 8.5215C227.34 8.5215 290.478 71.6603 290.478 149.5C290.379 227.34 227.34 290.379 149.5 290.478Z" fill="black"/>
</svg>
