<svg width="26" height="29" viewBox="0 0 26 29" fill="none" xmlns="http://www.w3.org/2000/svg">
<path d="M17.3009 14.7798C19.9267 14.7798 22.0549 12.6516 22.0549 10.0258C22.0549 7.39997 19.9267 5.27181 17.3009 5.27181C14.6751 5.27181 12.5429 7.39997 12.5429 10.0258C12.5429 12.6516 14.6751 14.7798 17.3009 14.7798ZM18.9516 16.034H14.9178C11.5597 16.034 8.82868 18.765 8.82868 22.1232V27.0552L8.84082 27.132L9.18068 27.2372C12.3851 28.2366 15.1687 28.5724 17.4587 28.5724C21.9335 28.5724 24.5269 27.2979 24.6847 27.217L25.0003 27.0552H25.0327V22.1191C25.0408 18.765 22.3098 16.034 18.9516 16.034ZM8.67089 9.9125C9.60146 9.9125 10.4673 9.64143 11.1996 9.18019C11.4343 7.65891 12.2475 6.33185 13.4127 5.42555C13.4168 5.33654 13.4249 5.24753 13.4249 5.15852C13.4289 2.53271 11.2967 0.404541 8.67089 0.404541C6.04507 0.404541 3.91691 2.53271 3.91691 5.15852C3.91691 7.78434 6.04507 9.9125 8.67089 9.9125ZM12.7816 14.9659C11.7053 13.9342 11.0256 12.4979 10.973 10.9078C10.8233 10.8957 10.6777 10.8835 10.528 10.8835H6.49417C3.13604 10.8835 0.405029 13.6145 0.405029 16.9727V21.9087L0.417167 21.9856L0.757026 22.0908C3.3262 22.8919 5.62025 23.2641 7.61085 23.3814V21.8885C7.6149 18.6194 9.79566 15.856 12.7816 14.9659Z" stroke="white" stroke-width="0.854518" stroke-miterlimit="10"/>
</svg>
